# Blender 4.3.2
# www.blender.org
mtllib Coin.mtl
o Coin
v 0.000000 -0.100000 -1.000000
v 0.000000 0.100000 -1.000000
v 0.195090 -0.100000 -0.980785
v 0.195090 0.100000 -0.980785
v 0.382683 -0.100000 -0.923880
v 0.382683 0.100000 -0.923880
v 0.555570 -0.100000 -0.831470
v 0.555570 0.100000 -0.831470
v 0.707107 -0.100000 -0.707107
v 0.707107 0.100000 -0.707107
v 0.831470 -0.100000 -0.555570
v 0.831470 0.100000 -0.555570
v 0.923880 -0.100000 -0.382683
v 0.923880 0.100000 -0.382683
v 0.980785 -0.100000 -0.195090
v 0.980785 0.100000 -0.195090
v 1.000000 -0.100000 0.000000
v 1.000000 0.100000 0.000000
v 0.980785 -0.100000 0.195090
v 0.980785 0.100000 0.195090
v 0.923880 -0.100000 0.382683
v 0.923880 0.100000 0.382683
v 0.831470 -0.100000 0.555570
v 0.831470 0.100000 0.555570
v 0.707107 -0.100000 0.707107
v 0.707107 0.100000 0.707107
v 0.555570 -0.100000 0.831470
v 0.555570 0.100000 0.831470
v 0.382683 -0.100000 0.923880
v 0.382683 0.100000 0.923880
v 0.195090 -0.100000 0.980785
v 0.195090 0.100000 0.980785
v 0.000000 -0.100000 1.000000
v 0.000000 0.100000 1.000000
v -0.195090 -0.100000 0.980785
v -0.195090 0.100000 0.980785
v -0.382683 -0.100000 0.923880
v -0.382683 0.100000 0.923880
v -0.555570 -0.100000 0.831470
v -0.555570 0.100000 0.831470
v -0.707107 -0.100000 0.707107
v -0.707107 0.100000 0.707107
v -0.831470 -0.100000 0.555570
v -0.831470 0.100000 0.555570
v -0.923880 -0.100000 0.382683
v -0.923880 0.100000 0.382683
v -0.980785 -0.100000 0.195090
v -0.980785 0.100000 0.195090
v -1.000000 -0.100000 0.000000
v -1.000000 0.100000 0.000000
v -0.980785 -0.100000 -0.195090
v -0.980785 0.100000 -0.195090
v -0.923880 -0.100000 -0.382683
v -0.923880 0.100000 -0.382683
v -0.831470 -0.100000 -0.555570
v -0.831470 0.100000 -0.555570
v -0.707107 -0.100000 -0.707107
v -0.707107 0.100000 -0.707107
v -0.555570 -0.100000 -0.831470
v -0.555570 0.100000 -0.831470
v -0.382683 -0.100000 -0.923880
v -0.382683 0.100000 -0.923880
v -0.195090 -0.100000 -0.980785
v -0.195090 0.100000 -0.980785
v 0.132661 0.095000 -0.666934
v 0.000000 0.095000 -0.680000
v 0.260225 0.095000 -0.628238
v 0.377788 0.095000 -0.565399
v 0.480833 0.095000 -0.480833
v 0.565399 0.095000 -0.377788
v 0.628238 0.095000 -0.260225
v 0.666934 0.095000 -0.132661
v 0.680000 0.095000 -0.000000
v 0.666934 0.095000 0.132661
v 0.628238 0.095000 0.260225
v 0.565399 0.095000 0.377788
v 0.480833 0.095000 0.480833
v 0.377788 0.095000 0.565399
v 0.260225 0.095000 0.628238
v 0.132661 0.095000 0.666934
v 0.000000 0.095000 0.680000
v -0.132661 0.095000 0.666934
v -0.260225 0.095000 0.628238
v -0.377788 0.095000 0.565399
v -0.480833 0.095000 0.480833
v -0.565399 0.095000 0.377788
v -0.628238 0.095000 0.260225
v -0.666934 0.095000 0.132661
v -0.680000 0.095000 -0.000000
v -0.666934 0.095000 -0.132661
v -0.628238 0.095000 -0.260225
v -0.565399 0.095000 -0.377788
v -0.480833 0.095000 -0.480833
v -0.377788 0.095000 -0.565399
v -0.260225 0.095000 -0.628238
v -0.132661 0.095000 -0.666934
v 0.000000 -0.095000 -0.680000
v 0.132661 -0.095000 -0.666934
v 0.260225 -0.095000 -0.628238
v 0.377788 -0.095000 -0.565399
v 0.480833 -0.095000 -0.480833
v 0.565399 -0.095000 -0.377788
v 0.628238 -0.095000 -0.260225
v 0.666934 -0.095000 -0.132661
v 0.680000 -0.095000 -0.000000
v 0.666934 -0.095000 0.132661
v 0.628238 -0.095000 0.260225
v 0.565399 -0.095000 0.377788
v 0.480833 -0.095000 0.480833
v 0.377788 -0.095000 0.565399
v 0.260225 -0.095000 0.628238
v 0.132661 -0.095000 0.666934
v 0.000000 -0.095000 0.680000
v -0.132661 -0.095000 0.666934
v -0.260225 -0.095000 0.628238
v -0.377788 -0.095000 0.565399
v -0.480833 -0.095000 0.480833
v -0.565399 -0.095000 0.377788
v -0.628238 -0.095000 0.260225
v -0.666934 -0.095000 0.132661
v -0.680000 -0.095000 -0.000000
v -0.666934 -0.095000 -0.132661
v -0.628238 -0.095000 -0.260225
v -0.565399 -0.095000 -0.377788
v -0.480833 -0.095000 -0.480833
v -0.377788 -0.095000 -0.565399
v -0.260225 -0.095000 -0.628238
v -0.132661 -0.095000 -0.666934
v 0.132661 0.055000 -0.666934
v 0.000000 0.055000 -0.680000
v 0.260225 0.055000 -0.628238
v 0.377788 0.055000 -0.565399
v 0.480833 0.055000 -0.480833
v 0.565399 0.055000 -0.377788
v 0.628238 0.055000 -0.260225
v 0.666934 0.055000 -0.132661
v 0.680000 0.055000 -0.000000
v 0.666934 0.055000 0.132661
v 0.628238 0.055000 0.260225
v 0.565399 0.055000 0.377788
v 0.480833 0.055000 0.480833
v 0.377788 0.055000 0.565399
v 0.260225 0.055000 0.628238
v 0.132661 0.055000 0.666934
v 0.000000 0.055000 0.680000
v -0.132661 0.055000 0.666934
v -0.260225 0.055000 0.628238
v -0.377788 0.055000 0.565399
v -0.480833 0.055000 0.480833
v -0.565399 0.055000 0.377788
v -0.628238 0.055000 0.260225
v -0.666934 0.055000 0.132661
v -0.680000 0.055000 -0.000000
v -0.666934 0.055000 -0.132661
v -0.628238 0.055000 -0.260225
v -0.565399 0.055000 -0.377788
v -0.480833 0.055000 -0.480833
v -0.377788 0.055000 -0.565399
v -0.260225 0.055000 -0.628238
v -0.132661 0.055000 -0.666934
v 0.000000 -0.055000 -0.680000
v 0.132661 -0.055000 -0.666934
v 0.260225 -0.055000 -0.628238
v 0.377788 -0.055000 -0.565399
v 0.480833 -0.055000 -0.480833
v 0.565399 -0.055000 -0.377788
v 0.628238 -0.055000 -0.260225
v 0.666934 -0.055000 -0.132661
v 0.680000 -0.055000 -0.000000
v 0.666934 -0.055000 0.132661
v 0.628238 -0.055000 0.260225
v 0.565399 -0.055000 0.377788
v 0.480833 -0.055000 0.480833
v 0.377788 -0.055000 0.565399
v 0.260225 -0.055000 0.628238
v 0.132661 -0.055000 0.666934
v 0.000000 -0.055000 0.680000
v -0.132661 -0.055000 0.666934
v -0.260225 -0.055000 0.628238
v -0.377788 -0.055000 0.565399
v -0.480833 -0.055000 0.480833
v -0.565399 -0.055000 0.377788
v -0.628238 -0.055000 0.260225
v -0.666934 -0.055000 0.132661
v -0.680000 -0.055000 -0.000000
v -0.666934 -0.055000 -0.132661
v -0.628238 -0.055000 -0.260225
v -0.565399 -0.055000 -0.377788
v -0.480833 -0.055000 -0.480833
v -0.377788 -0.055000 -0.565399
v -0.260225 -0.055000 -0.628238
v -0.132661 -0.055000 -0.666934
vn 0.0980 -0.0000 -0.9952
vn 0.2903 -0.0000 -0.9569
vn 0.4714 -0.0000 -0.8819
vn 0.6344 -0.0000 -0.7730
vn 0.7730 -0.0000 -0.6344
vn 0.8819 -0.0000 -0.4714
vn 0.9569 -0.0000 -0.2903
vn 0.9952 -0.0000 -0.0980
vn 0.9952 -0.0000 0.0980
vn 0.9569 -0.0000 0.2903
vn 0.8819 -0.0000 0.4714
vn 0.7730 -0.0000 0.6344
vn 0.6344 -0.0000 0.7730
vn 0.4714 -0.0000 0.8819
vn 0.2903 -0.0000 0.9569
vn 0.0980 -0.0000 0.9952
vn -0.0980 -0.0000 0.9952
vn -0.2903 -0.0000 0.9569
vn -0.4714 -0.0000 0.8819
vn -0.6344 -0.0000 0.7730
vn -0.7730 -0.0000 0.6344
vn -0.8819 -0.0000 0.4714
vn -0.9569 -0.0000 0.2903
vn -0.9952 -0.0000 0.0980
vn -0.9952 -0.0000 -0.0980
vn -0.9569 -0.0000 -0.2903
vn -0.8819 -0.0000 -0.4714
vn -0.7730 -0.0000 -0.6344
vn -0.6344 -0.0000 -0.7730
vn -0.4714 -0.0000 -0.8819
vn -0.0156 0.9999 -0.0015
vn -0.2903 -0.0000 -0.9569
vn -0.0980 -0.0000 -0.9952
vn -0.0121 -0.9999 0.0100
vn 0.0046 0.9999 -0.0150
vn 0.0138 0.9999 0.0074
vn -0.0121 0.9999 0.0100
vn -0.0074 0.9999 -0.0138
vn 0.0150 0.9999 -0.0046
vn -0.0015 0.9999 0.0156
vn 0.0015 0.9999 0.0156
vn -0.0150 0.9999 -0.0046
vn 0.0074 0.9999 -0.0138
vn 0.0121 0.9999 0.0100
vn -0.0138 0.9999 0.0074
vn -0.0046 0.9999 -0.0150
vn 0.0156 0.9999 -0.0015
vn -0.0046 0.9999 0.0150
vn -0.0138 0.9999 -0.0074
vn 0.0100 0.9999 -0.0121
vn 0.0100 0.9999 0.0121
vn -0.0150 0.9999 0.0046
vn -0.0015 0.9999 -0.0156
vn 0.0156 0.9999 0.0015
vn -0.0074 0.9999 0.0138
vn -0.0121 0.9999 -0.0100
vn 0.0121 0.9999 -0.0100
vn 0.0074 0.9999 0.0138
vn -0.0156 0.9999 0.0015
vn 0.0015 0.9999 -0.0156
vn 0.0150 0.9999 0.0046
vn -0.0100 0.9999 0.0121
vn -0.0100 0.9999 -0.0121
vn 0.0138 0.9999 -0.0074
vn 0.0046 0.9999 0.0150
vn -0.0074 -0.9999 -0.0138
vn 0.0150 -0.9999 -0.0046
vn -0.0015 -0.9999 0.0156
vn 0.0015 -0.9999 0.0156
vn -0.0150 -0.9999 -0.0046
vn 0.0074 -0.9999 -0.0138
vn 0.0121 -0.9999 0.0100
vn -0.0138 -0.9999 0.0074
vn -0.0046 -0.9999 -0.0150
vn 0.0156 -0.9999 -0.0015
vn -0.0046 -0.9999 0.0150
vn -0.0138 -0.9999 -0.0074
vn 0.0100 -0.9999 -0.0121
vn 0.0100 -0.9999 0.0121
vn -0.0150 -0.9999 0.0046
vn -0.0015 -0.9999 -0.0156
vn 0.0156 -0.9999 0.0015
vn -0.0074 -0.9999 0.0138
vn -0.0121 -0.9999 -0.0100
vn 0.0121 -0.9999 -0.0100
vn 0.0074 -0.9999 0.0138
vn -0.0156 -0.9999 0.0015
vn 0.0015 -0.9999 -0.0156
vn 0.0150 -0.9999 0.0046
vn -0.0100 -0.9999 0.0121
vn -0.0100 -0.9999 -0.0121
vn 0.0138 -0.9999 -0.0074
vn 0.0046 -0.9999 0.0150
vn -0.0156 -0.9999 -0.0015
vn 0.0046 -0.9999 -0.0150
vn 0.0138 -0.9999 0.0074
vn -0.0000 1.0000 -0.0000
vn -0.0000 -1.0000 -0.0000
vt 0.578348 0.747182
vt 0.578348 0.373591
vt 0.608795 0.373591
vt 0.608795 0.747182
vt 0.634688 0.373591
vt 0.634688 0.747182
vt 0.371792 0.373591
vt 0.371792 0.000000
vt 0.402239 0.000000
vt 0.402239 0.373591
vt 0.436070 0.000000
vt 0.436070 0.373591
vt 0.471984 0.000000
vt 0.471984 0.373591
vt 0.508603 0.000000
vt 0.508603 0.373591
vt 0.544517 0.000000
vt 0.544517 0.373591
vt 0.578348 0.000000
vt 0.578348 0.373591
vt 0.608795 0.000000
vt 0.608795 0.373591
vt 0.634688 0.000000
vt 0.634688 0.373591
vt 0.634688 0.373591
vt 0.634688 0.000000
vt 0.665135 0.000000
vt 0.665135 0.373591
vt 0.698966 0.000000
vt 0.698966 0.373591
vt 0.734881 0.000000
vt 0.734881 0.373591
vt 0.771499 0.000000
vt 0.771499 0.373591
vt 0.807414 0.000000
vt 0.807414 0.373591
vt 0.841245 0.000000
vt 0.841245 0.373591
vt 0.871692 0.000000
vt 0.871692 0.373591
vt 0.897585 0.000000
vt 0.897585 0.373591
vt 0.665135 0.373591
vt 0.665135 0.747182
vt 0.698966 0.373591
vt 0.698966 0.747182
vt 0.734881 0.373591
vt 0.734881 0.747182
vt 0.771499 0.373591
vt 0.771499 0.747182
vt 0.807414 0.373591
vt 0.807414 0.747182
vt 0.841245 0.373591
vt 0.841245 0.747182
vt 0.871692 0.373591
vt 0.871692 0.747182
vt 0.897585 0.373591
vt 0.897585 0.747182
vt 0.371792 0.747182
vt 0.371792 0.373591
vt 0.402239 0.373591
vt 0.402239 0.747182
vt 0.436070 0.373591
vt 0.436070 0.747182
vt 0.471984 0.373591
vt 0.471984 0.747182
vt 0.508603 0.373591
vt 0.508603 0.747182
vt 0.330291 0.304398
vt 0.304398 0.330291
vt 0.266477 0.284084
vt 0.284084 0.266477
vt 0.544517 0.373591
vt 0.544517 0.747182
vt 0.000000 0.539379
vt 0.007144 0.503464
vt 0.064345 0.520816
vt 0.059487 0.545238
vt 0.774047 0.767886
vt 0.774047 0.747182
vt 0.848765 0.747182
vt 0.848765 0.767886
vt 0.273951 0.021157
vt 0.304398 0.041501
vt 0.266477 0.087707
vt 0.245773 0.073874
vt 0.007144 0.131672
vt 0.021157 0.097841
vt 0.073874 0.126019
vt 0.064345 0.149024
vt 0.204205 0.371792
vt 0.167587 0.371792
vt 0.173446 0.312305
vt 0.198346 0.312305
vt 0.364648 0.131672
vt 0.371792 0.167587
vt 0.312305 0.173446
vt 0.307447 0.149024
vt 0.097841 0.021157
vt 0.131672 0.007144
vt 0.149024 0.064345
vt 0.126019 0.073874
vt 0.067394 0.330291
vt 0.041501 0.304398
vt 0.087707 0.266477
vt 0.105315 0.284084
vt 0.021157 0.273951
vt 0.073874 0.245773
vt 0.350635 0.273951
vt 0.297918 0.245773
vt 0.240120 0.007144
vt 0.222768 0.064345
vt 0.000000 0.167587
vt 0.059487 0.173446
vt 0.240120 0.364648
vt 0.222768 0.307447
vt 0.350635 0.097841
vt 0.297918 0.126019
vt 0.067394 0.041501
vt 0.105315 0.087707
vt 0.097841 0.350635
vt 0.126019 0.297918
vt 0.364648 0.240120
vt 0.307447 0.222768
vt 0.204205 0.000000
vt 0.198346 0.059487
vt 0.000000 0.204205
vt 0.059487 0.198346
vt 0.273951 0.350635
vt 0.245773 0.297918
vt 0.330291 0.067394
vt 0.284084 0.105315
vt 0.041501 0.067394
vt 0.087707 0.105315
vt 0.131672 0.364648
vt 0.149024 0.307447
vt 0.371792 0.204205
vt 0.312305 0.198346
vt 0.167587 0.000000
vt 0.173446 0.059487
vt 0.007144 0.240120
vt 0.064345 0.222768
vt 0.327537 0.811715
vt 0.327537 0.836615
vt 0.252818 0.836615
vt 0.252818 0.811715
vt 0.240120 0.378936
vt 0.273951 0.392949
vt 0.245773 0.445665
vt 0.222768 0.436136
vt 0.350635 0.645742
vt 0.330291 0.676189
vt 0.284084 0.638269
vt 0.297918 0.617565
vt 0.041501 0.676189
vt 0.021157 0.645742
vt 0.073874 0.617565
vt 0.087707 0.638269
vt 0.067394 0.702083
vt 0.105315 0.655876
vt 0.097841 0.392949
vt 0.131672 0.378936
vt 0.149024 0.436136
vt 0.126019 0.445665
vt 0.364648 0.503464
vt 0.371792 0.539379
vt 0.312305 0.545238
vt 0.307447 0.520816
vt 0.204205 0.743584
vt 0.167587 0.743584
vt 0.173446 0.684097
vt 0.198346 0.684097
vt 0.021157 0.469633
vt 0.073874 0.497811
vt 0.304398 0.413293
vt 0.266477 0.459499
vt 0.304398 0.702083
vt 0.266477 0.655876
vt 0.007144 0.611912
vt 0.064345 0.594560
vt 0.167587 0.371792
vt 0.173446 0.431279
vt 0.371792 0.575997
vt 0.312305 0.570138
vt 0.131672 0.736440
vt 0.149024 0.679239
vt 0.041501 0.439186
vt 0.087707 0.477107
vt 0.330291 0.439186
vt 0.284084 0.477107
vt 0.273951 0.722427
vt 0.245773 0.669710
vt 0.000000 0.575997
vt 0.059487 0.570138
vt 0.204205 0.371792
vt 0.198346 0.431279
vt 0.364648 0.611912
vt 0.307447 0.594560
vt 0.097841 0.722427
vt 0.126019 0.669710
vt 0.067394 0.413293
vt 0.105315 0.459499
vt 0.350635 0.469633
vt 0.297918 0.497811
vt 0.240120 0.736440
vt 0.222768 0.679239
vt 0.004858 0.906865
vt 0.000000 0.882443
vt 0.000000 0.857543
vt 0.004858 0.833121
vt 0.014387 0.810116
vt 0.028221 0.789412
vt 0.045828 0.771804
vt 0.066532 0.757971
vt 0.089537 0.748442
vt 0.113959 0.743584
vt 0.138859 0.743584
vt 0.163281 0.748442
vt 0.186286 0.757970
vt 0.206990 0.771804
vt 0.224598 0.789412
vt 0.238432 0.810116
vt 0.247961 0.833121
vt 0.252818 0.857543
vt 0.252818 0.882443
vt 0.247961 0.906865
vt 0.238432 0.929870
vt 0.224598 0.950574
vt 0.206990 0.968181
vt 0.186286 0.982015
vt 0.163281 0.991544
vt 0.138859 0.996402
vt 0.113959 0.996402
vt 0.089537 0.991544
vt 0.066532 0.982015
vt 0.045828 0.968181
vt 0.028221 0.950574
vt 0.014387 0.929870
vt 0.624610 0.908344
vt 0.624610 0.887640
vt 0.699328 0.887640
vt 0.699328 0.908344
vt 0.774047 0.790891
vt 0.848765 0.790891
vt 0.624610 0.925951
vt 0.699328 0.925951
vt 0.774047 0.815312
vt 0.848765 0.815313
vt 0.923483 0.747182
vt 0.923483 0.767886
vt 0.774047 0.840213
vt 0.848765 0.840213
vt 0.848765 0.908344
vt 0.848765 0.887640
vt 0.923483 0.887640
vt 0.923483 0.908344
vt 0.923483 0.790891
vt 0.774047 0.864635
vt 0.848765 0.864635
vt 0.848765 0.925951
vt 0.923483 0.925951
vt 0.923483 0.815313
vt 0.774047 0.887640
vt 0.897585 0.020704
vt 0.897585 -0.000000
vt 0.972303 0.000000
vt 0.972303 0.020704
vt 0.923483 0.840213
vt 0.774047 0.908344
vt 0.897585 0.043709
vt 0.972303 0.043709
vt 0.923483 0.864635
vt 0.774047 0.925951
vt 0.897585 0.068131
vt 0.972303 0.068131
vt 0.624610 0.767886
vt 0.624610 0.747182
vt 0.699328 0.747182
vt 0.699328 0.767886
vt 0.897585 0.093031
vt 0.972303 0.093031
vt 0.624610 0.790891
vt 0.699328 0.790891
vt 0.897585 0.117453
vt 0.972303 0.117453
vt 0.624610 0.815313
vt 0.699328 0.815313
vt 0.897585 0.140458
vt 0.972303 0.140458
vt 0.624610 0.840213
vt 0.699328 0.840213
vt 0.897585 0.161162
vt 0.972303 0.161162
vt 0.624610 0.864635
vt 0.699328 0.864635
vt 0.897585 0.178770
vt 0.972303 0.178770
vt 0.371792 0.886041
vt 0.371792 0.861141
vt 0.376650 0.836719
vt 0.386179 0.813714
vt 0.400013 0.793010
vt 0.417620 0.775402
vt 0.438324 0.761569
vt 0.461329 0.752040
vt 0.485751 0.747182
vt 0.510651 0.747182
vt 0.535073 0.752039
vt 0.558078 0.761568
vt 0.578782 0.775402
vt 0.596389 0.793010
vt 0.610223 0.813714
vt 0.619752 0.836719
vt 0.624610 0.861141
vt 0.624610 0.886041
vt 0.619752 0.910463
vt 0.610223 0.933468
vt 0.596390 0.954172
vt 0.578782 0.971779
vt 0.558078 0.985613
vt 0.535073 0.995142
vt 0.510651 1.000000
vt 0.485751 1.000000
vt 0.461329 0.995142
vt 0.438324 0.985613
vt 0.417620 0.971779
vt 0.400013 0.954172
vt 0.386179 0.933468
vt 0.376650 0.910463
vt 0.972303 0.319228
vt 0.972303 0.339932
vt 0.897585 0.339932
vt 0.897585 0.319228
vt 0.972303 0.199474
vt 0.972303 0.222479
vt 0.897585 0.222479
vt 0.897585 0.199474
vt 0.327537 0.861037
vt 0.252818 0.861037
vt 0.972303 0.357539
vt 0.897585 0.357539
vt 0.972303 0.246901
vt 0.897585 0.246901
vt 0.327537 0.884042
vt 0.252818 0.884042
vt 0.972303 0.378243
vt 0.897585 0.378243
vt 0.897585 0.357539
vt 0.972303 0.271801
vt 0.897585 0.271801
vt 0.327537 0.904746
vt 0.252818 0.904746
vt 0.972303 0.401248
vt 0.897585 0.401248
vt 0.972303 0.296223
vt 0.897585 0.296223
vt 0.327537 0.922353
vt 0.252818 0.922353
vt 0.972303 0.425670
vt 0.897585 0.425670
vt 0.774047 0.747182
vt 0.774047 0.767886
vt 0.699328 0.767885
vt 0.699328 0.747182
vt 0.972303 0.450571
vt 0.897585 0.450571
vt 0.774047 0.790891
vt 0.699328 0.790890
vt 0.972303 0.474993
vt 0.897585 0.474993
vt 0.774047 0.815312
vt 0.699328 0.815312
vt 0.972303 0.497998
vt 0.897585 0.497998
vt 0.774047 0.840213
vt 0.699328 0.840213
vt 0.972303 0.518702
vt 0.897585 0.518702
vt 0.774047 0.864635
vt 0.699328 0.864635
vt 0.972303 0.536309
vt 0.897585 0.536309
vt 0.774047 0.887640
vt 0.699328 0.887640
vt 0.327537 0.743584
vt 0.327537 0.764288
vt 0.252818 0.764288
vt 0.252818 0.743584
vt 0.774047 0.908344
vt 0.699328 0.908344
vt 0.327537 0.787293
vt 0.252818 0.787293
vt 0.774047 0.925951
vt 0.699328 0.925951
vt 0.972303 0.178770
s 0
usemtl Coin
f 1/1/1 2/2/1 4/3/1 3/4/1
f 3/4/2 4/3/2 6/5/2 5/6/2
f 5/7/3 6/8/3 8/9/3 7/10/3
f 7/10/4 8/9/4 10/11/4 9/12/4
f 9/12/5 10/11/5 12/13/5 11/14/5
f 11/14/6 12/13/6 14/15/6 13/16/6
f 13/16/7 14/15/7 16/17/7 15/18/7
f 15/18/8 16/17/8 18/19/8 17/20/8
f 17/20/9 18/19/9 20/21/9 19/22/9
f 19/22/10 20/21/10 22/23/10 21/24/10
f 21/25/11 22/26/11 24/27/11 23/28/11
f 23/28/12 24/27/12 26/29/12 25/30/12
f 25/30/13 26/29/13 28/31/13 27/32/13
f 27/32/14 28/31/14 30/33/14 29/34/14
f 29/34/15 30/33/15 32/35/15 31/36/15
f 31/36/16 32/35/16 34/37/16 33/38/16
f 33/38/17 34/37/17 36/39/17 35/40/17
f 35/40/18 36/39/18 38/41/18 37/42/18
f 37/6/19 38/5/19 40/43/19 39/44/19
f 39/44/20 40/43/20 42/45/20 41/46/20
f 41/46/21 42/45/21 44/47/21 43/48/21
f 43/48/22 44/47/22 46/49/22 45/50/22
f 45/50/23 46/49/23 48/51/23 47/52/23
f 47/52/24 48/51/24 50/53/24 49/54/24
f 49/54/25 50/53/25 52/55/25 51/56/25
f 51/56/26 52/55/26 54/57/26 53/58/26
f 53/59/27 54/60/27 56/61/27 55/62/27
f 55/62/28 56/61/28 58/63/28 57/64/28
f 57/64/29 58/63/29 60/65/29 59/66/29
f 59/66/30 60/65/30 62/67/30 61/68/30
f 20/69/31 18/70/31 73/71/31 74/72/31
f 61/68/32 62/67/32 64/73/32 63/74/32
f 63/74/33 64/73/33 2/2/33 1/1/33
f 9/75/34 11/76/34 102/77/34 101/78/34
f 76/79/27 75/80/27 139/81/27 140/82/27
f 38/83/35 36/84/35 82/85/35 83/86/35
f 56/87/36 54/88/36 91/89/36 92/90/36
f 12/91/37 10/92/37 69/93/37 70/94/37
f 30/95/38 28/96/38 78/97/38 79/98/38
f 48/99/39 46/100/39 87/101/39 88/102/39
f 4/103/40 2/104/40 66/105/40 65/106/40
f 2/104/41 64/107/41 96/108/41 66/105/41
f 22/109/42 20/69/42 74/72/42 75/110/42
f 40/111/43 38/83/43 83/86/43 84/112/43
f 58/113/44 56/87/44 92/90/44 93/114/44
f 14/115/45 12/91/45 70/94/45 71/116/45
f 32/117/46 30/95/46 79/98/46 80/118/46
f 50/119/47 48/99/47 88/102/47 89/120/47
f 6/121/48 4/103/48 65/106/48 67/122/48
f 24/123/49 22/109/49 75/110/49 76/124/49
f 42/125/50 40/111/50 84/112/50 85/126/50
f 60/127/51 58/113/51 93/114/51 94/128/51
f 16/129/52 14/115/52 71/116/52 72/130/52
f 34/131/53 32/117/53 80/118/53 81/132/53
f 52/133/54 50/119/54 89/120/54 90/134/54
f 8/135/55 6/121/55 67/122/55 68/136/55
f 26/137/56 24/123/56 76/124/56 77/138/56
f 44/139/57 42/125/57 85/126/57 86/140/57
f 62/141/58 60/127/58 94/128/58 95/142/58
f 18/70/59 16/129/59 72/130/59 73/71/59
f 36/84/60 34/131/60 81/132/60 82/85/60
f 54/88/61 52/133/61 90/134/61 91/89/61
f 10/92/62 8/135/62 68/136/62 69/93/62
f 28/96/63 26/137/63 77/138/63 78/97/63
f 46/100/64 44/139/64 86/140/64 87/101/64
f 64/107/65 62/141/65 95/142/65 96/108/65
f 110/143/30 111/144/30 175/145/30 174/146/30
f 27/147/66 29/148/66 111/149/66 110/150/66
f 45/151/67 47/152/67 120/153/67 119/154/67
f 1/155/68 3/156/68 98/157/68 97/158/68
f 63/159/69 1/155/69 97/158/69 128/160/69
f 19/161/70 21/162/70 107/163/70 106/164/70
f 37/165/71 39/166/71 116/167/71 115/168/71
f 55/169/72 57/170/72 125/171/72 124/172/72
f 11/76/73 13/173/73 103/174/73 102/77/73
f 29/148/74 31/175/74 112/176/74 111/149/74
f 47/152/75 49/177/75 121/178/75 120/153/75
f 3/156/76 5/179/76 99/180/76 98/157/76
f 21/162/77 23/181/77 108/182/77 107/163/77
f 39/166/78 41/183/78 117/184/78 116/167/78
f 57/170/79 59/185/79 126/186/79 125/171/79
f 13/173/80 15/187/80 104/188/80 103/174/80
f 31/175/81 33/189/81 113/190/81 112/176/81
f 49/177/82 51/191/82 122/192/82 121/178/82
f 5/179/83 7/193/83 100/194/83 99/180/83
f 23/181/84 25/195/84 109/196/84 108/182/84
f 41/183/85 43/197/85 118/198/85 117/184/85
f 59/185/86 61/199/86 127/200/86 126/186/86
f 15/187/87 17/201/87 105/202/87 104/188/87
f 33/189/88 35/203/88 114/204/88 113/190/88
f 51/191/89 53/205/89 123/206/89 122/192/89
f 7/193/90 9/75/90 101/78/90 100/194/90
f 25/195/91 27/147/91 110/150/91 109/196/91
f 43/197/92 45/151/92 119/154/92 118/198/92
f 61/199/93 63/159/93 128/160/93 127/200/93
f 17/201/94 19/161/94 106/164/94 105/202/94
f 35/203/95 37/165/95 115/168/95 114/204/95
f 53/205/96 55/169/96 124/172/96 123/206/96
f 129/207/97 130/208/97 160/209/97 159/210/97 158/211/97 157/212/97 156/213/97 155/214/97 154/215/97 153/216/97 152/217/97 151/218/97 150/219/97 149/220/97 148/221/97 147/222/97 146/223/97 145/224/97 144/225/97 143/226/97 142/227/97 141/228/97 140/229/97 139/230/97 138/231/97 137/232/97 136/233/97 135/234/97 134/235/97 133/236/97 132/237/97 131/238/97
f 90/239/9 89/240/9 153/241/9 154/242/9
f 77/243/28 76/79/28 140/82/28 141/244/28
f 91/245/10 90/239/10 154/242/10 155/246/10
f 78/247/29 77/243/29 141/244/29 142/248/29
f 92/82/11 91/81/11 155/249/11 156/250/11
f 79/251/30 78/247/30 142/248/30 143/252/30
f 65/253/17 66/254/17 130/255/17 129/256/17
f 93/244/12 92/82/12 156/250/12 157/257/12
f 80/258/32 79/251/32 143/252/32 144/259/32
f 67/260/18 65/253/18 129/256/18 131/261/18
f 94/248/13 93/244/13 157/257/13 158/262/13
f 81/263/33 80/258/33 144/259/33 145/254/33
f 68/264/19 67/265/19 131/266/19 132/267/19
f 95/252/14 94/248/14 158/262/14 159/268/14
f 82/269/1 81/263/1 145/254/1 146/253/1
f 69/270/20 68/264/20 132/267/20 133/271/20
f 96/259/15 95/252/15 159/268/15 160/272/15
f 83/273/2 82/269/2 146/253/2 147/260/2
f 70/274/21 69/270/21 133/271/21 134/275/21
f 66/254/16 96/259/16 160/272/16 130/255/16
f 84/276/3 83/277/3 147/278/3 148/279/3
f 71/280/22 70/274/22 134/275/22 135/281/22
f 85/282/4 84/276/4 148/279/4 149/283/4
f 72/284/23 71/280/23 135/281/23 136/285/23
f 86/286/5 85/282/5 149/283/5 150/287/5
f 73/288/24 72/284/24 136/285/24 137/289/24
f 87/290/6 86/286/6 150/287/6 151/291/6
f 74/292/25 73/288/25 137/289/25 138/293/25
f 88/294/7 87/290/7 151/291/7 152/295/7
f 75/296/26 74/292/26 138/293/26 139/297/26
f 89/240/8 88/294/8 152/295/8 153/241/8
f 161/298/98 162/299/98 163/300/98 164/301/98 165/302/98 166/303/98 167/304/98 168/305/98 169/306/98 170/307/98 171/308/98 172/309/98 173/310/98 174/311/98 175/312/98 176/313/98 177/314/98 178/315/98 179/316/98 180/317/98 181/318/98 182/319/98 183/320/98 184/321/98 185/322/98 186/323/98 187/324/98 188/325/98 189/326/98 190/327/98 191/328/98 192/329/98
f 97/330/17 98/331/17 162/332/17 161/333/17
f 124/334/12 125/335/12 189/336/12 188/337/12
f 111/144/32 112/338/32 176/339/32 175/145/32
f 98/331/18 99/340/18 163/341/18 162/332/18
f 125/335/13 126/342/13 190/343/13 189/336/13
f 112/338/33 113/344/33 177/345/33 176/339/33
f 99/340/19 100/346/19 164/347/19 163/348/19
f 126/342/14 127/349/14 191/350/14 190/343/14
f 113/344/1 114/351/1 178/352/1 177/345/1
f 100/346/20 101/353/20 165/354/20 164/347/20
f 127/349/15 128/355/15 192/356/15 191/350/15
f 114/351/2 115/357/2 179/358/2 178/352/2
f 101/353/21 102/359/21 166/360/21 165/354/21
f 128/355/16 97/330/16 161/333/16 192/356/16
f 115/361/3 116/362/3 180/363/3 179/364/3
f 102/359/22 103/365/22 167/366/22 166/360/22
f 116/362/4 117/367/4 181/368/4 180/363/4
f 103/365/23 104/369/23 168/370/23 167/366/23
f 117/367/5 118/371/5 182/372/5 181/368/5
f 104/369/24 105/373/24 169/374/24 168/370/24
f 118/371/6 119/375/6 183/376/6 182/372/6
f 105/373/25 106/377/25 170/378/25 169/374/25
f 119/375/7 120/379/7 184/380/7 183/376/7
f 106/377/26 107/381/26 171/382/26 170/378/26
f 120/379/8 121/383/8 185/384/8 184/380/8
f 107/385/27 108/386/27 172/387/27 171/388/27
f 121/383/9 122/389/9 186/390/9 185/384/9
f 108/386/28 109/391/28 173/392/28 172/387/28
f 122/389/10 123/393/10 187/394/10 186/390/10
f 109/391/29 110/143/29 174/146/29 173/392/29
f 123/395/11 124/334/11 188/337/11 187/296/11
