# Blender 4.3.2
# www.blender.org
mtllib laserbeam.mtl
o Sphere
v -2.000000 0.111114 0.415735
v -2.000000 0.166294 0.277785
v -2.000000 0.196157 0.097545
v -2.000000 0.200000 0.000000
v -2.000000 0.196157 -0.097545
v -2.000000 0.166294 -0.277785
v -2.000000 0.000000 0.500000
v -2.000000 -0.039018 0.490393
v -2.000000 -0.076537 0.461940
v -2.000000 -0.111114 0.415735
v -2.000000 -0.141421 0.353553
v -2.000000 -0.166294 0.277785
v -2.000000 -0.184776 0.191342
v -2.000000 -0.196157 0.097545
v -2.000000 -0.200000 0.000000
v -2.000000 -0.196157 -0.097545
v -2.000000 -0.184776 -0.191342
v -2.000000 -0.166294 -0.277785
v -2.000000 -0.141421 -0.353553
v -2.000000 -0.111114 -0.415735
v -2.000000 -0.076537 -0.461940
v -2.000000 -0.039018 -0.490393
v -2.038060 -0.038268 0.490393
v -2.074658 -0.075066 0.461940
v -2.108387 -0.108979 0.415735
v -2.137950 -0.138704 0.353553
v -2.162212 -0.163099 0.277785
v -2.180240 -0.181225 0.191342
v -2.191342 -0.192388 0.097545
v -2.195091 -0.196157 0.000000
v -2.191342 -0.192388 -0.097545
v -2.180240 -0.181225 -0.191342
v -2.162212 -0.163099 -0.277785
v -2.137950 -0.138704 -0.353553
v -2.108387 -0.108979 -0.415735
v -2.074658 -0.075066 -0.461940
v -2.038060 -0.038268 -0.490393
v -2.074658 -0.036048 0.490393
v -2.146447 -0.070711 0.461940
v -2.212607 -0.102656 0.415735
v -2.270598 -0.130656 0.353553
v -2.318190 -0.153636 0.277785
v -2.353553 -0.170711 0.191342
v -2.375330 -0.181225 0.097545
v -2.382684 -0.184776 0.000000
v -2.375330 -0.181225 -0.097545
v -2.353553 -0.170711 -0.191342
v -2.318190 -0.153636 -0.277785
v -2.270598 -0.130656 -0.353553
v -2.212607 -0.102656 -0.415735
v -2.146447 -0.070711 -0.461940
v -2.074658 -0.036048 -0.490393
v -2.108386 -0.032442 0.490393
v -2.212607 -0.063638 0.461940
v -2.308658 -0.092388 0.415735
v -2.392848 -0.117588 0.353553
v -2.461940 -0.138268 0.277785
v -2.513280 -0.153636 0.191342
v -2.544895 -0.163099 0.097545
v -2.555570 -0.166294 0.000000
v -2.544895 -0.163099 -0.097545
v -2.513280 -0.153636 -0.191342
v -2.461940 -0.138268 -0.277785
v -2.392848 -0.117588 -0.353553
v -2.308658 -0.092388 -0.415735
v -2.212607 -0.063638 -0.461940
v -2.108386 -0.032442 -0.490393
v -2.137949 -0.027590 0.490393
v -2.270598 -0.054120 0.461940
v -2.392847 -0.078569 0.415735
v -2.500000 -0.100000 0.353553
v -2.587938 -0.117587 0.277785
v -2.653281 -0.130656 0.191342
v -2.693520 -0.138704 0.097545
v -2.707107 -0.141421 0.000000
v -2.693520 -0.138704 -0.097545
v -2.653281 -0.130656 -0.191342
v -2.587938 -0.117587 -0.277785
v -2.500000 -0.100000 -0.353553
v -2.392847 -0.078569 -0.415735
v -2.270598 -0.054120 -0.461940
v -2.137949 -0.027590 -0.490393
v -2.000000 0.000000 -0.500000
v -2.162212 -0.021677 0.490393
v -2.318190 -0.042521 0.461940
v -2.461940 -0.061732 0.415735
v -2.587938 -0.078569 0.353553
v -2.691341 -0.092388 0.277785
v -2.768178 -0.102656 0.191342
v -2.815493 -0.108979 0.097545
v -2.831469 -0.111114 0.000000
v -2.815493 -0.108979 -0.097545
v -2.768178 -0.102656 -0.191342
v -2.691341 -0.092388 -0.277785
v -2.587938 -0.078569 -0.353553
v -2.461940 -0.061732 -0.415735
v -2.318190 -0.042521 -0.461940
v -2.162212 -0.021677 -0.490393
v -2.180240 -0.014932 0.490393
v -2.353553 -0.029289 0.461940
v -2.513280 -0.042521 0.415735
v -2.653281 -0.054120 0.353553
v -2.768178 -0.063638 0.277785
v -2.853553 -0.070711 0.191342
v -2.906127 -0.075066 0.097545
v -2.923879 -0.076537 0.000000
v -2.906127 -0.075066 -0.097545
v -2.853553 -0.070711 -0.191342
v -2.768178 -0.063638 -0.277785
v -2.653281 -0.054120 -0.353553
v -2.513280 -0.042521 -0.415735
v -2.353553 -0.029289 -0.461940
v -2.180240 -0.014932 -0.490393
v -2.191342 -0.007612 0.490393
v -2.375330 -0.014932 0.461940
v -2.544895 -0.021677 0.415735
v -2.693520 -0.027590 0.353553
v -2.815493 -0.032442 0.277785
v -2.906127 -0.036048 0.191342
v -2.961939 -0.038268 0.097545
v -2.980784 -0.039018 0.000000
v -2.961939 -0.038268 -0.097545
v -2.906127 -0.036048 -0.191342
v -2.815493 -0.032442 -0.277785
v -2.693520 -0.027590 -0.353553
v -2.544895 -0.021677 -0.415735
v -2.375330 -0.014932 -0.461940
v -2.191342 -0.007612 -0.490393
v -2.195090 0.000000 0.490393
v -2.382683 0.000000 0.461940
v -2.555570 0.000000 0.415735
v -2.707107 0.000000 0.353553
v -2.831469 0.000000 0.277785
v -2.923879 0.000000 0.191342
v -2.980785 0.000000 0.097545
v -2.999999 0.000000 0.000000
v -2.980785 0.000000 -0.097545
v -2.923879 0.000000 -0.191342
v -2.831469 0.000000 -0.277785
v -2.707107 0.000000 -0.353553
v -2.555570 0.000000 -0.415735
v -2.382683 0.000000 -0.461940
v -2.195090 0.000000 -0.490393
v -2.191342 0.007612 0.490393
v -2.375330 0.014932 0.461940
v -2.544895 0.021677 0.415735
v -2.693520 0.027590 0.353553
v -2.815493 0.032442 0.277785
v -2.906127 0.036048 0.191342
v -2.961939 0.038268 0.097545
v -2.980784 0.039018 0.000000
v -2.961939 0.038268 -0.097545
v -2.906127 0.036048 -0.191342
v -2.815493 0.032442 -0.277785
v -2.693520 0.027590 -0.353553
v -2.544895 0.021677 -0.415735
v -2.375330 0.014932 -0.461940
v -2.191342 0.007612 -0.490393
v -2.180240 0.014932 0.490393
v -2.353553 0.029289 0.461940
v -2.513279 0.042522 0.415735
v -2.653281 0.054120 0.353553
v -2.768177 0.063638 0.277785
v -2.853553 0.070711 0.191342
v -2.906127 0.075066 0.097545
v -2.923878 0.076537 0.000000
v -2.906127 0.075066 -0.097545
v -2.853553 0.070711 -0.191342
v -2.768177 0.063638 -0.277785
v -2.653281 0.054120 -0.353553
v -2.513279 0.042522 -0.415735
v -2.353553 0.029289 -0.461940
v -2.180240 0.014932 -0.490393
v -2.162211 0.021677 0.490393
v -2.318189 0.042521 0.461940
v -2.461939 0.061732 0.415735
v -2.587938 0.078570 0.353553
v -2.691341 0.092388 0.277785
v -2.768178 0.102656 0.191342
v -2.815493 0.108979 0.097545
v -2.831469 0.111114 0.000000
v -2.815493 0.108979 -0.097545
v -2.768178 0.102656 -0.191342
v -2.691341 0.092388 -0.277785
v -2.587938 0.078570 -0.353553
v -2.461939 0.061732 -0.415735
v -2.318189 0.042521 -0.461940
v -2.162211 0.021677 -0.490393
v -2.137949 0.027590 0.490393
v -2.270598 0.054120 0.461940
v -2.392847 0.078569 0.415735
v -2.500000 0.100000 0.353553
v -2.587937 0.117588 0.277785
v -2.653281 0.130656 0.191342
v -2.693519 0.138704 0.097545
v -2.707106 0.141421 0.000000
v -2.693519 0.138704 -0.097545
v -2.653281 0.130656 -0.191342
v -2.587937 0.117588 -0.277785
v -2.500000 0.100000 -0.353553
v -2.392847 0.078569 -0.415735
v -2.270598 0.054120 -0.461940
v -2.137949 0.027590 -0.490393
v -2.108386 0.032442 0.490393
v -2.212607 0.063638 0.461940
v -2.308658 0.092388 0.415735
v -2.392847 0.117588 0.353553
v -2.461939 0.138268 0.277785
v -2.513280 0.153636 0.191342
v -2.544895 0.163099 0.097545
v -2.555569 0.166294 0.000000
v -2.544895 0.163099 -0.097545
v -2.513280 0.153636 -0.191342
v -2.461939 0.138268 -0.277785
v -2.392847 0.117588 -0.353553
v -2.308658 0.092388 -0.415735
v -2.212607 0.063638 -0.461940
v -2.108386 0.032442 -0.490393
v -2.074658 0.036048 0.490393
v -2.146446 0.070711 0.461940
v -2.212607 0.102656 0.415735
v -2.270598 0.130656 0.353553
v -2.318189 0.153636 0.277785
v -2.353553 0.170711 0.191342
v -2.375330 0.181225 0.097545
v -2.382683 0.184776 0.000000
v -2.375330 0.181225 -0.097545
v -2.353553 0.170711 -0.191342
v -2.318189 0.153636 -0.277785
v -2.270598 0.130656 -0.353553
v -2.212607 0.102656 -0.415735
v -2.146446 0.070711 -0.461940
v -2.074658 0.036048 -0.490393
v -2.038060 0.038268 0.490393
v -2.074658 0.075066 0.461940
v -2.108386 0.108979 0.415735
v -2.137949 0.138704 0.353553
v -2.162211 0.163099 0.277785
v -2.180240 0.181225 0.191342
v -2.191341 0.192388 0.097545
v -2.195090 0.196157 0.000000
v -2.191341 0.192388 -0.097545
v -2.180240 0.181225 -0.191342
v -2.162211 0.163099 -0.277785
v -2.137949 0.138704 -0.353553
v -2.108386 0.108979 -0.415735
v -2.074658 0.075066 -0.461940
v -2.038060 0.038268 -0.490393
v -2.000000 0.039018 0.490393
v -2.000000 0.076537 0.461940
v -2.000000 0.141421 0.353553
v -2.000000 0.184776 0.191342
v -2.000000 0.184776 -0.191342
v -2.000000 0.141421 -0.353553
v -2.000000 0.111114 -0.415735
v -2.000000 0.076537 -0.461940
v -2.000000 0.039018 -0.490393
v 2.000000 0.111114 0.415735
v 2.000000 0.166294 0.277785
v 2.000000 0.196157 0.097545
v 2.000000 0.200000 0.000000
v 2.000000 0.196157 -0.097545
v 2.000000 0.166294 -0.277785
v 2.038060 0.038268 0.490393
v 2.074658 0.075066 0.461940
v 2.108387 0.108979 0.415735
v 2.137949 0.138704 0.353553
v 2.162212 0.163099 0.277785
v 2.180240 0.181225 0.191342
v 2.191342 0.192388 0.097545
v 2.195090 0.196157 0.000000
v 2.191342 0.192388 -0.097545
v 2.180240 0.181225 -0.191342
v 2.162212 0.163099 -0.277785
v 2.137949 0.138704 -0.353553
v 2.108387 0.108979 -0.415735
v 2.074658 0.075066 -0.461940
v 2.038060 0.038268 -0.490393
v 2.074658 0.036048 0.490393
v 2.146447 0.070711 0.461940
v 2.212607 0.102656 0.415735
v 2.270598 0.130656 0.353553
v 2.318190 0.153636 0.277785
v 2.353553 0.170711 0.191342
v 2.375330 0.181225 0.097545
v 2.382683 0.184776 0.000000
v 2.375330 0.181225 -0.097545
v 2.353553 0.170711 -0.191342
v 2.318190 0.153636 -0.277785
v 2.270598 0.130656 -0.353553
v 2.212607 0.102656 -0.415735
v 2.146447 0.070711 -0.461940
v 2.074658 0.036048 -0.490393
v 2.108387 0.032442 0.490393
v 2.212607 0.063638 0.461940
v 2.308658 0.092388 0.415735
v 2.392848 0.117588 0.353553
v 2.461940 0.138268 0.277785
v 2.513280 0.153636 0.191342
v 2.544895 0.163099 0.097545
v 2.555570 0.166294 0.000000
v 2.544895 0.163099 -0.097545
v 2.513280 0.153636 -0.191342
v 2.461940 0.138268 -0.277785
v 2.392848 0.117588 -0.353553
v 2.308658 0.092388 -0.415735
v 2.212607 0.063638 -0.461940
v 2.108387 0.032442 -0.490393
v 2.137949 0.027590 0.490393
v 2.270598 0.054120 0.461940
v 2.392848 0.078570 0.415735
v 2.500000 0.100000 0.353553
v 2.587938 0.117588 0.277785
v 2.653281 0.130656 0.191342
v 2.693520 0.138704 0.097545
v 2.707107 0.141421 0.000000
v 2.693520 0.138704 -0.097545
v 2.653281 0.130656 -0.191342
v 2.587938 0.117588 -0.277785
v 2.500000 0.100000 -0.353553
v 2.392848 0.078570 -0.415735
v 2.270598 0.054120 -0.461940
v 2.137949 0.027590 -0.490393
v 2.162211 0.021677 0.490393
v 2.318190 0.042522 0.461940
v 2.461940 0.061732 0.415735
v 2.587938 0.078570 0.353553
v 2.691341 0.092388 0.277785
v 2.768178 0.102656 0.191342
v 2.815493 0.108979 0.097545
v 2.831470 0.111114 0.000000
v 2.815493 0.108979 -0.097545
v 2.768178 0.102656 -0.191342
v 2.691341 0.092388 -0.277785
v 2.587938 0.078570 -0.353553
v 2.461940 0.061732 -0.415735
v 2.318190 0.042522 -0.461940
v 2.162211 0.021677 -0.490393
v 2.000000 0.000000 0.500000
v 2.180240 0.014932 0.490393
v 2.353553 0.029289 0.461940
v 2.513280 0.042521 0.415735
v 2.653281 0.054120 0.353553
v 2.768178 0.063638 0.277785
v 2.853553 0.070711 0.191342
v 2.906127 0.075066 0.097545
v 2.923880 0.076537 0.000000
v 2.906127 0.075066 -0.097545
v 2.853553 0.070711 -0.191342
v 2.768178 0.063638 -0.277785
v 2.653281 0.054120 -0.353553
v 2.513280 0.042521 -0.415735
v 2.353553 0.029289 -0.461940
v 2.180240 0.014932 -0.490393
v 2.191342 0.007612 0.490393
v 2.375330 0.014932 0.461940
v 2.544895 0.021677 0.415735
v 2.693520 0.027590 0.353553
v 2.815493 0.032442 0.277785
v 2.906127 0.036048 0.191342
v 2.961940 0.038268 0.097545
v 2.980785 0.039018 0.000000
v 2.961940 0.038268 -0.097545
v 2.906127 0.036048 -0.191342
v 2.815493 0.032442 -0.277785
v 2.693520 0.027590 -0.353553
v 2.544895 0.021677 -0.415735
v 2.375330 0.014932 -0.461940
v 2.191342 0.007612 -0.490393
v 2.195090 0.000000 0.490393
v 2.382683 0.000000 0.461940
v 2.555570 -0.000000 0.415735
v 2.707107 0.000000 0.353553
v 2.831470 -0.000000 0.277785
v 2.923880 0.000000 0.191342
v 2.980785 -0.000000 0.097545
v 3.000000 -0.000000 0.000000
v 2.980785 -0.000000 -0.097545
v 2.923880 0.000000 -0.191342
v 2.831470 -0.000000 -0.277785
v 2.707107 0.000000 -0.353553
v 2.555570 -0.000000 -0.415735
v 2.382683 0.000000 -0.461940
v 2.195090 0.000000 -0.490393
v 2.191342 -0.007612 0.490393
v 2.375330 -0.014932 0.461940
v 2.544895 -0.021677 0.415735
v 2.693520 -0.027590 0.353553
v 2.815493 -0.032442 0.277785
v 2.906127 -0.036048 0.191342
v 2.961940 -0.038268 0.097545
v 2.980785 -0.039018 0.000000
v 2.961940 -0.038268 -0.097545
v 2.906127 -0.036048 -0.191342
v 2.815493 -0.032442 -0.277785
v 2.693520 -0.027590 -0.353553
v 2.544895 -0.021677 -0.415735
v 2.375330 -0.014932 -0.461940
v 2.191342 -0.007612 -0.490393
v 2.180240 -0.014932 0.490393
v 2.353553 -0.029289 0.461940
v 2.513280 -0.042522 0.415735
v 2.653281 -0.054120 0.353553
v 2.768178 -0.063638 0.277785
v 2.853553 -0.070711 0.191342
v 2.906127 -0.075066 0.097545
v 2.923879 -0.076537 0.000000
v 2.906127 -0.075066 -0.097545
v 2.853553 -0.070711 -0.191342
v 2.768178 -0.063638 -0.277785
v 2.653281 -0.054120 -0.353553
v 2.513280 -0.042522 -0.415735
v 2.353553 -0.029289 -0.461940
v 2.180240 -0.014932 -0.490393
v 2.162211 -0.021677 0.490393
v 2.318190 -0.042521 0.461940
v 2.461940 -0.061732 0.415735
v 2.587938 -0.078569 0.353553
v 2.691341 -0.092388 0.277785
v 2.768178 -0.102656 0.191342
v 2.815493 -0.108979 0.097545
v 2.831469 -0.111114 0.000000
v 2.815493 -0.108979 -0.097545
v 2.768178 -0.102656 -0.191342
v 2.691341 -0.092388 -0.277785
v 2.587938 -0.078569 -0.353553
v 2.461940 -0.061732 -0.415735
v 2.318190 -0.042521 -0.461940
v 2.162211 -0.021677 -0.490393
v 2.137949 -0.027590 0.490393
v 2.270598 -0.054120 0.461940
v 2.392847 -0.078569 0.415735
v 2.500000 -0.100000 0.353553
v 2.587937 -0.117588 0.277785
v 2.653281 -0.130656 0.191342
v 2.693520 -0.138704 0.097545
v 2.707106 -0.141421 0.000000
v 2.693520 -0.138704 -0.097545
v 2.653281 -0.130656 -0.191342
v 2.587937 -0.117588 -0.277785
v 2.500000 -0.100000 -0.353553
v 2.392847 -0.078569 -0.415735
v 2.270598 -0.054120 -0.461940
v 2.137949 -0.027590 -0.490393
v 2.108387 -0.032442 0.490393
v 2.212607 -0.063638 0.461940
v 2.308658 -0.092388 0.415735
v 2.392848 -0.117588 0.353553
v 2.461939 -0.138268 0.277785
v 2.513280 -0.153636 0.191342
v 2.544895 -0.163099 0.097545
v 2.555570 -0.166294 0.000000
v 2.544895 -0.163099 -0.097545
v 2.513280 -0.153636 -0.191342
v 2.461939 -0.138268 -0.277785
v 2.392848 -0.117588 -0.353553
v 2.308658 -0.092388 -0.415735
v 2.212607 -0.063638 -0.461940
v 2.108387 -0.032442 -0.490393
v 2.074658 -0.036048 0.490393
v 2.146447 -0.070711 0.461940
v 2.212607 -0.102656 0.415735
v 2.270598 -0.130656 0.353553
v 2.318190 -0.153636 0.277785
v 2.353553 -0.170711 0.191342
v 2.375330 -0.181225 0.097545
v 2.382683 -0.184776 0.000000
v 2.375330 -0.181225 -0.097545
v 2.353553 -0.170711 -0.191342
v 2.318190 -0.153636 -0.277785
v 2.270598 -0.130656 -0.353553
v 2.212607 -0.102656 -0.415735
v 2.146447 -0.070711 -0.461940
v 2.074658 -0.036048 -0.490393
v 2.038060 -0.038268 0.490393
v 2.074658 -0.075066 0.461940
v 2.108386 -0.108979 0.415735
v 2.137949 -0.138704 0.353553
v 2.162211 -0.163099 0.277785
v 2.180240 -0.181225 0.191342
v 2.191341 -0.192388 0.097545
v 2.195090 -0.196157 0.000000
v 2.191341 -0.192388 -0.097545
v 2.180240 -0.181225 -0.191342
v 2.162211 -0.163099 -0.277785
v 2.137949 -0.138704 -0.353553
v 2.108386 -0.108979 -0.415735
v 2.074658 -0.075066 -0.461940
v 2.038060 -0.038268 -0.490393
v 2.000000 -0.039018 0.490393
v 2.000000 -0.076537 0.461940
v 2.000000 -0.111114 0.415735
v 2.000000 -0.141421 0.353553
v 2.000000 -0.166294 0.277785
v 2.000000 -0.184776 0.191342
v 2.000000 -0.196157 0.097545
v 2.000000 -0.200000 0.000000
v 2.000000 -0.196157 -0.097545
v 2.000000 -0.184776 -0.191342
v 2.000000 -0.166294 -0.277785
v 2.000000 -0.141421 -0.353553
v 2.000000 -0.111114 -0.415735
v 2.000000 -0.076537 -0.461940
v 2.000000 -0.039018 -0.490393
v 2.000000 0.000000 -0.500000
v 2.000000 0.039018 0.490393
v 2.000000 0.076537 0.461940
v 2.000000 0.141421 0.353553
v 2.000000 0.184776 0.191342
v 2.000000 0.184776 -0.191342
v 2.000000 0.141421 -0.353553
v 2.000000 0.111114 -0.415735
v 2.000000 0.076537 -0.461940
v 2.000000 0.039018 -0.490393
vn -0.0084 0.8537 0.5207
vn -0.0095 0.9654 0.2608
vn -0.0098 0.9968 0.0800
vn -0.0098 1.0000 -0.0000
vn -0.0098 0.9968 -0.0800
vn -0.0095 0.9654 -0.2608
vn -0.0077 -0.0000 1.0000
vn -0.0043 -0.4316 0.9021
vn -0.0070 -0.7098 0.7044
vn -0.0084 -0.8537 0.5207
vn -0.0091 -0.9267 0.3757
vn -0.0095 -0.9654 0.2608
vn -0.0097 -0.9863 0.1649
vn -0.0098 -0.9968 0.0800
vn -0.0098 -1.0000 -0.0000
vn -0.0098 -0.9968 -0.0800
vn -0.0097 -0.9863 -0.1649
vn -0.0095 -0.9654 -0.2608
vn -0.0091 -0.9267 -0.3757
vn -0.0084 -0.8537 -0.5207
vn -0.0070 -0.7098 -0.7044
vn -0.0043 -0.4316 -0.9021
vn -0.0157 -0.4272 0.9040
vn -0.0279 -0.7031 0.7106
vn -0.0344 -0.8486 0.5279
vn -0.0376 -0.9234 0.3820
vn -0.0392 -0.9633 0.2655
vn -0.0401 -0.9850 0.1680
vn -0.0405 -0.9958 0.0815
vn -0.0406 -0.9992 -0.0000
vn -0.0405 -0.9958 -0.0815
vn -0.0401 -0.9850 -0.1680
vn -0.0392 -0.9633 -0.2655
vn -0.0376 -0.9234 -0.3820
vn -0.0344 -0.8486 -0.5279
vn -0.0279 -0.7031 -0.7106
vn -0.0157 -0.4272 -0.9040
vn -0.0317 -0.4100 0.9115
vn -0.0561 -0.6814 0.7298
vn -0.0698 -0.8320 0.5504
vn -0.0771 -0.9124 0.4019
vn -0.0810 -0.9563 0.2808
vn -0.0831 -0.9805 0.1782
vn -0.0842 -0.9927 0.0866
vn -0.0845 -0.9964 -0.0000
vn -0.0842 -0.9927 -0.0866
vn -0.0831 -0.9805 -0.1782
vn -0.0810 -0.9563 -0.2808
vn -0.0771 -0.9124 -0.4019
vn -0.0698 -0.8320 -0.5504
vn -0.0561 -0.6814 -0.7298
vn -0.0317 -0.4100 -0.9115
vn -0.0477 -0.3800 0.9237
vn -0.0851 -0.6428 0.7613
vn -0.1080 -0.8009 0.5890
vn -0.1212 -0.8910 0.4376
vn -0.1288 -0.9423 0.3090
vn -0.1331 -0.9713 0.1973
vn -0.1353 -0.9861 0.0962
vn -0.1360 -0.9907 -0.0000
vn -0.1353 -0.9861 -0.0962
vn -0.1331 -0.9713 -0.1973
vn -0.1288 -0.9423 -0.3090
vn -0.1212 -0.8910 -0.4376
vn -0.1080 -0.8009 -0.5890
vn -0.0851 -0.6428 -0.7613
vn -0.0477 -0.3800 -0.9237
vn -0.0633 -0.3363 0.9396
vn -0.1151 -0.5829 0.8043
vn -0.1507 -0.7483 0.6461
vn -0.1735 -0.8522 0.4937
vn -0.1877 -0.9157 0.3553
vn -0.1964 -0.9532 0.2297
vn -0.2011 -0.9731 0.1127
vn -0.2026 -0.9793 -0.0000
vn -0.2011 -0.9731 -0.1127
vn -0.1964 -0.9532 -0.2297
vn -0.1877 -0.9157 -0.3553
vn -0.1735 -0.8522 -0.4937
vn -0.1507 -0.7483 -0.6461
vn -0.1151 -0.5829 -0.8043
vn -0.0633 -0.3363 -0.9396
vn -0.0077 -0.0000 -1.0000
vn -0.0779 -0.2779 0.9574
vn -0.1457 -0.4956 0.8563
vn -0.1990 -0.6618 0.7227
vn -0.2385 -0.7812 0.5769
vn -0.2663 -0.8629 0.4295
vn -0.2850 -0.9154 0.2843
vn -0.2958 -0.9447 0.1415
vn -0.2995 -0.9541 -0.0000
vn -0.2958 -0.9447 -0.1415
vn -0.2850 -0.9154 -0.2843
vn -0.2663 -0.8629 -0.4295
vn -0.2385 -0.7812 -0.5769
vn -0.1990 -0.6618 -0.7227
vn -0.1457 -0.4956 -0.8563
vn -0.0779 -0.2779 -0.9574
vn -0.0913 -0.2044 0.9746
vn -0.1756 -0.3735 0.9108
vn -0.2524 -0.5224 0.8145
vn -0.3201 -0.6479 0.6912
vn -0.3773 -0.7489 0.5448
vn -0.4223 -0.8238 0.3782
vn -0.4522 -0.8704 0.1945
vn -0.4629 -0.8864 -0.0000
vn -0.4522 -0.8704 -0.1945
vn -0.4223 -0.8238 -0.3782
vn -0.3773 -0.7489 -0.5448
vn -0.3201 -0.6479 -0.6912
vn -0.2524 -0.5224 -0.8145
vn -0.1756 -0.3735 -0.9108
vn -0.0913 -0.2044 -0.9746
vn -0.1046 -0.1142 0.9879
vn -0.2033 -0.2100 0.9563
vn -0.3058 -0.3058 0.9017
vn -0.4132 -0.4003 0.8179
vn -0.5251 -0.4903 0.6956
vn -0.6354 -0.5691 0.5219
vn -0.7257 -0.6257 0.2860
vn -0.7626 -0.6468 -0.0000
vn -0.7257 -0.6257 -0.2860
vn -0.6354 -0.5691 -0.5219
vn -0.5251 -0.4903 -0.6956
vn -0.4132 -0.4003 -0.8179
vn -0.3058 -0.3058 -0.9017
vn -0.2033 -0.2100 -0.9563
vn -0.1046 -0.1142 -0.9879
vn -0.1143 -0.0000 0.9935
vn -0.2197 -0.0000 0.9756
vn -0.3361 -0.0000 0.9418
vn -0.4691 -0.0000 0.8831
vn -0.6229 -0.0000 0.7823
vn -0.7908 -0.0000 0.6120
vn -0.9383 -0.0000 0.3459
vn -1.0000 -0.0000 -0.0000
vn -0.9383 -0.0000 -0.3459
vn -0.7908 -0.0000 -0.6120
vn -0.6229 -0.0000 -0.7823
vn -0.4691 -0.0000 -0.8831
vn -0.3361 -0.0000 -0.9418
vn -0.2197 -0.0000 -0.9756
vn -0.1143 -0.0000 -0.9935
vn -0.1046 0.1142 0.9879
vn -0.2033 0.2100 0.9563
vn -0.3058 0.3058 0.9017
vn -0.4132 0.4003 0.8179
vn -0.5251 0.4903 0.6956
vn -0.6354 0.5691 0.5219
vn -0.7257 0.6257 0.2860
vn -0.7626 0.6468 -0.0000
vn -0.7257 0.6257 -0.2860
vn -0.6354 0.5691 -0.5219
vn -0.5251 0.4903 -0.6956
vn -0.4132 0.4003 -0.8179
vn -0.3058 0.3058 -0.9017
vn -0.2033 0.2100 -0.9563
vn -0.1046 0.1142 -0.9879
vn -0.0913 0.2044 0.9746
vn -0.1756 0.3735 0.9108
vn -0.2524 0.5224 0.8145
vn -0.3201 0.6479 0.6912
vn -0.3773 0.7489 0.5448
vn -0.4223 0.8238 0.3782
vn -0.4522 0.8704 0.1945
vn -0.4629 0.8864 -0.0000
vn -0.4522 0.8704 -0.1945
vn -0.4223 0.8238 -0.3782
vn -0.3773 0.7489 -0.5448
vn -0.3201 0.6479 -0.6912
vn -0.2524 0.5224 -0.8145
vn -0.1756 0.3735 -0.9108
vn -0.0913 0.2044 -0.9746
vn -0.0779 0.2779 0.9574
vn -0.1457 0.4956 0.8563
vn -0.1990 0.6618 0.7227
vn -0.2385 0.7812 0.5769
vn -0.2663 0.8629 0.4295
vn -0.2850 0.9154 0.2843
vn -0.2958 0.9447 0.1415
vn -0.2995 0.9541 -0.0000
vn -0.2958 0.9447 -0.1415
vn -0.2850 0.9154 -0.2843
vn -0.2663 0.8629 -0.4295
vn -0.2385 0.7812 -0.5769
vn -0.1990 0.6618 -0.7227
vn -0.1457 0.4956 -0.8563
vn -0.0779 0.2779 -0.9574
vn -0.0633 0.3363 0.9396
vn -0.1151 0.5829 0.8043
vn -0.1507 0.7483 0.6461
vn -0.1735 0.8522 0.4937
vn -0.1877 0.9157 0.3553
vn -0.1964 0.9532 0.2297
vn -0.2011 0.9731 0.1127
vn -0.2026 0.9793 -0.0000
vn -0.2011 0.9731 -0.1127
vn -0.1964 0.9532 -0.2297
vn -0.1877 0.9157 -0.3553
vn -0.1735 0.8522 -0.4937
vn -0.1507 0.7483 -0.6461
vn -0.1151 0.5829 -0.8043
vn -0.0633 0.3363 -0.9396
vn -0.0477 0.3800 0.9237
vn -0.0851 0.6428 0.7613
vn -0.1080 0.8009 0.5890
vn -0.1212 0.8910 0.4376
vn -0.1288 0.9423 0.3090
vn -0.1331 0.9713 0.1973
vn -0.1353 0.9861 0.0962
vn -0.1360 0.9907 -0.0000
vn -0.1353 0.9861 -0.0962
vn -0.1331 0.9713 -0.1973
vn -0.1288 0.9423 -0.3090
vn -0.1212 0.8910 -0.4376
vn -0.1080 0.8009 -0.5890
vn -0.0851 0.6428 -0.7613
vn -0.0477 0.3800 -0.9237
vn -0.0317 0.4100 0.9115
vn -0.0561 0.6814 0.7298
vn -0.0698 0.8320 0.5504
vn -0.0771 0.9124 0.4019
vn -0.0810 0.9563 0.2808
vn -0.0831 0.9805 0.1782
vn -0.0842 0.9927 0.0866
vn -0.0845 0.9964 -0.0000
vn -0.0842 0.9927 -0.0866
vn -0.0831 0.9805 -0.1782
vn -0.0810 0.9563 -0.2808
vn -0.0771 0.9124 -0.4019
vn -0.0698 0.8320 -0.5504
vn -0.0561 0.6814 -0.7298
vn -0.0317 0.4100 -0.9115
vn -0.0157 0.4272 0.9040
vn -0.0279 0.7031 0.7106
vn -0.0344 0.8486 0.5279
vn -0.0376 0.9234 0.3820
vn -0.0392 0.9633 0.2655
vn -0.0401 0.9850 0.1680
vn -0.0405 0.9958 0.0815
vn -0.0406 0.9992 -0.0000
vn -0.0405 0.9958 -0.0815
vn -0.0401 0.9850 -0.1680
vn -0.0392 0.9633 -0.2655
vn -0.0376 0.9234 -0.3820
vn -0.0344 0.8486 -0.5279
vn -0.0279 0.7031 -0.7106
vn -0.0157 0.4272 -0.9040
vn -0.0043 0.4316 0.9021
vn -0.0070 0.7098 0.7044
vn -0.0091 0.9267 0.3757
vn -0.0097 0.9863 0.1649
vn -0.0097 0.9863 -0.1649
vn -0.0091 0.9267 -0.3757
vn -0.0084 0.8537 -0.5207
vn -0.0070 0.7098 -0.7044
vn -0.0043 0.4316 -0.9021
vn 0.0084 0.8537 0.5207
vn 0.0095 0.9654 0.2608
vn 0.0098 0.9968 0.0800
vn 0.0098 1.0000 -0.0000
vn 0.0098 0.9968 -0.0800
vn 0.0095 0.9654 -0.2608
vn 0.0157 0.4272 0.9040
vn 0.0279 0.7031 0.7106
vn 0.0344 0.8486 0.5279
vn 0.0376 0.9234 0.3820
vn 0.0392 0.9633 0.2655
vn 0.0401 0.9850 0.1680
vn 0.0405 0.9958 0.0815
vn 0.0406 0.9992 -0.0000
vn 0.0405 0.9958 -0.0815
vn 0.0401 0.9850 -0.1680
vn 0.0392 0.9633 -0.2655
vn 0.0375 0.9234 -0.3820
vn 0.0344 0.8486 -0.5279
vn 0.0279 0.7031 -0.7106
vn 0.0157 0.4272 -0.9040
vn 0.0317 0.4100 0.9115
vn 0.0561 0.6814 0.7298
vn 0.0698 0.8320 0.5504
vn 0.0771 0.9124 0.4019
vn 0.0810 0.9563 0.2808
vn 0.0831 0.9805 0.1782
vn 0.0842 0.9927 0.0866
vn 0.0845 0.9964 -0.0000
vn 0.0842 0.9927 -0.0866
vn 0.0831 0.9805 -0.1782
vn 0.0810 0.9563 -0.2808
vn 0.0771 0.9124 -0.4019
vn 0.0698 0.8320 -0.5504
vn 0.0561 0.6814 -0.7298
vn 0.0317 0.4100 -0.9115
vn 0.0477 0.3800 0.9237
vn 0.0851 0.6428 0.7613
vn 0.1080 0.8009 0.5890
vn 0.1212 0.8910 0.4376
vn 0.1288 0.9423 0.3090
vn 0.1331 0.9713 0.1973
vn 0.1353 0.9861 0.0962
vn 0.1360 0.9907 -0.0000
vn 0.1353 0.9861 -0.0962
vn 0.1331 0.9713 -0.1973
vn 0.1288 0.9423 -0.3090
vn 0.1212 0.8910 -0.4376
vn 0.1080 0.8009 -0.5890
vn 0.0851 0.6428 -0.7613
vn 0.0477 0.3800 -0.9237
vn 0.0633 0.3363 0.9396
vn 0.1151 0.5829 0.8043
vn 0.1507 0.7483 0.6461
vn 0.1735 0.8522 0.4937
vn 0.1877 0.9157 0.3553
vn 0.1964 0.9532 0.2297
vn 0.2011 0.9731 0.1127
vn 0.2026 0.9793 -0.0000
vn 0.2011 0.9731 -0.1127
vn 0.1964 0.9532 -0.2297
vn 0.1877 0.9157 -0.3553
vn 0.1735 0.8522 -0.4937
vn 0.1507 0.7483 -0.6461
vn 0.1151 0.5829 -0.8043
vn 0.0633 0.3363 -0.9396
vn 0.0779 0.2779 0.9574
vn 0.1457 0.4956 0.8563
vn 0.1990 0.6618 0.7227
vn 0.2385 0.7812 0.5769
vn 0.2663 0.8629 0.4295
vn 0.2850 0.9154 0.2843
vn 0.2958 0.9447 0.1415
vn 0.2995 0.9541 -0.0000
vn 0.2958 0.9447 -0.1415
vn 0.2850 0.9154 -0.2843
vn 0.2663 0.8629 -0.4295
vn 0.2385 0.7812 -0.5769
vn 0.1990 0.6618 -0.7227
vn 0.1457 0.4956 -0.8563
vn 0.0779 0.2779 -0.9574
vn 0.0077 -0.0000 1.0000
vn 0.0913 0.2044 0.9746
vn 0.1756 0.3735 0.9108
vn 0.2524 0.5224 0.8145
vn 0.3201 0.6479 0.6912
vn 0.3773 0.7489 0.5448
vn 0.4223 0.8238 0.3782
vn 0.4522 0.8704 0.1945
vn 0.4629 0.8864 -0.0000
vn 0.4522 0.8704 -0.1945
vn 0.4223 0.8238 -0.3782
vn 0.3773 0.7489 -0.5448
vn 0.3201 0.6479 -0.6912
vn 0.2524 0.5224 -0.8145
vn 0.1756 0.3735 -0.9108
vn 0.0913 0.2044 -0.9746
vn 0.1046 0.1142 0.9879
vn 0.2033 0.2100 0.9563
vn 0.3058 0.3058 0.9017
vn 0.4132 0.4003 0.8179
vn 0.5251 0.4903 0.6956
vn 0.6354 0.5691 0.5219
vn 0.7257 0.6257 0.2860
vn 0.7626 0.6468 -0.0000
vn 0.7257 0.6257 -0.2860
vn 0.6354 0.5691 -0.5219
vn 0.5251 0.4903 -0.6956
vn 0.4132 0.4003 -0.8179
vn 0.3058 0.3058 -0.9017
vn 0.2033 0.2100 -0.9563
vn 0.1046 0.1142 -0.9879
vn 0.1143 -0.0000 0.9935
vn 0.2197 -0.0000 0.9756
vn 0.3361 -0.0000 0.9418
vn 0.4691 -0.0000 0.8831
vn 0.6229 -0.0000 0.7823
vn 0.7908 -0.0000 0.6120
vn 0.9383 -0.0000 0.3459
vn 1.0000 -0.0000 -0.0000
vn 0.9383 -0.0000 -0.3459
vn 0.7908 -0.0000 -0.6120
vn 0.6229 -0.0000 -0.7823
vn 0.4691 -0.0000 -0.8831
vn 0.3361 -0.0000 -0.9418
vn 0.2197 -0.0000 -0.9756
vn 0.1143 -0.0000 -0.9935
vn 0.1046 -0.1142 0.9879
vn 0.2033 -0.2100 0.9563
vn 0.3058 -0.3058 0.9017
vn 0.4132 -0.4003 0.8179
vn 0.5251 -0.4903 0.6956
vn 0.6354 -0.5691 0.5219
vn 0.7257 -0.6257 0.2860
vn 0.7626 -0.6468 -0.0000
vn 0.7257 -0.6257 -0.2860
vn 0.6354 -0.5691 -0.5219
vn 0.5251 -0.4903 -0.6956
vn 0.4132 -0.4003 -0.8179
vn 0.3058 -0.3058 -0.9017
vn 0.2033 -0.2100 -0.9563
vn 0.1046 -0.1142 -0.9879
vn 0.0913 -0.2044 0.9746
vn 0.1756 -0.3735 0.9108
vn 0.2524 -0.5224 0.8145
vn 0.3201 -0.6479 0.6912
vn 0.3773 -0.7489 0.5448
vn 0.4223 -0.8238 0.3782
vn 0.4522 -0.8704 0.1945
vn 0.4629 -0.8864 -0.0000
vn 0.4522 -0.8704 -0.1945
vn 0.4223 -0.8238 -0.3782
vn 0.3773 -0.7489 -0.5448
vn 0.3201 -0.6479 -0.6912
vn 0.2524 -0.5224 -0.8145
vn 0.1756 -0.3735 -0.9108
vn 0.0913 -0.2044 -0.9746
vn 0.0779 -0.2779 0.9574
vn 0.1457 -0.4956 0.8563
vn 0.1990 -0.6618 0.7227
vn 0.2385 -0.7812 0.5769
vn 0.2663 -0.8629 0.4295
vn 0.2850 -0.9154 0.2843
vn 0.2958 -0.9447 0.1415
vn 0.2995 -0.9541 -0.0000
vn 0.2958 -0.9447 -0.1415
vn 0.2850 -0.9154 -0.2843
vn 0.2663 -0.8629 -0.4295
vn 0.2385 -0.7812 -0.5769
vn 0.1990 -0.6618 -0.7227
vn 0.1457 -0.4956 -0.8563
vn 0.0779 -0.2779 -0.9574
vn 0.0633 -0.3363 0.9396
vn 0.1151 -0.5829 0.8043
vn 0.1507 -0.7483 0.6461
vn 0.1735 -0.8522 0.4937
vn 0.1877 -0.9157 0.3553
vn 0.1964 -0.9532 0.2297
vn 0.2011 -0.9731 0.1127
vn 0.2026 -0.9793 -0.0000
vn 0.2011 -0.9731 -0.1127
vn 0.1964 -0.9532 -0.2297
vn 0.1877 -0.9157 -0.3553
vn 0.1735 -0.8522 -0.4937
vn 0.1507 -0.7483 -0.6461
vn 0.1151 -0.5829 -0.8043
vn 0.0633 -0.3363 -0.9396
vn 0.0477 -0.3800 0.9237
vn 0.0851 -0.6428 0.7613
vn 0.1080 -0.8009 0.5890
vn 0.1212 -0.8910 0.4376
vn 0.1288 -0.9423 0.3090
vn 0.1331 -0.9713 0.1973
vn 0.1353 -0.9861 0.0962
vn 0.1360 -0.9907 -0.0000
vn 0.1353 -0.9861 -0.0962
vn 0.1331 -0.9713 -0.1973
vn 0.1288 -0.9423 -0.3090
vn 0.1212 -0.8910 -0.4376
vn 0.1080 -0.8009 -0.5890
vn 0.0851 -0.6428 -0.7613
vn 0.0477 -0.3800 -0.9237
vn 0.0317 -0.4100 0.9115
vn 0.0561 -0.6814 0.7298
vn 0.0698 -0.8320 0.5504
vn 0.0771 -0.9124 0.4019
vn 0.0810 -0.9563 0.2808
vn 0.0831 -0.9805 0.1782
vn 0.0842 -0.9927 0.0866
vn 0.0845 -0.9964 -0.0000
vn 0.0842 -0.9927 -0.0866
vn 0.0831 -0.9805 -0.1782
vn 0.0810 -0.9563 -0.2808
vn 0.0771 -0.9124 -0.4019
vn 0.0698 -0.8320 -0.5504
vn 0.0561 -0.6814 -0.7298
vn 0.0317 -0.4100 -0.9115
vn 0.0157 -0.4272 0.9040
vn 0.0279 -0.7031 0.7106
vn 0.0344 -0.8486 0.5279
vn 0.0375 -0.9234 0.3820
vn 0.0392 -0.9633 0.2655
vn 0.0401 -0.9850 0.1680
vn 0.0405 -0.9958 0.0815
vn 0.0406 -0.9992 -0.0000
vn 0.0405 -0.9958 -0.0815
vn 0.0401 -0.9850 -0.1680
vn 0.0392 -0.9633 -0.2655
vn 0.0375 -0.9234 -0.3820
vn 0.0344 -0.8486 -0.5279
vn 0.0279 -0.7031 -0.7106
vn 0.0157 -0.4272 -0.9040
vn 0.0043 -0.4316 0.9021
vn 0.0070 -0.7098 0.7044
vn 0.0084 -0.8537 0.5207
vn 0.0091 -0.9267 0.3757
vn 0.0095 -0.9654 0.2608
vn 0.0097 -0.9863 0.1649
vn 0.0098 -0.9968 0.0800
vn 0.0098 -1.0000 -0.0000
vn 0.0098 -0.9968 -0.0800
vn 0.0097 -0.9863 -0.1649
vn 0.0095 -0.9654 -0.2608
vn 0.0091 -0.9267 -0.3757
vn 0.0084 -0.8537 -0.5207
vn 0.0070 -0.7098 -0.7044
vn 0.0043 -0.4316 -0.9021
vn 0.0077 -0.0000 -1.0000
vn 0.0043 0.4316 0.9021
vn 0.0070 0.7098 0.7044
vn 0.0091 0.9267 0.3757
vn 0.0097 0.9863 0.1649
vn 0.0097 0.9863 -0.1649
vn 0.0091 0.9267 -0.3757
vn 0.0084 0.8537 -0.5207
vn 0.0070 0.7098 -0.7044
vn 0.0043 0.4316 -0.9021
vt 0.250000 0.500000
vt 0.250000 0.437500
vt 0.250000 0.562500
vt 0.250000 0.625000
vt 0.765625 0.000000
vt 0.750000 0.062500
vt 0.250000 0.062500
vt 0.234375 0.000000
vt 0.250000 0.687500
vt 0.750000 0.250000
vt 0.750000 0.312500
vt 0.234375 1.000000
vt 0.250000 0.937500
vt 0.250000 0.750000
vt 0.750000 0.375000
vt 0.250000 0.812500
vt 0.750000 0.437500
vt 0.250000 0.875000
vt 0.750000 0.500000
vt 0.750000 0.562500
vt 0.750000 0.625000
vt 0.250000 0.125000
vt 0.750000 0.687500
vt 0.750000 0.125000
vt 0.250000 0.187500
vt 0.750000 0.750000
vt 0.750000 0.187500
vt 0.750000 0.812500
vt 0.250000 0.250000
vt 0.750000 0.875000
vt 0.250000 0.312500
vt 0.750000 0.937500
vt 0.250000 0.375000
vt 0.765625 1.000000
vt 0.218750 0.375000
vt 0.218750 0.312500
vt 0.218750 0.812500
vt 0.218750 0.750000
vt 0.218750 0.250000
vt 0.218750 0.687500
vt 0.218750 0.187500
vt 0.218750 0.625000
vt 0.218750 0.125000
vt 0.218750 0.562500
vt 0.218750 0.062500
vt 0.218750 0.500000
vt 0.218750 0.937500
vt 0.218750 0.437500
vt 0.218750 0.875000
vt 0.187500 0.125000
vt 0.187500 0.062500
vt 0.187500 0.562500
vt 0.187500 0.500000
vt 0.203125 1.000000
vt 0.187500 0.937500
vt 0.203125 0.000000
vt 0.187500 0.437500
vt 0.187500 0.875000
vt 0.187500 0.375000
vt 0.187500 0.812500
vt 0.187500 0.312500
vt 0.187500 0.750000
vt 0.187500 0.250000
vt 0.187500 0.687500
vt 0.187500 0.187500
vt 0.187500 0.625000
vt 0.156250 0.812500
vt 0.156250 0.750000
vt 0.156250 0.312500
vt 0.156250 0.250000
vt 0.156250 0.687500
vt 0.156250 0.187500
vt 0.156250 0.625000
vt 0.156250 0.125000
vt 0.156250 0.562500
vt 0.156250 0.062500
vt 0.156250 0.500000
vt 0.171875 1.000000
vt 0.156250 0.937500
vt 0.171875 0.000000
vt 0.156250 0.437500
vt 0.156250 0.875000
vt 0.156250 0.375000
vt 0.125000 0.562500
vt 0.125000 0.500000
vt 0.140625 1.000000
vt 0.125000 0.937500
vt 0.140625 0.000000
vt 0.125000 0.062500
vt 0.125000 0.437500
vt 0.125000 0.875000
vt 0.125000 0.375000
vt 0.125000 0.812500
vt 0.125000 0.312500
vt 0.125000 0.750000
vt 0.125000 0.250000
vt 0.125000 0.687500
vt 0.125000 0.187500
vt 0.125000 0.625000
vt 0.125000 0.125000
vt 0.093750 0.312500
vt 0.093750 0.250000
vt 0.093750 0.750000
vt 0.093750 0.687500
vt 0.093750 0.187500
vt 0.093750 0.625000
vt 0.093750 0.125000
vt 0.093750 0.562500
vt 0.093750 0.062500
vt 0.093750 0.500000
vt 0.109375 1.000000
vt 0.093750 0.937500
vt 0.109375 0.000000
vt 0.093750 0.437500
vt 0.093750 0.875000
vt 0.093750 0.375000
vt 0.093750 0.812500
vt 0.078125 1.000000
vt 0.062500 0.937500
vt 0.078125 0.000000
vt 0.062500 0.062500
vt 0.062500 0.500000
vt 0.062500 0.437500
vt 0.062500 0.875000
vt 0.062500 0.375000
vt 0.062500 0.812500
vt 0.062500 0.312500
vt 0.062500 0.750000
vt 0.062500 0.250000
vt 0.062500 0.687500
vt 0.062500 0.187500
vt 0.062500 0.625000
vt 0.062500 0.125000
vt 0.062500 0.562500
vt 0.031250 0.750000
vt 0.031250 0.687500
vt 0.031250 0.250000
vt 0.031250 0.187500
vt 0.031250 0.625000
vt 0.031250 0.125000
vt 0.031250 0.562500
vt 0.031250 0.062500
vt 0.031250 0.500000
vt 0.046875 1.000000
vt 0.031250 0.937500
vt 0.046875 0.000000
vt 0.031250 0.437500
vt 0.031250 0.875000
vt 0.031250 0.375000
vt 0.031250 0.812500
vt 0.031250 0.312500
vt 0.000000 0.500000
vt 0.000000 0.437500
vt 0.000000 0.937500
vt 0.000000 0.875000
vt 0.000000 0.375000
vt 0.000000 0.812500
vt 0.000000 0.312500
vt 0.000000 0.750000
vt 0.000000 0.250000
vt 0.000000 0.687500
vt 0.000000 0.187500
vt 0.000000 0.625000
vt 0.000000 0.125000
vt 0.000000 0.562500
vt 0.000000 0.062500
vt 0.015625 1.000000
vt 0.015625 0.000000
vt 1.000000 0.187500
vt 1.000000 0.250000
vt 0.968750 0.250000
vt 0.968750 0.187500
vt 1.000000 0.625000
vt 1.000000 0.687500
vt 0.968750 0.687500
vt 0.968750 0.625000
vt 1.000000 0.125000
vt 0.968750 0.125000
vt 1.000000 0.562500
vt 0.968750 0.562500
vt 1.000000 0.062500
vt 0.968750 0.062500
vt 1.000000 0.500000
vt 0.968750 0.500000
vt 1.000000 0.937500
vt 0.984375 1.000000
vt 0.968750 0.937500
vt 0.984375 0.000000
vt 1.000000 0.437500
vt 0.968750 0.437500
vt 1.000000 0.875000
vt 0.968750 0.875000
vt 1.000000 0.375000
vt 0.968750 0.375000
vt 1.000000 0.812500
vt 0.968750 0.812500
vt 1.000000 0.312500
vt 0.968750 0.312500
vt 1.000000 0.750000
vt 0.968750 0.750000
vt 0.937500 0.437500
vt 0.937500 0.375000
vt 0.937500 0.875000
vt 0.937500 0.812500
vt 0.937500 0.312500
vt 0.937500 0.750000
vt 0.937500 0.250000
vt 0.937500 0.687500
vt 0.937500 0.187500
vt 0.937500 0.625000
vt 0.937500 0.125000
vt 0.937500 0.562500
vt 0.937500 0.062500
vt 0.937500 0.500000
vt 0.953125 1.000000
vt 0.937500 0.937500
vt 0.953125 0.000000
vt 0.906250 0.187500
vt 0.906250 0.125000
vt 0.906250 0.625000
vt 0.906250 0.562500
vt 0.906250 0.062500
vt 0.906250 0.500000
vt 0.921875 1.000000
vt 0.906250 0.937500
vt 0.921875 0.000000
vt 0.906250 0.437500
vt 0.906250 0.875000
vt 0.906250 0.375000
vt 0.906250 0.812500
vt 0.906250 0.312500
vt 0.906250 0.750000
vt 0.906250 0.250000
vt 0.906250 0.687500
vt 0.875000 0.875000
vt 0.875000 0.812500
vt 0.875000 0.375000
vt 0.875000 0.312500
vt 0.875000 0.750000
vt 0.875000 0.250000
vt 0.875000 0.687500
vt 0.875000 0.187500
vt 0.875000 0.625000
vt 0.875000 0.125000
vt 0.875000 0.562500
vt 0.875000 0.062500
vt 0.875000 0.500000
vt 0.890625 1.000000
vt 0.875000 0.937500
vt 0.890625 0.000000
vt 0.875000 0.437500
vt 0.843750 0.625000
vt 0.843750 0.562500
vt 0.843750 0.125000
vt 0.843750 0.062500
vt 0.843750 0.500000
vt 0.859375 1.000000
vt 0.843750 0.937500
vt 0.859375 0.000000
vt 0.843750 0.437500
vt 0.843750 0.875000
vt 0.843750 0.375000
vt 0.843750 0.812500
vt 0.843750 0.312500
vt 0.843750 0.750000
vt 0.843750 0.250000
vt 0.843750 0.687500
vt 0.843750 0.187500
vt 0.812500 0.375000
vt 0.812500 0.312500
vt 0.812500 0.812500
vt 0.812500 0.750000
vt 0.812500 0.250000
vt 0.812500 0.687500
vt 0.812500 0.187500
vt 0.812500 0.625000
vt 0.812500 0.125000
vt 0.812500 0.562500
vt 0.812500 0.062500
vt 0.812500 0.500000
vt 0.828125 1.000000
vt 0.812500 0.937500
vt 0.828125 0.000000
vt 0.812500 0.437500
vt 0.812500 0.875000
vt 0.781250 0.125000
vt 0.781250 0.062500
vt 0.781250 0.562500
vt 0.781250 0.500000
vt 0.796875 1.000000
vt 0.781250 0.937500
vt 0.796875 0.000000
vt 0.781250 0.437500
vt 0.781250 0.875000
vt 0.781250 0.375000
vt 0.781250 0.812500
vt 0.781250 0.312500
vt 0.781250 0.750000
vt 0.781250 0.250000
vt 0.781250 0.687500
vt 0.781250 0.187500
vt 0.781250 0.625000
vt 0.718750 0.375000
vt 0.718750 0.312500
vt 0.718750 0.812500
vt 0.718750 0.750000
vt 0.718750 0.250000
vt 0.718750 0.687500
vt 0.718750 0.187500
vt 0.718750 0.625000
vt 0.718750 0.125000
vt 0.718750 0.562500
vt 0.718750 0.062500
vt 0.718750 0.500000
vt 0.734375 1.000000
vt 0.718750 0.937500
vt 0.734375 0.000000
vt 0.718750 0.437500
vt 0.718750 0.875000
vt 0.687500 0.437500
vt 0.687500 0.375000
vt 0.687500 0.875000
vt 0.687500 0.812500
vt 0.687500 0.312500
vt 0.687500 0.750000
vt 0.687500 0.250000
vt 0.687500 0.687500
vt 0.687500 0.187500
vt 0.687500 0.625000
vt 0.687500 0.125000
vt 0.687500 0.562500
vt 0.687500 0.062500
vt 0.687500 0.500000
vt 0.703125 1.000000
vt 0.687500 0.937500
vt 0.703125 0.000000
vt 0.656250 0.187500
vt 0.656250 0.125000
vt 0.656250 0.625000
vt 0.656250 0.562500
vt 0.656250 0.062500
vt 0.656250 0.500000
vt 0.671875 1.000000
vt 0.656250 0.937500
vt 0.671875 0.000000
vt 0.656250 0.437500
vt 0.656250 0.875000
vt 0.656250 0.375000
vt 0.656250 0.812500
vt 0.656250 0.312500
vt 0.656250 0.750000
vt 0.656250 0.250000
vt 0.656250 0.687500
vt 0.625000 0.875000
vt 0.625000 0.812500
vt 0.625000 0.375000
vt 0.625000 0.312500
vt 0.625000 0.750000
vt 0.625000 0.250000
vt 0.625000 0.687500
vt 0.625000 0.187500
vt 0.625000 0.625000
vt 0.625000 0.125000
vt 0.625000 0.562500
vt 0.625000 0.062500
vt 0.625000 0.500000
vt 0.640625 1.000000
vt 0.625000 0.937500
vt 0.640625 0.000000
vt 0.625000 0.437500
vt 0.593750 0.625000
vt 0.593750 0.562500
vt 0.593750 0.125000
vt 0.593750 0.062500
vt 0.593750 0.500000
vt 0.609375 1.000000
vt 0.593750 0.937500
vt 0.609375 0.000000
vt 0.593750 0.437500
vt 0.593750 0.875000
vt 0.593750 0.375000
vt 0.593750 0.812500
vt 0.593750 0.312500
vt 0.593750 0.750000
vt 0.593750 0.250000
vt 0.593750 0.687500
vt 0.593750 0.187500
vt 0.562500 0.375000
vt 0.562500 0.312500
vt 0.562500 0.812500
vt 0.562500 0.750000
vt 0.562500 0.250000
vt 0.562500 0.687500
vt 0.562500 0.187500
vt 0.562500 0.625000
vt 0.562500 0.125000
vt 0.562500 0.562500
vt 0.562500 0.062500
vt 0.562500 0.500000
vt 0.578125 1.000000
vt 0.562500 0.937500
vt 0.578125 0.000000
vt 0.562500 0.437500
vt 0.562500 0.875000
vt 0.531250 0.125000
vt 0.531250 0.062500
vt 0.531250 0.562500
vt 0.531250 0.500000
vt 0.546875 1.000000
vt 0.531250 0.937500
vt 0.546875 0.000000
vt 0.531250 0.437500
vt 0.531250 0.875000
vt 0.531250 0.375000
vt 0.531250 0.812500
vt 0.531250 0.312500
vt 0.531250 0.750000
vt 0.531250 0.250000
vt 0.531250 0.687500
vt 0.531250 0.187500
vt 0.531250 0.625000
vt 0.500000 0.312500
vt 0.500000 0.250000
vt 0.500000 0.750000
vt 0.500000 0.687500
vt 0.500000 0.187500
vt 0.500000 0.625000
vt 0.500000 0.125000
vt 0.500000 0.562500
vt 0.500000 0.062500
vt 0.500000 0.500000
vt 0.515625 1.000000
vt 0.500000 0.937500
vt 0.515625 0.000000
vt 0.500000 0.437500
vt 0.500000 0.875000
vt 0.500000 0.375000
vt 0.500000 0.812500
vt 0.484375 1.000000
vt 0.468750 0.937500
vt 0.484375 0.000000
vt 0.468750 0.062500
vt 0.468750 0.500000
vt 0.468750 0.437500
vt 0.468750 0.875000
vt 0.468750 0.375000
vt 0.468750 0.812500
vt 0.468750 0.312500
vt 0.468750 0.750000
vt 0.468750 0.250000
vt 0.468750 0.687500
vt 0.468750 0.187500
vt 0.468750 0.625000
vt 0.468750 0.125000
vt 0.468750 0.562500
vt 0.437500 0.750000
vt 0.437500 0.687500
vt 0.437500 0.250000
vt 0.437500 0.187500
vt 0.437500 0.625000
vt 0.437500 0.125000
vt 0.437500 0.562500
vt 0.437500 0.062500
vt 0.437500 0.500000
vt 0.453125 1.000000
vt 0.437500 0.937500
vt 0.453125 0.000000
vt 0.437500 0.437500
vt 0.437500 0.875000
vt 0.437500 0.375000
vt 0.437500 0.812500
vt 0.437500 0.312500
vt 0.406250 0.500000
vt 0.406250 0.437500
vt 0.406250 0.937500
vt 0.406250 0.875000
vt 0.406250 0.375000
vt 0.406250 0.812500
vt 0.406250 0.312500
vt 0.406250 0.750000
vt 0.406250 0.250000
vt 0.406250 0.687500
vt 0.406250 0.187500
vt 0.406250 0.625000
vt 0.406250 0.125000
vt 0.406250 0.562500
vt 0.406250 0.062500
vt 0.421875 1.000000
vt 0.421875 0.000000
vt 0.375000 0.250000
vt 0.375000 0.187500
vt 0.375000 0.687500
vt 0.375000 0.625000
vt 0.375000 0.125000
vt 0.375000 0.562500
vt 0.375000 0.062500
vt 0.375000 0.500000
vt 0.390625 1.000000
vt 0.375000 0.937500
vt 0.390625 0.000000
vt 0.375000 0.437500
vt 0.375000 0.875000
vt 0.375000 0.375000
vt 0.375000 0.812500
vt 0.375000 0.312500
vt 0.375000 0.750000
vt 0.343750 0.937500
vt 0.343750 0.875000
vt 0.343750 0.437500
vt 0.343750 0.375000
vt 0.343750 0.812500
vt 0.343750 0.312500
vt 0.343750 0.750000
vt 0.343750 0.250000
vt 0.343750 0.687500
vt 0.343750 0.187500
vt 0.343750 0.625000
vt 0.343750 0.125000
vt 0.343750 0.562500
vt 0.343750 0.062500
vt 0.343750 0.500000
vt 0.359375 1.000000
vt 0.359375 0.000000
vt 0.312500 0.687500
vt 0.312500 0.625000
vt 0.312500 0.187500
vt 0.312500 0.125000
vt 0.312500 0.562500
vt 0.312500 0.062500
vt 0.312500 0.500000
vt 0.328125 1.000000
vt 0.312500 0.937500
vt 0.328125 0.000000
vt 0.312500 0.437500
vt 0.312500 0.875000
vt 0.312500 0.375000
vt 0.312500 0.812500
vt 0.312500 0.312500
vt 0.312500 0.750000
vt 0.312500 0.250000
vt 0.281250 0.437500
vt 0.281250 0.375000
vt 0.281250 0.875000
vt 0.281250 0.812500
vt 0.281250 0.312500
vt 0.281250 0.750000
vt 0.281250 0.250000
vt 0.281250 0.687500
vt 0.281250 0.187500
vt 0.281250 0.625000
vt 0.281250 0.125000
vt 0.281250 0.562500
vt 0.281250 0.062500
vt 0.281250 0.500000
vt 0.296875 1.000000
vt 0.281250 0.937500
vt 0.296875 0.000000
vt 0.265625 1.000000
vt 0.265625 0.000000
s 1
usemtl LaserBeam_material
f 15/1/15 16/2/16 498/2/498 497/1/497
f 14/3/14 15/1/15 497/1/497 496/3/496
f 13/4/13 14/3/14 496/3/496 495/4/495
f 83/5/83 257/6/257 514/6/514 505/5/505
f 22/7/22 83/8/83 505/8/505 504/7/504
f 12/9/12 13/4/13 495/4/495 494/9/494
f 254/10/254 6/11/6 263/11/263 511/10/511
f 7/12/7 8/13/8 490/13/490 339/12/339
f 11/14/11 12/9/12 494/9/494 493/14/493
f 6/11/6 253/15/253 510/15/510 263/11/263
f 10/16/10 11/14/11 493/14/493 492/16/492
f 253/15/253 5/17/5 262/17/262 510/15/510
f 9/18/9 10/16/10 492/16/492 491/18/491
f 5/17/5 4/19/4 261/19/261 262/17/262
f 3/20/3 252/21/252 509/21/509 260/20/260
f 8/13/8 9/18/9 491/18/491 490/13/490
f 4/19/4 3/20/3 260/20/260 261/19/261
f 21/22/21 22/7/22 504/7/504 503/22/503
f 252/21/252 2/23/2 259/23/259 509/21/509
f 257/6/257 256/24/256 513/24/513 514/6/514
f 20/25/20 21/22/21 503/22/503 502/25/502
f 2/23/2 251/26/251 508/26/508 259/23/259
f 256/24/256 255/27/255 512/27/512 513/24/513
f 251/26/251 1/28/1 258/28/258 508/26/508
f 19/29/19 20/25/20 502/25/502 501/29/501
f 255/27/255 254/10/254 511/10/511 512/27/512
f 1/28/1 250/30/250 507/30/507 258/28/258
f 18/31/18 19/29/19 501/29/501 500/31/500
f 250/30/250 249/32/249 506/32/506 507/30/507
f 17/33/17 18/31/18 500/31/500 499/33/499
f 249/32/249 7/34/7 339/34/339 506/32/506
f 16/2/16 17/33/17 499/33/499 498/2/498
f 18/31/18 17/33/17 32/35/32 33/36/33
f 11/14/11 10/16/10 25/37/25 26/38/26
f 19/29/19 18/31/18 33/36/33 34/39/34
f 12/9/12 11/14/11 26/38/26 27/40/27
f 20/25/20 19/29/19 34/39/34 35/41/35
f 13/4/13 12/9/12 27/40/27 28/42/28
f 21/22/21 20/25/20 35/41/35 36/43/36
f 14/3/14 13/4/13 28/42/28 29/44/29
f 22/7/22 21/22/21 36/43/36 37/45/37
f 15/1/15 14/3/14 29/44/29 30/46/30
f 8/13/8 7/12/7 23/47/23
f 83/8/83 22/7/22 37/45/37
f 16/2/16 15/1/15 30/46/30 31/48/31
f 9/18/9 8/13/8 23/47/23 24/49/24
f 17/33/17 16/2/16 31/48/31 32/35/32
f 10/16/10 9/18/9 24/49/24 25/37/25
f 37/45/37 36/43/36 51/50/51 52/51/52
f 30/46/30 29/44/29 44/52/44 45/53/45
f 23/47/23 7/54/7 38/55/38
f 83/56/83 37/45/37 52/51/52
f 31/48/31 30/46/30 45/53/45 46/57/46
f 24/49/24 23/47/23 38/55/38 39/58/39
f 32/35/32 31/48/31 46/57/46 47/59/47
f 25/37/25 24/49/24 39/58/39 40/60/40
f 33/36/33 32/35/32 47/59/47 48/61/48
f 26/38/26 25/37/25 40/60/40 41/62/41
f 34/39/34 33/36/33 48/61/48 49/63/49
f 27/40/27 26/38/26 41/62/41 42/64/42
f 35/41/35 34/39/34 49/63/49 50/65/50
f 28/42/28 27/40/27 42/64/42 43/66/43
f 36/43/36 35/41/35 50/65/50 51/50/51
f 29/44/29 28/42/28 43/66/43 44/52/44
f 41/62/41 40/60/40 55/67/55 56/68/56
f 49/63/49 48/61/48 63/69/63 64/70/64
f 42/64/42 41/62/41 56/68/56 57/71/57
f 50/65/50 49/63/49 64/70/64 65/72/65
f 43/66/43 42/64/42 57/71/57 58/73/58
f 51/50/51 50/65/50 65/72/65 66/74/66
f 44/52/44 43/66/43 58/73/58 59/75/59
f 52/51/52 51/50/51 66/74/66 67/76/67
f 45/53/45 44/52/44 59/75/59 60/77/60
f 38/55/38 7/78/7 53/79/53
f 83/80/83 52/51/52 67/76/67
f 46/57/46 45/53/45 60/77/60 61/81/61
f 39/58/39 38/55/38 53/79/53 54/82/54
f 47/59/47 46/57/46 61/81/61 62/83/62
f 40/60/40 39/58/39 54/82/54 55/67/55
f 48/61/48 47/59/47 62/83/62 63/69/63
f 60/77/60 59/75/59 74/84/74 75/85/75
f 53/79/53 7/86/7 68/87/68
f 83/88/83 67/76/67 82/89/82
f 61/81/61 60/77/60 75/85/75 76/90/76
f 54/82/54 53/79/53 68/87/68 69/91/69
f 62/83/62 61/81/61 76/90/76 77/92/77
f 55/67/55 54/82/54 69/91/69 70/93/70
f 63/69/63 62/83/62 77/92/77 78/94/78
f 56/68/56 55/67/55 70/93/70 71/95/71
f 64/70/64 63/69/63 78/94/78 79/96/79
f 57/71/57 56/68/56 71/95/71 72/97/72
f 65/72/65 64/70/64 79/96/79 80/98/80
f 58/73/58 57/71/57 72/97/72 73/99/73
f 66/74/66 65/72/65 80/98/80 81/100/81
f 59/75/59 58/73/58 73/99/73 74/84/74
f 67/76/67 66/74/66 81/100/81 82/89/82
f 79/96/79 78/94/78 94/101/94 95/102/95
f 72/97/72 71/95/71 87/103/87 88/104/88
f 80/98/80 79/96/79 95/102/95 96/105/96
f 73/99/73 72/97/72 88/104/88 89/106/89
f 81/100/81 80/98/80 96/105/96 97/107/97
f 74/84/74 73/99/73 89/106/89 90/108/90
f 82/89/82 81/100/81 97/107/97 98/109/98
f 75/85/75 74/84/74 90/108/90 91/110/91
f 68/87/68 7/111/7 84/112/84
f 83/113/83 82/89/82 98/109/98
f 76/90/76 75/85/75 91/110/91 92/114/92
f 69/91/69 68/87/68 84/112/84 85/115/85
f 77/92/77 76/90/76 92/114/92 93/116/93
f 70/93/70 69/91/69 85/115/85 86/117/86
f 78/94/78 77/92/77 93/116/93 94/101/94
f 71/95/71 70/93/70 86/117/86 87/103/87
f 84/112/84 7/118/7 99/119/99
f 83/120/83 98/109/98 113/121/113
f 92/114/92 91/110/91 106/122/106 107/123/107
f 85/115/85 84/112/84 99/119/99 100/124/100
f 93/116/93 92/114/92 107/123/107 108/125/108
f 86/117/86 85/115/85 100/124/100 101/126/101
f 94/101/94 93/116/93 108/125/108 109/127/109
f 87/103/87 86/117/86 101/126/101 102/128/102
f 95/102/95 94/101/94 109/127/109 110/129/110
f 88/104/88 87/103/87 102/128/102 103/130/103
f 96/105/96 95/102/95 110/129/110 111/131/111
f 89/106/89 88/104/88 103/130/103 104/132/104
f 97/107/97 96/105/96 111/131/111 112/133/112
f 90/108/90 89/106/89 104/132/104 105/134/105
f 98/109/98 97/107/97 112/133/112 113/121/113
f 91/110/91 90/108/90 105/134/105 106/122/106
f 103/130/103 102/128/102 117/135/117 118/136/118
f 111/131/111 110/129/110 125/137/125 126/138/126
f 104/132/104 103/130/103 118/136/118 119/139/119
f 112/133/112 111/131/111 126/138/126 127/140/127
f 105/134/105 104/132/104 119/139/119 120/141/120
f 113/121/113 112/133/112 127/140/127 128/142/128
f 106/122/106 105/134/105 120/141/120 121/143/121
f 99/119/99 7/144/7 114/145/114
f 83/146/83 113/121/113 128/142/128
f 107/123/107 106/122/106 121/143/121 122/147/122
f 100/124/100 99/119/99 114/145/114 115/148/115
f 108/125/108 107/123/107 122/147/122 123/149/123
f 101/126/101 100/124/100 115/148/115 116/150/116
f 109/127/109 108/125/108 123/149/123 124/151/124
f 102/128/102 101/126/101 116/150/116 117/135/117
f 110/129/110 109/127/109 124/151/124 125/137/125
f 122/147/122 121/143/121 136/152/136 137/153/137
f 115/148/115 114/145/114 129/154/129 130/155/130
f 123/149/123 122/147/122 137/153/137 138/156/138
f 116/150/116 115/148/115 130/155/130 131/157/131
f 124/151/124 123/149/123 138/156/138 139/158/139
f 117/135/117 116/150/116 131/157/131 132/159/132
f 125/137/125 124/151/124 139/158/139 140/160/140
f 118/136/118 117/135/117 132/159/132 133/161/133
f 126/138/126 125/137/125 140/160/140 141/162/141
f 119/139/119 118/136/118 133/161/133 134/163/134
f 127/140/127 126/138/126 141/162/141 142/164/142
f 120/141/120 119/139/119 134/163/134 135/165/135
f 128/142/128 127/140/127 142/164/142 143/166/143
f 121/143/121 120/141/120 135/165/135 136/152/136
f 114/145/114 7/167/7 129/154/129
f 83/168/83 128/142/128 143/166/143
f 141/169/141 140/170/140 155/171/155 156/172/156
f 134/173/134 133/174/133 148/175/148 149/176/149
f 142/177/142 141/169/141 156/172/156 157/178/157
f 135/179/135 134/173/134 149/176/149 150/180/150
f 143/181/143 142/177/142 157/178/157 158/182/158
f 136/183/136 135/179/135 150/180/150 151/184/151
f 129/185/129 7/186/7 144/187/144
f 83/188/83 143/181/143 158/182/158
f 137/189/137 136/183/136 151/184/151 152/190/152
f 130/191/130 129/185/129 144/187/144 145/192/145
f 138/193/138 137/189/137 152/190/152 153/194/153
f 131/195/131 130/191/130 145/192/145 146/196/146
f 139/197/139 138/193/138 153/194/153 154/198/154
f 132/199/132 131/195/131 146/196/146 147/200/147
f 140/170/140 139/197/139 154/198/154 155/171/155
f 133/174/133 132/199/132 147/200/147 148/175/148
f 153/194/153 152/190/152 167/201/167 168/202/168
f 146/196/146 145/192/145 160/203/160 161/204/161
f 154/198/154 153/194/153 168/202/168 169/205/169
f 147/200/147 146/196/146 161/204/161 162/206/162
f 155/171/155 154/198/154 169/205/169 170/207/170
f 148/175/148 147/200/147 162/206/162 163/208/163
f 156/172/156 155/171/155 170/207/170 171/209/171
f 149/176/149 148/175/148 163/208/163 164/210/164
f 157/178/157 156/172/156 171/209/171 172/211/172
f 150/180/150 149/176/149 164/210/164 165/212/165
f 158/182/158 157/178/157 172/211/172 173/213/173
f 151/184/151 150/180/150 165/212/165 166/214/166
f 144/187/144 7/215/7 159/216/159
f 83/217/83 158/182/158 173/213/173
f 152/190/152 151/184/151 166/214/166 167/201/167
f 145/192/145 144/187/144 159/216/159 160/203/160
f 172/211/172 171/209/171 186/218/186 187/219/187
f 165/212/165 164/210/164 179/220/179 180/221/180
f 173/213/173 172/211/172 187/219/187 188/222/188
f 166/214/166 165/212/165 180/221/180 181/223/181
f 159/216/159 7/224/7 174/225/174
f 83/226/83 173/213/173 188/222/188
f 167/201/167 166/214/166 181/223/181 182/227/182
f 160/203/160 159/216/159 174/225/174 175/228/175
f 168/202/168 167/201/167 182/227/182 183/229/183
f 161/204/161 160/203/160 175/228/175 176/230/176
f 169/205/169 168/202/168 183/229/183 184/231/184
f 162/206/162 161/204/161 176/230/176 177/232/177
f 170/207/170 169/205/169 184/231/184 185/233/185
f 163/208/163 162/206/162 177/232/177 178/234/178
f 171/209/171 170/207/170 185/233/185 186/218/186
f 164/210/164 163/208/163 178/234/178 179/220/179
f 176/230/176 175/228/175 190/235/190 191/236/191
f 184/231/184 183/229/183 198/237/198 199/238/199
f 177/232/177 176/230/176 191/236/191 192/239/192
f 185/233/185 184/231/184 199/238/199 200/240/200
f 178/234/178 177/232/177 192/239/192 193/241/193
f 186/218/186 185/233/185 200/240/200 201/242/201
f 179/220/179 178/234/178 193/241/193 194/243/194
f 187/219/187 186/218/186 201/242/201 202/244/202
f 180/221/180 179/220/179 194/243/194 195/245/195
f 188/222/188 187/219/187 202/244/202 203/246/203
f 181/223/181 180/221/180 195/245/195 196/247/196
f 174/225/174 7/248/7 189/249/189
f 83/250/83 188/222/188 203/246/203
f 182/227/182 181/223/181 196/247/196 197/251/197
f 175/228/175 174/225/174 189/249/189 190/235/190
f 183/229/183 182/227/182 197/251/197 198/237/198
f 195/245/195 194/243/194 209/252/209 210/253/210
f 203/246/203 202/244/202 217/254/217 218/255/218
f 196/247/196 195/245/195 210/253/210 211/256/211
f 189/249/189 7/257/7 204/258/204
f 83/259/83 203/246/203 218/255/218
f 197/251/197 196/247/196 211/256/211 212/260/212
f 190/235/190 189/249/189 204/258/204 205/261/205
f 198/237/198 197/251/197 212/260/212 213/262/213
f 191/236/191 190/235/190 205/261/205 206/263/206
f 199/238/199 198/237/198 213/262/213 214/264/214
f 192/239/192 191/236/191 206/263/206 207/265/207
f 200/240/200 199/238/199 214/264/214 215/266/215
f 193/241/193 192/239/192 207/265/207 208/267/208
f 201/242/201 200/240/200 215/266/215 216/268/216
f 194/243/194 193/241/193 208/267/208 209/252/209
f 202/244/202 201/242/201 216/268/216 217/254/217
f 214/264/214 213/262/213 228/269/228 229/270/229
f 207/265/207 206/263/206 221/271/221 222/272/222
f 215/266/215 214/264/214 229/270/229 230/273/230
f 208/267/208 207/265/207 222/272/222 223/274/223
f 216/268/216 215/266/215 230/273/230 231/275/231
f 209/252/209 208/267/208 223/274/223 224/276/224
f 217/254/217 216/268/216 231/275/231 232/277/232
f 210/253/210 209/252/209 224/276/224 225/278/225
f 218/255/218 217/254/217 232/277/232 233/279/233
f 211/256/211 210/253/210 225/278/225 226/280/226
f 204/258/204 7/281/7 219/282/219
f 83/283/83 218/255/218 233/279/233
f 212/260/212 211/256/211 226/280/226 227/284/227
f 205/261/205 204/258/204 219/282/219 220/285/220
f 213/262/213 212/260/212 227/284/227 228/269/228
f 206/263/206 205/261/205 220/285/220 221/271/221
f 233/279/233 232/277/232 247/286/247 248/287/248
f 226/280/226 225/278/225 240/288/240 241/289/241
f 219/282/219 7/290/7 234/291/234
f 83/292/83 233/279/233 248/287/248
f 227/284/227 226/280/226 241/289/241 242/293/242
f 220/285/220 219/282/219 234/291/234 235/294/235
f 228/269/228 227/284/227 242/293/242 243/295/243
f 221/271/221 220/285/220 235/294/235 236/296/236
f 229/270/229 228/269/228 243/295/243 244/297/244
f 222/272/222 221/271/221 236/296/236 237/298/237
f 230/273/230 229/270/229 244/297/244 245/299/245
f 223/274/223 222/272/222 237/298/237 238/300/238
f 231/275/231 230/273/230 245/299/245 246/301/246
f 224/276/224 223/274/223 238/300/238 239/302/239
f 232/277/232 231/275/231 246/301/246 247/286/247
f 225/278/225 224/276/224 239/302/239 240/288/240
f 237/298/237 236/296/236 1/28/1 251/26/251
f 245/299/245 244/297/244 6/11/6 254/10/254
f 238/300/238 237/298/237 251/26/251 2/23/2
f 246/301/246 245/299/245 254/10/254 255/27/255
f 239/302/239 238/300/238 2/23/2 252/21/252
f 247/286/247 246/301/246 255/27/255 256/24/256
f 240/288/240 239/302/239 252/21/252 3/20/3
f 248/287/248 247/286/247 256/24/256 257/6/257
f 241/289/241 240/288/240 3/20/3 4/19/4
f 234/291/234 7/34/7 249/32/249
f 83/5/83 248/287/248 257/6/257
f 242/293/242 241/289/241 4/19/4 5/17/5
f 235/294/235 234/291/234 249/32/249 250/30/250
f 243/295/243 242/293/242 5/17/5 253/15/253
f 236/296/236 235/294/235 250/30/250 1/28/1
f 244/297/244 243/295/243 253/15/253 6/11/6
f 263/11/263 510/15/510 273/303/273 274/304/274
f 508/26/508 258/28/258 266/305/266 267/306/267
f 511/10/511 263/11/263 274/304/274 275/307/275
f 259/23/259 508/26/508 267/306/267 268/308/268
f 512/27/512 511/10/511 275/307/275 276/309/276
f 509/21/509 259/23/259 268/308/268 269/310/269
f 513/24/513 512/27/512 276/309/276 277/311/277
f 260/20/260 509/21/509 269/310/269 270/312/270
f 514/6/514 513/24/513 277/311/277 278/313/278
f 261/19/261 260/20/260 270/312/270 271/314/271
f 506/32/506 339/315/339 264/316/264
f 505/317/505 514/6/514 278/313/278
f 262/17/262 261/19/261 271/314/271 272/318/272
f 507/30/507 506/32/506 264/316/264 265/319/265
f 510/15/510 262/17/262 272/318/272 273/303/273
f 258/28/258 507/30/507 265/319/265 266/305/266
f 273/303/273 272/318/272 287/320/287 288/321/288
f 266/305/266 265/319/265 280/322/280 281/323/281
f 274/304/274 273/303/273 288/321/288 289/324/289
f 267/306/267 266/305/266 281/323/281 282/325/282
f 275/307/275 274/304/274 289/324/289 290/326/290
f 268/308/268 267/306/267 282/325/282 283/327/283
f 276/309/276 275/307/275 290/326/290 291/328/291
f 269/310/269 268/308/268 283/327/283 284/329/284
f 277/311/277 276/309/276 291/328/291 292/330/292
f 270/312/270 269/310/269 284/329/284 285/331/285
f 278/313/278 277/311/277 292/330/292 293/332/293
f 271/314/271 270/312/270 285/331/285 286/333/286
f 264/316/264 339/334/339 279/335/279
f 505/336/505 278/313/278 293/332/293
f 272/318/272 271/314/271 286/333/286 287/320/287
f 265/319/265 264/316/264 279/335/279 280/322/280
f 292/330/292 291/328/291 306/337/306 307/338/307
f 285/331/285 284/329/284 299/339/299 300/340/300
f 293/332/293 292/330/292 307/338/307 308/341/308
f 286/333/286 285/331/285 300/340/300 301/342/301
f 279/335/279 339/343/339 294/344/294
f 505/345/505 293/332/293 308/341/308
f 287/320/287 286/333/286 301/342/301 302/346/302
f 280/322/280 279/335/279 294/344/294 295/347/295
f 288/321/288 287/320/287 302/346/302 303/348/303
f 281/323/281 280/322/280 295/347/295 296/349/296
f 289/324/289 288/321/288 303/348/303 304/350/304
f 282/325/282 281/323/281 296/349/296 297/351/297
f 290/326/290 289/324/289 304/350/304 305/352/305
f 283/327/283 282/325/282 297/351/297 298/353/298
f 291/328/291 290/326/290 305/352/305 306/337/306
f 284/329/284 283/327/283 298/353/298 299/339/299
f 296/349/296 295/347/295 310/354/310 311/355/311
f 304/350/304 303/348/303 318/356/318 319/357/319
f 297/351/297 296/349/296 311/355/311 312/358/312
f 305/352/305 304/350/304 319/357/319 320/359/320
f 298/353/298 297/351/297 312/358/312 313/360/313
f 306/337/306 305/352/305 320/359/320 321/361/321
f 299/339/299 298/353/298 313/360/313 314/362/314
f 307/338/307 306/337/306 321/361/321 322/363/322
f 300/340/300 299/339/299 314/362/314 315/364/315
f 308/341/308 307/338/307 322/363/322 323/365/323
f 301/342/301 300/340/300 315/364/315 316/366/316
f 294/344/294 339/367/339 309/368/309
f 505/369/505 308/341/308 323/365/323
f 302/346/302 301/342/301 316/366/316 317/370/317
f 295/347/295 294/344/294 309/368/309 310/354/310
f 303/348/303 302/346/302 317/370/317 318/356/318
f 315/364/315 314/362/314 329/371/329 330/372/330
f 323/365/323 322/363/322 337/373/337 338/374/338
f 316/366/316 315/364/315 330/372/330 331/375/331
f 309/368/309 339/376/339 324/377/324
f 505/378/505 323/365/323 338/374/338
f 317/370/317 316/366/316 331/375/331 332/379/332
f 310/354/310 309/368/309 324/377/324 325/380/325
f 318/356/318 317/370/317 332/379/332 333/381/333
f 311/355/311 310/354/310 325/380/325 326/382/326
f 319/357/319 318/356/318 333/381/333 334/383/334
f 312/358/312 311/355/311 326/382/326 327/384/327
f 320/359/320 319/357/319 334/383/334 335/385/335
f 313/360/313 312/358/312 327/384/327 328/386/328
f 321/361/321 320/359/320 335/385/335 336/387/336
f 314/362/314 313/360/313 328/386/328 329/371/329
f 322/363/322 321/361/321 336/387/336 337/373/337
f 334/383/334 333/381/333 349/388/349 350/389/350
f 327/384/327 326/382/326 342/390/342 343/391/343
f 335/385/335 334/383/334 350/389/350 351/392/351
f 328/386/328 327/384/327 343/391/343 344/393/344
f 336/387/336 335/385/335 351/392/351 352/394/352
f 329/371/329 328/386/328 344/393/344 345/395/345
f 337/373/337 336/387/336 352/394/352 353/396/353
f 330/372/330 329/371/329 345/395/345 346/397/346
f 338/374/338 337/373/337 353/396/353 354/398/354
f 331/375/331 330/372/330 346/397/346 347/399/347
f 324/377/324 339/400/339 340/401/340
f 505/402/505 338/374/338 354/398/354
f 332/379/332 331/375/331 347/399/347 348/403/348
f 325/380/325 324/377/324 340/401/340 341/404/341
f 333/381/333 332/379/332 348/403/348 349/388/349
f 326/382/326 325/380/325 341/404/341 342/390/342
f 354/398/354 353/396/353 368/405/368 369/406/369
f 347/399/347 346/397/346 361/407/361 362/408/362
f 340/401/340 339/409/339 355/410/355
f 505/411/505 354/398/354 369/406/369
f 348/403/348 347/399/347 362/408/362 363/412/363
f 341/404/341 340/401/340 355/410/355 356/413/356
f 349/388/349 348/403/348 363/412/363 364/414/364
f 342/390/342 341/404/341 356/413/356 357/415/357
f 350/389/350 349/388/349 364/414/364 365/416/365
f 343/391/343 342/390/342 357/415/357 358/417/358
f 351/392/351 350/389/350 365/416/365 366/418/366
f 344/393/344 343/391/343 358/417/358 359/419/359
f 352/394/352 351/392/351 366/418/366 367/420/367
f 345/395/345 344/393/344 359/419/359 360/421/360
f 353/396/353 352/394/352 367/420/367 368/405/368
f 346/397/346 345/395/345 360/421/360 361/407/361
f 366/418/366 365/416/365 380/422/380 381/423/381
f 359/419/359 358/417/358 373/424/373 374/425/374
f 367/420/367 366/418/366 381/423/381 382/426/382
f 360/421/360 359/419/359 374/425/374 375/427/375
f 368/405/368 367/420/367 382/426/382 383/428/383
f 361/407/361 360/421/360 375/427/375 376/429/376
f 369/406/369 368/405/368 383/428/383 384/430/384
f 362/408/362 361/407/361 376/429/376 377/431/377
f 355/410/355 339/432/339 370/433/370
f 505/434/505 369/406/369 384/430/384
f 363/412/363 362/408/362 377/431/377 378/435/378
f 356/413/356 355/410/355 370/433/370 371/436/371
f 364/414/364 363/412/363 378/435/378 379/437/379
f 357/415/357 356/413/356 371/436/371 372/438/372
f 365/416/365 364/414/364 379/437/379 380/422/380
f 358/417/358 357/415/357 372/438/372 373/424/373
f 370/433/370 339/439/339 385/440/385
f 505/441/505 384/430/384 399/442/399
f 378/435/378 377/431/377 392/443/392 393/444/393
f 371/436/371 370/433/370 385/440/385 386/445/386
f 379/437/379 378/435/378 393/444/393 394/446/394
f 372/438/372 371/436/371 386/445/386 387/447/387
f 380/422/380 379/437/379 394/446/394 395/448/395
f 373/424/373 372/438/372 387/447/387 388/449/388
f 381/423/381 380/422/380 395/448/395 396/450/396
f 374/425/374 373/424/373 388/449/388 389/451/389
f 382/426/382 381/423/381 396/450/396 397/452/397
f 375/427/375 374/425/374 389/451/389 390/453/390
f 383/428/383 382/426/382 397/452/397 398/454/398
f 376/429/376 375/427/375 390/453/390 391/455/391
f 384/430/384 383/428/383 398/454/398 399/442/399
f 377/431/377 376/429/376 391/455/391 392/443/392
f 389/451/389 388/449/388 403/456/403 404/457/404
f 397/452/397 396/450/396 411/458/411 412/459/412
f 390/453/390 389/451/389 404/457/404 405/460/405
f 398/454/398 397/452/397 412/459/412 413/461/413
f 391/455/391 390/453/390 405/460/405 406/462/406
f 399/442/399 398/454/398 413/461/413 414/463/414
f 392/443/392 391/455/391 406/462/406 407/464/407
f 385/440/385 339/465/339 400/466/400
f 505/467/505 399/442/399 414/463/414
f 393/444/393 392/443/392 407/464/407 408/468/408
f 386/445/386 385/440/385 400/466/400 401/469/401
f 394/446/394 393/444/393 408/468/408 409/470/409
f 387/447/387 386/445/386 401/469/401 402/471/402
f 395/448/395 394/446/394 409/470/409 410/472/410
f 388/449/388 387/447/387 402/471/402 403/456/403
f 396/450/396 395/448/395 410/472/410 411/458/411
f 408/468/408 407/464/407 422/473/422 423/474/423
f 401/469/401 400/466/400 415/475/415 416/476/416
f 409/470/409 408/468/408 423/474/423 424/477/424
f 402/471/402 401/469/401 416/476/416 417/478/417
f 410/472/410 409/470/409 424/477/424 425/479/425
f 403/456/403 402/471/402 417/478/417 418/480/418
f 411/458/411 410/472/410 425/479/425 426/481/426
f 404/457/404 403/456/403 418/480/418 419/482/419
f 412/459/412 411/458/411 426/481/426 427/483/427
f 405/460/405 404/457/404 419/482/419 420/484/420
f 413/461/413 412/459/412 427/483/427 428/485/428
f 406/462/406 405/460/405 420/484/420 421/486/421
f 414/463/414 413/461/413 428/485/428 429/487/429
f 407/464/407 406/462/406 421/486/421 422/473/422
f 400/466/400 339/488/339 415/475/415
f 505/489/505 414/463/414 429/487/429
f 427/483/427 426/481/426 441/490/441 442/491/442
f 420/484/420 419/482/419 434/492/434 435/493/435
f 428/485/428 427/483/427 442/491/442 443/494/443
f 421/486/421 420/484/420 435/493/435 436/495/436
f 429/487/429 428/485/428 443/494/443 444/496/444
f 422/473/422 421/486/421 436/495/436 437/497/437
f 415/475/415 339/498/339 430/499/430
f 505/500/505 429/487/429 444/496/444
f 423/474/423 422/473/422 437/497/437 438/501/438
f 416/476/416 415/475/415 430/499/430 431/502/431
f 424/477/424 423/474/423 438/501/438 439/503/439
f 417/478/417 416/476/416 431/502/431 432/504/432
f 425/479/425 424/477/424 439/503/439 440/505/440
f 418/480/418 417/478/417 432/504/432 433/506/433
f 426/481/426 425/479/425 440/505/440 441/490/441
f 419/482/419 418/480/418 433/506/433 434/492/434
f 431/502/431 430/499/430 445/507/445 446/508/446
f 439/503/439 438/501/438 453/509/453 454/510/454
f 432/504/432 431/502/431 446/508/446 447/511/447
f 440/505/440 439/503/439 454/510/454 455/512/455
f 433/506/433 432/504/432 447/511/447 448/513/448
f 441/490/441 440/505/440 455/512/455 456/514/456
f 434/492/434 433/506/433 448/513/448 449/515/449
f 442/491/442 441/490/441 456/514/456 457/516/457
f 435/493/435 434/492/434 449/515/449 450/517/450
f 443/494/443 442/491/442 457/516/457 458/518/458
f 436/495/436 435/493/435 450/517/450 451/519/451
f 444/496/444 443/494/443 458/518/458 459/520/459
f 437/497/437 436/495/436 451/519/451 452/521/452
f 430/499/430 339/522/339 445/507/445
f 505/523/505 444/496/444 459/520/459
f 438/501/438 437/497/437 452/521/452 453/509/453
f 450/517/450 449/515/449 464/524/464 465/525/465
f 458/518/458 457/516/457 472/526/472 473/527/473
f 451/519/451 450/517/450 465/525/465 466/528/466
f 459/520/459 458/518/458 473/527/473 474/529/474
f 452/521/452 451/519/451 466/528/466 467/530/467
f 445/507/445 339/531/339 460/532/460
f 505/533/505 459/520/459 474/529/474
f 453/509/453 452/521/452 467/530/467 468/534/468
f 446/508/446 445/507/445 460/532/460 461/535/461
f 454/510/454 453/509/453 468/534/468 469/536/469
f 447/511/447 446/508/446 461/535/461 462/537/462
f 455/512/455 454/510/454 469/536/469 470/538/470
f 448/513/448 447/511/447 462/537/462 463/539/463
f 456/514/456 455/512/455 470/538/470 471/540/471
f 449/515/449 448/513/448 463/539/463 464/524/464
f 457/516/457 456/514/456 471/540/471 472/526/472
f 469/536/469 468/534/468 483/541/483 484/542/484
f 462/537/462 461/535/461 476/543/476 477/544/477
f 470/538/470 469/536/469 484/542/484 485/545/485
f 463/539/463 462/537/462 477/544/477 478/546/478
f 471/540/471 470/538/470 485/545/485 486/547/486
f 464/524/464 463/539/463 478/546/478 479/548/479
f 472/526/472 471/540/471 486/547/486 487/549/487
f 465/525/465 464/524/464 479/548/479 480/550/480
f 473/527/473 472/526/472 487/549/487 488/551/488
f 466/528/466 465/525/465 480/550/480 481/552/481
f 474/529/474 473/527/473 488/551/488 489/553/489
f 467/530/467 466/528/466 481/552/481 482/554/482
f 460/532/460 339/555/339 475/556/475
f 505/557/505 474/529/474 489/553/489
f 468/534/468 467/530/467 482/554/482 483/541/483
f 461/535/461 460/532/460 475/556/475 476/543/476
f 488/551/488 487/549/487 502/25/502 503/22/503
f 481/552/481 480/550/480 495/4/495 496/3/496
f 489/553/489 488/551/488 503/22/503 504/7/504
f 482/554/482 481/552/481 496/3/496 497/1/497
f 475/556/475 339/558/339 490/13/490
f 505/559/505 489/553/489 504/7/504
f 483/541/483 482/554/482 497/1/497 498/2/498
f 476/543/476 475/556/475 490/13/490 491/18/491
f 484/542/484 483/541/483 498/2/498 499/33/499
f 477/544/477 476/543/476 491/18/491 492/16/492
f 485/545/485 484/542/484 499/33/499 500/31/500
f 478/546/478 477/544/477 492/16/492 493/14/493
f 486/547/486 485/545/485 500/31/500 501/29/501
f 479/548/479 478/546/478 493/14/493 494/9/494
f 487/549/487 486/547/486 501/29/501 502/25/502
f 480/550/480 479/548/479 494/9/494 495/4/495
