# Blender 4.2.2 LTS
# www.blender.org
mtllib powerup.mtl
o Details
v -0.547870 0.101385 -2.724425
v -0.466350 0.304890 -2.724425
v -0.304890 0.466350 -2.724425
v -0.101385 0.547870 -2.724425
v 0.101385 0.547870 -2.724425
v 0.304890 0.466350 -2.724425
v 0.466350 0.304890 -2.724425
v 0.547870 0.101385 -2.724425
v 0.547870 -0.101385 -2.724425
v 0.466350 -0.304890 -2.724425
v 0.304890 -0.466350 -2.724425
v 0.101385 -0.547870 -2.724425
v -0.101384 -0.547870 -2.724425
v -0.304890 -0.466350 -2.724425
v -0.466350 -0.304890 -2.724425
v -0.547870 -0.101385 -2.724425
v -0.986497 0.182553 0.226777
v -0.839712 0.548986 0.226777
v -0.548986 0.839712 0.226777
v -0.182554 0.986497 0.226777
v 0.182553 0.986497 0.226777
v 0.548986 0.839712 0.226777
v 0.839712 0.548986 0.226777
v 0.986497 0.182554 0.226777
v 0.986497 -0.182553 0.226777
v 0.839712 -0.548986 0.226777
v 0.548986 -0.839712 0.226777
v 0.182554 -0.986497 0.226777
v -0.182553 -0.986497 0.226777
v -0.548986 -0.839712 0.226777
v -0.839712 -0.548986 0.226777
v -0.986497 -0.182554 0.226777
v -0.068901 0.012629 2.595591
v -0.058628 0.038274 2.595587
v -0.038274 0.058628 2.595594
v -0.012630 0.068901 2.595594
v 0.012629 0.068901 2.595591
v 0.038274 0.058628 2.595587
v 0.058628 0.038274 2.595594
v 0.068901 0.012629 2.595594
v 0.068901 -0.012629 2.595591
v 0.058628 -0.038274 2.595587
v 0.038274 -0.058628 2.595594
v 0.012629 -0.068901 2.595594
v -0.012629 -0.068901 2.595591
v -0.038274 -0.058628 2.595587
v -0.058628 -0.038274 2.595594
v -0.068901 -0.012629 2.595594
v -0.118325 -0.778757 -1.400532
v -0.238538 -0.755336 -1.483855
v -0.356733 -0.685839 -1.727446
v -0.344773 -0.568103 -2.136860
v -0.266011 -0.518469 -2.308327
v -0.152335 -0.485530 -2.421179
v -0.021051 -0.474300 -2.458236
v 0.107853 -0.486488 -2.413854
v 0.214755 -0.520240 -2.294792
v 0.283378 -0.570418 -2.119176
v 0.271418 -0.688153 -1.709762
v 0.139197 -0.756728 -1.473220
v 0.014318 -0.779245 -1.396798
v 0.076764 -0.862602 -2.432438
v 0.104446 -0.888127 -2.402048
v 0.142647 -0.954481 -2.323945
v 0.151696 -0.992760 -2.279234
v -0.072257 -1.367300 -2.288056
v -0.126305 -1.337711 -2.313618
v -0.166457 -1.283568 -2.358656
v -0.158104 -1.067024 -2.533796
v -0.113805 -1.013630 -2.575733
v -0.057512 -0.985020 -2.597242
v 0.002204 -0.985550 -2.595048
v 0.056253 -1.015138 -2.569487
v 0.103494 -1.252257 -2.376040
v 0.088052 -1.285825 -2.349309
v 0.043752 -1.339219 -2.307372
v -0.012541 -1.367829 -2.285863
v -0.140005 -1.249086 -2.744727
v -0.137051 -1.214340 -2.751202
v -0.118992 -1.150341 -2.762655
v -0.104579 -1.123547 -2.767194
v -0.087273 -1.101647 -2.770698
v -0.067738 -1.085480 -2.773031
v -0.046725 -1.075670 -2.774104
v -0.025041 -1.072592 -2.773876
v -0.003519 -1.076366 -2.772356
v 0.035765 -1.103629 -2.765720
v 0.080157 -1.217839 -2.742414
v 0.210396 -0.749431 -2.153439
v -0.294630 -0.779058 -2.095220
v -0.277257 -0.747220 -2.168138
v -0.174421 -0.671331 -2.340737
v -0.127633 -0.655820 -2.375504
v -0.077410 -0.646366 -2.396269
v -0.025681 -0.643332 -2.402232
v 0.025565 -0.646833 -2.393165
v 0.074360 -0.656736 -2.369416
v 0.157259 -0.693994 -2.282051
v 0.035218 -1.232181 -4.195076
v 0.029054 -1.161873 -4.270807
v 0.033587 -1.206559 -4.241027
v 0.069184 -1.211829 -4.191437
v 0.063532 -1.188628 -4.237811
v 0.094977 -1.174769 -4.185426
v 0.066272 -1.126740 -4.264867
v 0.086000 -1.156375 -4.232569
v 0.073506 -1.074482 -4.256854
v 0.097319 -1.071369 -4.219552
v 0.035680 -1.070493 -4.270235
v 0.050470 -1.028595 -4.250315
v 0.061974 -0.999427 -4.209274
v 0.028901 -1.016495 -4.248857
v 0.031808 -0.982447 -4.207219
v 0.014263 -0.969178 -4.155723
v -0.004196 -0.972003 -4.156465
v 0.004889 -1.016854 -4.249327
v -0.000879 -0.982928 -4.207852
v -0.021898 -0.979827 -4.157954
v -0.030823 -1.000856 -4.211081
v -0.052364 -1.009089 -4.162915
v -0.006684 -1.080984 -4.272553
v -0.063956 -1.029402 -4.166193
v -0.032329 -1.051986 -4.255280
v -0.053292 -1.033105 -4.216349
v -0.077651 -1.077519 -4.173714
v -0.065020 -1.074258 -4.222775
v -0.079227 -1.103474 -4.177665
v -0.039564 -1.104242 -4.263299
v -0.064611 -1.118109 -4.229392
v -0.062569 -1.177084 -4.188478
v -0.052188 -1.158674 -4.235294
v -0.036087 -1.213376 -4.193479
v -0.016528 -1.150132 -4.269823
v -0.029266 -1.190058 -4.239627
v -0.001748 -1.232724 -4.195793
v 0.000900 -1.207040 -4.241663
v 0.005042 -1.162233 -4.271276
v 0.733586 0.286906 -1.400532
v 0.773409 0.171088 -1.483855
v 0.772320 0.033980 -1.727446
v 0.664379 -0.014530 -2.136859
v 0.582013 0.028862 -2.308327
v 0.496649 0.110839 -2.421179
v 0.421281 0.218919 -2.458235
v 0.367385 0.336648 -2.413854
v 0.343164 0.446103 -2.294792
v 0.352307 0.530621 -2.119176
v 0.460249 0.579131 -1.709762
v 0.585747 0.498912 -1.473220
v 0.667687 0.402022 -1.396798
v 0.708654 0.497780 -2.432438
v 0.716917 0.534517 -2.402048
v 0.755281 0.600776 -2.323945
v 0.783907 0.627753 -2.279233
v 1.220245 0.621073 -2.288056
v 1.221645 0.559472 -2.313618
v 1.194831 0.497628 -2.358656
v 1.003122 0.396590 -2.533796
v 0.934732 0.408257 -2.575732
v 0.881808 0.442703 -2.597241
v 0.852409 0.494684 -2.595048
v 0.851009 0.556285 -2.569486
v 1.032740 0.715757 -2.376040
v 1.069532 0.719167 -2.349308
v 1.137922 0.707500 -2.307372
v 1.190846 0.673054 -2.285863
v 1.151743 0.503295 -2.744727
v 1.120175 0.488480 -2.751202
v 1.055721 0.472121 -2.762655
v 1.025310 0.471205 -2.767194
v 0.997691 0.475242 -2.770698
v 0.973923 0.484077 -2.773031
v 0.954920 0.497370 -2.774104
v 0.941413 0.514610 -2.773876
v 0.933920 0.535135 -2.772356
v 0.937888 0.582788 -2.765719
v 1.014601 0.678337 -2.742414
v 0.543829 0.556924 -2.153439
v 0.821999 0.134372 -2.095220
v 0.785740 0.133499 -2.168138
v 0.668600 0.184613 -2.340736
v 0.631774 0.217377 -2.375504
v 0.598475 0.256144 -2.396269
v 0.569982 0.299425 -2.402232
v 0.547392 0.345556 -2.393165
v 0.531571 0.392765 -2.369416
v 0.522387 0.483187 -2.282051
v 1.049491 0.646590 -4.195076
v 0.991685 0.606098 -4.270806
v 1.028117 0.632367 -4.241026
v 1.014883 0.665830 -4.191437
v 0.997617 0.649334 -4.237811
v 0.926724 0.582478 -4.273665
v 0.969892 0.669637 -4.185425
v 0.942650 0.620763 -4.264866
v 0.958450 0.652666 -4.232568
v 0.893776 0.600899 -4.256854
v 0.879174 0.619965 -4.219552
v 0.865555 0.558006 -4.250315
v 0.834543 0.553385 -4.209274
v 0.865860 0.533276 -4.248857
v 0.834920 0.518770 -4.207218
v 0.832201 0.496941 -4.155722
v 0.843877 0.482367 -4.156465
v 0.878178 0.512661 -4.249327
v 0.851681 0.490703 -4.207851
v 0.859504 0.470949 -4.157954
v 0.882178 0.473734 -4.211080
v 0.900078 0.459196 -4.162914
v 0.923466 0.459313 -4.166192
v 0.927211 0.497995 -4.255280
v 0.921342 0.470400 -4.216349
v 0.971984 0.471512 -4.173714
v 0.962845 0.480820 -4.222775
v 0.995251 0.483124 -4.177664
v 0.976084 0.517858 -4.263299
v 1.000616 0.503100 -4.229392
v 1.050669 0.534355 -4.188477
v 1.029536 0.534141 -4.235294
v 0.955298 0.545932 -4.275439
v 1.000228 0.548457 -4.268515
v 1.068858 0.575435 -4.193478
v 1.004308 0.560753 -4.269822
v 1.045253 0.569684 -4.239626
v 1.068445 0.614848 -4.195793
v 1.044878 0.604300 -4.241663
v 1.004002 0.585483 -4.271276
v -0.615261 0.491851 -1.400532
v -0.534872 0.584248 -1.483854
v -0.415588 0.651859 -1.727446
v -0.319605 0.582634 -2.136859
v -0.316002 0.489607 -2.308327
v -0.344313 0.374691 -2.421179
v -0.400230 0.255381 -2.458235
v -0.475238 0.149840 -2.413854
v -0.557919 0.074137 -2.294792
v -0.635685 0.039796 -2.119175
v -0.731667 0.109022 -1.709762
v -0.724944 0.257815 -1.473220
v -0.682005 0.377223 -1.396797
v -0.785417 0.364822 -2.432438
v -0.821364 0.353610 -2.402048
v -0.897928 0.353705 -2.323945
v -0.935603 0.365007 -2.279233
v -1.147988 0.746226 -2.288056
v -1.095339 0.778239 -2.313617
v -1.028374 0.785940 -2.358656
v -0.845018 0.670434 -2.533796
v -0.820927 0.605373 -2.575732
v -0.824297 0.542316 -2.597241
v -0.854613 0.490866 -2.595048
v -0.907262 0.458853 -2.569486
v -1.136234 0.536500 -2.376040
v -1.157583 0.566657 -2.349308
v -1.181674 0.631719 -2.307372
v -1.178304 0.694775 -2.285863
v -1.011738 0.745791 -2.744727
v -0.983124 0.725860 -2.751202
v -0.936729 0.678220 -2.762655
v -0.920731 0.652342 -2.767194
v -0.910417 0.626404 -2.770697
v -0.906185 0.601403 -2.773031
v -0.908195 0.578299 -2.774104
v -0.916372 0.557982 -2.773876
v -0.930401 0.541230 -2.772356
v -0.973653 0.520840 -2.765719
v -1.094758 0.539502 -2.742414
v -0.754225 0.192507 -2.153439
v -0.527369 0.644686 -2.095220
v -0.508483 0.613722 -2.168138
v -0.494179 0.486718 -2.340736
v -0.504141 0.438444 -2.375504
v -0.521065 0.390222 -2.396269
v -0.544301 0.343906 -2.402232
v -0.572957 0.301277 -2.393165
v -0.605930 0.263971 -2.369416
v -0.679646 0.210806 -2.282051
v -1.084709 0.585590 -4.195075
v -1.020739 0.555775 -4.270806
v -1.061704 0.574192 -4.241026
v -1.084067 0.545999 -4.191436
v -1.061148 0.539294 -4.237811
v -1.064869 0.505132 -4.185425
v -1.008921 0.505977 -4.264866
v -1.044450 0.503709 -4.232568
v -0.967282 0.473583 -4.256853
v -0.976492 0.451404 -4.219551
v -0.944914 0.504347 -4.270234
v -0.916025 0.470589 -4.250314
v -0.896516 0.446042 -4.209273
v -0.894761 0.483219 -4.248857
v -0.866728 0.463677 -4.207218
v -0.846465 0.472236 -4.155722
v -0.839681 0.489635 -4.156465
v -0.883066 0.504193 -4.249327
v -0.850801 0.492225 -4.207851
v -0.837606 0.508878 -4.157953
v -0.851355 0.527122 -4.211080
v -0.847715 0.549892 -4.162914
v -0.932817 0.546281 -4.272552
v -0.859510 0.570088 -4.166192
v -0.894882 0.553991 -4.255280
v -0.868049 0.562705 -4.216348
v -0.894333 0.606007 -4.173713
v -0.897825 0.593438 -4.222775
v -0.916023 0.620350 -4.177664
v -0.936520 0.586384 -4.263299
v -0.936005 0.615009 -4.229392
v -0.988100 0.642728 -4.188477
v -0.977347 0.624533 -4.235294
v -1.032770 0.637940 -4.193478
v -0.987780 0.589379 -4.269822
v -1.015987 0.620374 -4.239626
v -1.066696 0.617876 -4.195793
v -1.045778 0.602740 -4.241662
v -1.009044 0.576750 -4.271276
v -0.118325 -0.778757 -1.400532
v -0.238538 -0.755336 -1.483854
v -0.356733 -0.685839 -1.727446
v -0.344773 -0.568103 -2.136859
v -0.266011 -0.518469 -2.308326
v -0.152335 -0.485530 -2.421179
v -0.021051 -0.474299 -2.458235
v 0.107854 -0.486488 -2.413854
v 0.214755 -0.520240 -2.294792
v 0.283378 -0.570417 -2.119175
v 0.271418 -0.688153 -1.709762
v 0.139198 -0.756728 -1.473220
v 0.014318 -0.779245 -1.396797
v 0.076764 -0.862602 -2.432438
v 0.104447 -0.888127 -2.402048
v 0.142647 -0.954481 -2.323945
v 0.151696 -0.992760 -2.279233
v -0.072257 -1.367300 -2.288056
v -0.126305 -1.337711 -2.313617
v -0.166457 -1.283568 -2.358656
v -0.158104 -1.067024 -2.533795
v -0.113805 -1.013630 -2.575732
v -0.057512 -0.985020 -2.597241
v 0.002205 -0.985549 -2.595048
v 0.056253 -1.015138 -2.569486
v 0.103495 -1.252257 -2.376039
v 0.088052 -1.285825 -2.349308
v 0.043752 -1.339219 -2.307371
v -0.012541 -1.367829 -2.285862
v -0.140005 -1.249086 -2.744726
v -0.137051 -1.214340 -2.751201
v -0.118991 -1.150341 -2.762655
v -0.104579 -1.123547 -2.767194
v -0.087273 -1.101646 -2.770697
v -0.067738 -1.085480 -2.773030
v -0.046724 -1.075670 -2.774103
v -0.025040 -1.072592 -2.773875
v -0.003519 -1.076366 -2.772355
v 0.035765 -1.103628 -2.765719
v 0.080157 -1.217839 -2.742413
v 0.210396 -0.749431 -2.153439
v -0.294630 -0.779058 -2.095220
v -0.277257 -0.747220 -2.168138
v -0.174421 -0.671331 -2.340736
v -0.127633 -0.655820 -2.375504
v -0.077410 -0.646366 -2.396269
v -0.025681 -0.643332 -2.402232
v 0.025565 -0.646833 -2.393165
v 0.074360 -0.656736 -2.369416
v 0.157259 -0.693994 -2.282051
v 0.035219 -1.232181 -4.195075
v 0.029054 -1.161873 -4.270806
v 0.033587 -1.206558 -4.241026
v 0.069185 -1.211829 -4.191436
v 0.063532 -1.188628 -4.237810
v 0.041079 -1.093805 -4.273664
v 0.094978 -1.174769 -4.185425
v 0.066272 -1.126740 -4.264866
v 0.086000 -1.156375 -4.232568
v 0.073507 -1.074482 -4.256853
v 0.097319 -1.071369 -4.219551
v 0.050470 -1.028595 -4.250314
v 0.061974 -0.999427 -4.209273
v 0.028901 -1.016495 -4.248857
v 0.031808 -0.982447 -4.207218
v 0.014264 -0.969178 -4.155722
v -0.004196 -0.972003 -4.156464
v 0.004889 -1.016854 -4.249326
v -0.000879 -0.982928 -4.207851
v -0.021898 -0.979827 -4.157953
v -0.030823 -1.000856 -4.211080
v -0.052363 -1.009089 -4.162914
v -0.063956 -1.029401 -4.166192
v -0.032329 -1.051986 -4.255279
v -0.053292 -1.033105 -4.216348
v -0.077651 -1.077519 -4.173713
v -0.065020 -1.074258 -4.222774
v -0.079227 -1.103474 -4.177664
v -0.039563 -1.104242 -4.263298
v -0.064611 -1.118109 -4.229391
v -0.062569 -1.177083 -4.188476
v -0.052188 -1.158674 -4.235293
v -0.001285 -1.104297 -4.275976
v -0.036087 -1.213376 -4.193478
v -0.016528 -1.150132 -4.269821
v -0.029266 -1.190058 -4.239625
v -0.001748 -1.232724 -4.195793
v 0.000901 -1.207040 -4.241662
v 0.005043 -1.162233 -4.271276
v -0.470607 0.329146 -1.322838
v -0.390218 0.421543 -1.406161
v -0.270934 0.489155 -1.649752
v -0.174952 0.419929 -2.059166
v -0.491031 -0.122908 -2.041482
v -0.587013 -0.053683 -1.632068
v -0.580290 0.095111 -1.395527
v -0.537352 0.214518 -1.319104
v 0.733586 0.286906 -1.400532
v 0.773409 0.171088 -1.483855
v 0.772320 0.033980 -1.727446
v 0.664379 -0.014530 -2.136859
v 0.352307 0.530621 -2.119176
v 0.460249 0.579131 -1.709762
v 0.585747 0.498912 -1.473220
v 0.667687 0.402022 -1.396798
v 0.733586 0.286906 -1.400532
v 0.773409 0.171088 -1.483855
v 0.772320 0.033980 -1.727446
v 0.664379 -0.014530 -2.136859
v 0.352307 0.530621 -2.119176
v 0.460249 0.579131 -1.709762
v 0.585747 0.498912 -1.473220
v 0.667687 0.402022 -1.396798
v 0.652656 0.236340 -1.369932
v 0.692480 0.120523 -1.453254
v 0.691391 -0.016586 -1.696846
v 0.583449 -0.065096 -2.106259
v 0.271378 0.480055 -2.088576
v 0.379320 0.528566 -1.679162
v 0.504817 0.448347 -1.442620
v 0.586758 0.351457 -1.366197
v -0.103906 -0.637269 -1.406019
v -0.224118 -0.613849 -1.489342
v -0.342313 -0.544352 -1.732934
v -0.330353 -0.426616 -2.142347
v -0.251592 -0.376982 -2.313814
v -0.137916 -0.344043 -2.426666
v -0.006632 -0.332812 -2.463723
v 0.122273 -0.345001 -2.419342
v 0.229174 -0.378753 -2.300280
v 0.297797 -0.428930 -2.124663
v 0.285838 -0.546666 -1.715250
v 0.153617 -0.615241 -1.478708
v 0.028738 -0.637758 -1.402285
vn 0.5804 0.3830 -0.7186
vn 0.3830 0.5804 -0.7186
vn 0.5473 0.8298 0.1089
vn 0.8298 0.5473 0.1089
vn -0.1880 0.9761 0.1091
vn 0.1880 0.9761 0.1091
vn 0.1313 0.6806 -0.7208
vn -0.1313 0.6806 -0.7208
vn 0.6806 0.1313 -0.7208
vn 0.9761 0.1880 0.1091
vn -0.5804 -0.3830 -0.7186
vn -0.3830 -0.5804 -0.7186
vn -0.5473 -0.8298 0.1089
vn -0.8298 -0.5473 0.1089
vn -0.3351 -0.5077 0.7936
vn -0.5077 -0.3351 0.7937
vn -0.3830 0.5804 -0.7186
vn -0.5804 0.3830 -0.7186
vn -0.8298 0.5473 0.1089
vn -0.5473 0.8298 0.1089
vn -0.9761 0.1880 0.1091
vn -0.6806 0.1313 -0.7208
vn 0.9761 -0.1880 0.1091
vn 0.8298 -0.5473 0.1089
vn 0.5804 -0.3830 -0.7186
vn 0.6806 -0.1313 -0.7208
vn -0.6806 -0.1313 -0.7208
vn -0.9761 -0.1880 0.1091
vn -0.1880 -0.9761 0.1091
vn -0.1313 -0.6806 -0.7208
vn 0.1880 -0.9761 0.1091
vn 0.1313 -0.6806 -0.7208
vn 0.6437 0.2034 -0.7378
vn 0.5111 -0.0997 -0.8537
vn 0.1288 0.1970 -0.9719
vn 0.4047 0.4884 -0.7731
vn -0.3700 -0.5703 -0.7334
vn -0.4387 -0.7192 -0.5387
vn -0.2104 -0.8388 -0.5022
vn -0.1011 -0.8829 -0.4585
vn 0.3730 -0.6637 -0.6483
vn -0.1263 -0.3659 -0.9220
vn -0.1974 -0.7232 -0.6618
vn -0.0660 -0.3485 -0.9350
vn 0.2143 -0.3267 -0.9205
vn 0.2724 -0.7034 -0.6566
vn -0.5949 -0.1149 0.7955
vn -0.5949 0.1149 0.7955
vn 0.3351 0.5077 0.7936
vn 0.5077 0.3351 0.7937
vn 0.1149 0.5949 0.7955
vn -0.2547 -0.9326 0.2559
vn -0.6528 -0.7429 0.1478
vn -0.6548 -0.7262 -0.2094
vn -0.2309 -0.9308 -0.2833
vn -0.5077 0.3351 0.7936
vn -0.3351 0.5077 0.7937
vn 0.6703 -0.7198 -0.1807
vn 0.9312 -0.3535 -0.0886
vn 0.9364 -0.3485 0.0413
vn 0.9029 -0.4228 0.0779
vn 0.6117 -0.7005 0.3676
vn 0.6381 -0.7485 0.1804
vn 0.5949 -0.1149 0.7955
vn 0.5949 0.1149 0.7955
vn 0.5473 -0.8298 0.1089
vn 0.3351 -0.5077 0.7937
vn 0.1149 -0.5949 0.7955
vn 0.5077 -0.3351 0.7936
vn -0.1149 -0.5949 0.7955
vn 0.3554 0.8409 -0.4081
vn 0.1511 0.8693 -0.4706
vn 0.1230 0.9848 -0.1225
vn 0.1356 0.9908 0.0036
vn 0.3931 0.9068 0.1521
vn 0.5387 0.8020 -0.2580
vn 0.4495 0.7885 -0.4197
vn 0.5076 0.8093 -0.2955
vn 0.6021 0.7859 -0.1406
vn 0.5399 0.8393 -0.0637
vn 0.5723 0.7501 -0.3313
vn 0.3830 -0.5804 -0.7186
vn 0.8685 0.4958 0.0013
vn 0.8366 0.4416 -0.3242
vn 0.7375 0.6394 -0.2174
vn 0.8438 0.5136 -0.1555
vn 0.9431 0.1887 -0.2738
vn 0.6916 0.6746 -0.2580
vn -0.2960 0.5573 0.7758
vn 0.0810 0.8441 0.5300
vn -0.3170 0.9368 0.1478
vn -0.6803 0.6868 0.2559
vn 0.0922 0.9935 0.0668
vn 0.0649 0.9795 -0.1905
vn 0.4272 0.8845 -0.1874
vn 0.3742 0.8852 -0.2762
vn -0.1175 0.9134 -0.3897
vn -0.1376 0.9904 -0.0138
vn -0.7302 0.4702 -0.4957
vn -0.7733 0.0415 -0.6327
vn -0.5694 0.0461 -0.8208
vn -0.2687 0.1176 -0.9560
vn -0.2812 0.6853 -0.6718
vn -0.8488 0.3578 -0.3893
vn -0.9225 0.3190 -0.2174
vn -0.9817 0.1285 -0.1406
vn -0.9547 0.0349 -0.2955
vn -0.9077 -0.0049 -0.4197
vn 0.6788 -0.0353 -0.7334
vn 0.8422 -0.0203 -0.5387
vn 0.8316 0.2372 -0.5022
vn 0.8152 0.3539 -0.4585
vn 0.3883 0.6549 -0.6483
vn 0.3801 0.0735 -0.9220
vn 0.8139 0.5557 -0.1695
vn 0.9538 -0.0989 -0.2838
vn 0.9761 0.0386 -0.2140
vn 0.9883 0.0958 -0.1187
vn -0.7613 0.0089 -0.6483
vn -0.7141 0.5290 -0.4585
vn -0.8882 0.4270 -0.1695
vn -0.9796 -0.0723 -0.1874
vn 0.7723 0.3973 -0.4957
vn 0.9398 0.2898 -0.1808
vn 0.7342 0.5562 -0.3893
vn 0.7341 -0.0991 -0.6718
vn 0.9535 -0.2174 -0.2088
vn 0.9820 0.0612 -0.1786
vn -0.6350 0.7224 -0.2738
vn -0.5004 0.4596 -0.7338
vn -0.6140 0.1098 -0.7816
vn -0.9300 0.2616 -0.2580
vn 0.6950 0.6671 0.2683
vn 0.3193 0.3080 0.8962
vn 0.4356 0.1041 0.8941
vn 0.9350 0.2457 0.2559
vn -0.5771 0.8080 -0.1187
vn 0.2555 -0.9278 -0.2717
vn 0.2302 -0.9354 0.2683
vn -0.7889 -0.6143 -0.0138
vn -0.4634 -0.8846 -0.0526
vn -0.4380 -0.8811 -0.1786
vn -0.6650 -0.7170 -0.2088
vn -0.8808 -0.4335 -0.1905
vn -0.9065 -0.4169 0.0668
vn -0.6906 0.6654 -0.2833
vn -0.9313 0.2426 -0.2717
vn -0.9252 0.2683 0.2683
vn -0.5344 0.8436 -0.0526
vn -0.5845 0.7326 -0.3488
vn -0.8007 0.5037 -0.3242
vn -0.8636 0.5042 0.0013
vn -0.8667 0.4740 -0.1555
vn -0.7209 0.6690 -0.1808
vn -0.5440 0.8199 -0.1786
vn 0.0957 0.6086 -0.7877
vn -0.1148 0.1505 -0.9819
vn -0.4753 0.3560 -0.8046
vn -0.1848 0.5850 -0.7897
vn -0.6468 0.1225 0.7527
vn 0.8389 -0.2951 -0.4573
vn 0.5235 -0.1113 -0.8447
vn 0.6482 0.2036 -0.7338
vn -0.6397 -0.5236 -0.5628
vn -0.6802 -0.6924 -0.2406
vn -0.5626 -0.7765 -0.2838
vn -0.5275 -0.3064 -0.7924
vn 0.2041 -0.8205 0.5340
vn -0.2426 -0.8155 0.5254
vn 0.0298 0.0838 -0.9960
vn 0.0175 -0.1564 -0.9875
vn -0.5211 -0.1246 -0.8443
vn -0.4834 -0.2901 -0.8259
vn -0.8962 -0.2369 -0.3751
vn -0.7457 -0.2752 -0.6068
vn -0.9358 0.1205 -0.3313
vn -0.9968 0.0479 -0.0637
vn 0.9187 -0.2120 -0.3332
vn -0.5215 0.8260 -0.2140
vn -0.3912 0.8754 -0.2838
vn -0.2853 0.9325 0.2215
vn -0.0555 0.6462 0.7611
vn -0.1664 0.9852 0.0413
vn -0.1595 0.9832 -0.0886
vn -0.1639 0.8741 -0.4573
vn -0.7453 0.1158 -0.6566
vn -0.7687 -0.2596 -0.5845
vn -0.9585 -0.2206 -0.1807
vn 0.2088 -0.3021 -0.9301
vn 0.6092 -0.5359 -0.5845
vn -0.3146 -0.4150 0.8537
vn -0.7551 -0.3186 0.5730
vn -0.1456 -0.6591 -0.7378
vn -0.3418 -0.3928 -0.8537
vn 0.1062 -0.2100 -0.9719
vn 0.2206 -0.5947 -0.7731
vn -0.9060 -0.1126 -0.4081
vn -0.8284 -0.3037 -0.4706
vn -0.9144 -0.3859 -0.1225
vn -0.9258 -0.3779 0.0036
vn -0.9715 -0.1681 0.1671
vn -0.9605 -0.0678 -0.2700
vn -0.3081 -0.9111 -0.2738
vn 0.2384 -0.9363 -0.2580
vn -0.3015 0.9302 -0.2094
vn -0.1804 0.7783 -0.6014
vn -0.5276 0.5326 -0.6618
vn -0.5838 -0.5454 -0.6014
vn -0.3533 -0.2084 -0.9120
vn -0.0743 -0.3217 -0.9439
vn -0.3574 -0.2240 -0.9067
vn -0.0949 0.0993 -0.9905
vn 0.1486 0.1454 -0.9781
vn 0.1045 0.5856 -0.8039
vn -0.1789 0.5643 -0.8060
vn -0.7323 -0.5585 -0.3897
vn -0.3422 -0.8725 -0.3488
vn -0.4023 -0.4365 -0.8048
vn -0.0739 -0.5768 -0.8135
vn -0.0359 -0.9453 -0.3242
vn -0.8996 -0.4352 0.0373
vn 0.3243 0.4938 -0.8069
vn -0.0039 0.4102 -0.9120
vn -0.1149 0.5949 0.7955
vn -0.6751 -0.5789 -0.4573
vn 0.7665 -0.2341 -0.5980
vn 0.3569 -0.1339 -0.9245
vn 0.3383 0.1046 -0.9352
vn 0.7250 0.1906 -0.6618
vn 0.5795 -0.7667 -0.2762
vn 0.4792 -0.3872 -0.7877
vn 0.5990 -0.1325 -0.7897
vn 0.8498 -0.3549 -0.3897
vn 0.2882 0.9404 -0.1807
vn 0.1707 0.4992 0.8495
vn 0.3291 0.9269 0.1804
vn -0.0421 -0.8675 -0.4957
vn 0.3507 -0.6904 -0.6327
vn 0.2448 -0.5161 -0.8208
vn 0.0325 -0.2915 -0.9560
vn -0.4529 -0.5862 -0.6718
vn -0.0874 -0.0161 -0.9960
vn -0.2537 0.2924 -0.9220
vn -0.4112 -0.9038 -0.1187
vn -0.4546 -0.8646 -0.2140
vn -0.7953 -0.5949 0.1167
vn -0.7700 -0.6367 0.0413
vn -0.7717 -0.6297 -0.0886
vn 0.0743 -0.9827 -0.1695
vn -0.2885 0.9344 -0.2088
vn -0.9673 -0.1784 0.1804
vn -0.8266 -0.2881 0.4835
vn -0.0049 -1.0000 0.0013
vn 0.3635 -0.8707 -0.3313
vn 0.4569 -0.8872 -0.0637
vn 0.3796 -0.9144 -0.1406
vn 0.1849 -0.9584 -0.2174
vn 0.0229 -0.9876 -0.1555
vn 0.8160 -0.1942 -0.5444
vn 0.9566 -0.1576 -0.2453
vn 0.5434 -0.1886 -0.8180
vn -0.9538 -0.1185 -0.2762
vn 0.6758 0.6852 -0.2717
vn -0.0451 -0.1484 -0.9879
vn 0.3262 -0.2890 -0.9000
vn 0.2574 -0.5383 -0.8025
vn 0.5291 -0.3036 -0.7924
vn 0.0283 -0.2915 -0.9561
vn 0.5262 -0.1187 0.8420
vn 0.9698 -0.1939 0.1478
vn 0.4929 -0.2736 -0.8259
vn 0.4581 -0.7836 -0.4197
vn 0.6932 -0.6979 0.1801
vn 0.6112 -0.5082 -0.6068
vn 0.9478 -0.2542 0.1924
vn -0.2190 -0.9588 -0.1808
vn 0.6820 -0.5672 -0.4617
vn 0.5535 -0.7289 -0.4028
vn 0.7914 -0.5990 -0.1225
vn 0.9563 -0.2040 -0.2094
vn -0.1952 0.0512 -0.9794
vn -0.1635 0.5028 -0.8488
vn 0.1798 0.3382 -0.9237
vn 0.4729 0.5876 -0.6566
vn -0.4623 0.3474 -0.8159
vn 0.1877 0.0241 -0.9819
vn 0.5459 0.2337 -0.8046
vn 0.4010 0.4752 -0.7832
vn 0.7902 -0.6128 0.0036
vn 0.5517 -0.3747 0.7452
vn 0.4471 -0.8443 -0.2955
vn -0.5850 0.0352 -0.8103
vn -0.5622 -0.2017 -0.8020
vn 0.4225 0.6490 -0.6327
vn 0.3246 0.4700 -0.8208
vn 0.2362 0.1739 -0.9560
vn 0.0576 -0.0677 -0.9960
vn -0.8126 -0.0967 -0.5748
vn 0.9216 0.2654 -0.2833
vn -0.6212 0.6016 -0.5022
vn -0.4035 0.7396 -0.5387
vn -0.3089 0.6055 -0.7334
vn 0.5524 -0.8122 -0.1874
vn -0.6373 -0.6905 0.3422
vn 0.2383 0.1703 -0.9561
vn -0.0096 0.5637 -0.8259
vn 0.3087 0.7698 -0.5587
vn 0.9978 0.0410 -0.0526
vn 0.9265 -0.3761 -0.0138
vn 0.9267 0.1399 -0.3488
vn 0.1595 0.7955 -0.5845
vn -0.5898 0.0339 -0.8069
vn 0.7733 -0.2922 -0.5628
vn 0.7041 -0.3893 0.5938
vn -0.3661 -0.0298 -0.9301
vn -0.2414 0.2252 -0.9439
vn 0.1145 -0.9140 -0.3893
vn -0.2666 0.1212 -0.9561
vn 0.8158 -0.5460 -0.1905
vn 0.8143 -0.5766 0.0668
vn -0.1336 0.8158 -0.5628
vn -0.0017 0.6100 -0.7924
vn 0.2435 -0.4416 0.8635
vn -0.7415 -0.4032 0.5363
vn -0.5210 -0.0565 0.8517
vn -0.7325 -0.6784 -0.0570
vn -0.7734 -0.6159 0.1502
vn 0.6461 0.7092 0.2823
vn 0.7579 0.6506 -0.0486
vn -0.0945 0.3593 0.9284
vn 0.3537 0.6401 0.6820
vn -0.0000 -0.0000 1.0000
vn -0.3574 0.5870 0.7264
vn -0.2765 0.5364 0.7974
vn 0.0552 0.1896 0.9803
vn 0.2104 -0.0626 0.9756
vn -0.1140 0.3954 0.9114
vn 0.3664 -0.5160 0.7743
vn 0.4476 -0.8489 0.2811
vn 0.3171 -0.3074 0.8972
vn -0.5197 0.8536 0.0359
vn -0.4394 0.8601 0.2591
vn 0.1182 0.3687 0.9220
vn 0.4207 -0.1300 0.8978
vn -0.2031 0.7240 0.6592
vn 0.5705 -0.7996 0.1874
vn 0.4707 -0.8634 -0.1817
vn 0.5745 -0.5560 0.6006
vn 0.3758 -0.8393 -0.3929
vn 0.0445 -0.0432 -0.9981
vn 0.5264 -0.0865 -0.8458
vn -0.8047 0.0591 -0.5908
vn -0.4703 0.0137 -0.8824
vn -0.9655 0.0889 -0.2448
vn 0.7600 -0.0523 0.6478
vn 0.2902 0.0075 0.9569
vn -0.3039 0.0678 0.9503
vn -0.7587 0.1023 0.6434
vn 0.9660 -0.1076 -0.2352
vn 0.9771 -0.0921 0.1920
vn 0.8196 -0.1054 -0.5632
vn -0.9750 0.1069 0.1949
vt 0.147612 0.646887
vt 0.175150 0.642143
vt 0.124812 0.297030
vt 0.075227 0.305571
vt 0.430007 0.264978
vt 0.398738 0.276496
vt 0.488029 0.626234
vt 0.505395 0.619838
vt 0.123238 0.649431
vt 0.031339 0.310153
vt 0.223508 0.613471
vt 0.251041 0.618049
vt 0.322978 0.260490
vt 0.273403 0.252247
vt 0.351489 0.000807
vt 0.348018 0.000229
vt 0.529845 0.614292
vt 0.557581 0.610929
vt 0.523974 0.248938
vt 0.474033 0.254993
vt 0.568109 0.248236
vt 0.582092 0.610539
vt 0.768945 0.310816
vt 0.725922 0.307044
vt 0.651784 0.646785
vt 0.675677 0.648880
vt 0.199389 0.611657
vt 0.229973 0.248981
vt 0.367063 0.271773
vt 0.275524 0.624315
vt 0.599559 0.252149
vt 0.599559 0.612713
vt 0.398738 0.283611
vt 0.293115 0.630890
vt 0.392408 0.715420
vt 0.392377 0.708977
vt 0.387487 0.715044
vt 0.389081 0.720405
vt 0.855170 0.116584
vt 0.853777 0.103747
vt 0.828146 0.116497
vt 0.830157 0.121116
vt 0.810195 0.135770
vt 0.812020 0.140465
vt 0.854812 0.120663
vt 0.185699 0.675904
vt 0.184010 0.681409
vt 0.186746 0.682002
vt 0.189424 0.676709
vt 0.344979 0.000000
vt 0.342863 0.000103
vt 0.199389 0.250468
vt 0.051509 0.001447
vt 0.048037 0.002044
vt 0.054563 0.000712
vt 0.168456 0.286533
vt 0.486560 0.733050
vt 0.478755 0.733631
vt 0.413755 0.953274
vt 0.418147 0.955044
vt 0.465308 0.000050
vt 0.461811 0.000473
vt 0.468397 0.000000
vt 0.566300 0.969155
vt 0.571328 0.967066
vt 0.514261 0.754392
vt 0.518921 0.756345
vt 0.559531 0.658374
vt 0.535892 0.633645
vt 0.505028 0.751491
vt 0.042798 0.002396
vt -0.000000 0.310599
vt 0.044966 0.002364
vt 0.631886 0.288550
vt 0.676358 0.298992
vt 0.744171 0.001464
vt 0.741058 0.000733
vt 0.750652 0.002292
vt 0.747641 0.002028
vt 0.738822 -0.000000
vt 0.599559 0.277951
vt 0.354574 0.001596
vt 0.615554 0.947165
vt 0.619902 0.948197
vt 0.623274 0.943129
vt 0.674950 0.728848
vt 0.621909 0.648880
vt 0.599559 0.695663
vt 0.618325 0.700555
vt 0.623982 0.692736
vt 0.658207 0.773953
vt 0.662512 0.773773
vt 0.615235 0.941108
vt 0.612210 0.940208
vt 0.610523 0.945722
vt 0.117634 0.751992
vt 0.126354 0.728816
vt 0.126354 0.702027
vt 0.115964 0.676583
vt 0.097622 0.658456
vt 0.075854 0.649679
vt 0.050501 0.650187
vt 0.026223 0.661652
vt 0.008720 0.681384
vt 0.000000 0.704560
vt 0.000000 0.731349
vt 0.010390 0.756792
vt 0.028732 0.774919
vt 0.050501 0.783697
vt 0.075854 0.783188
vt 0.100131 0.771723
vt 0.606330 0.938270
vt 0.605493 0.944065
vt 0.649962 0.773938
vt 0.646339 0.773744
vt 0.603699 0.937306
vt 0.751880 0.893388
vt 0.753892 0.897464
vt 0.759791 0.896749
vt 0.761060 0.892276
vt 0.913713 -0.000000
vt 0.897325 0.006711
vt 0.915470 0.094291
vt 0.923339 0.092250
vt 0.599559 0.636515
vt 0.624257 0.642314
vt 0.803117 0.918734
vt 0.790712 0.750069
vt 0.788495 0.750209
vt 0.800710 0.925118
vt 0.803538 0.924640
vt 0.804499 0.918486
vt 0.158009 0.715565
vt 0.137708 0.677235
vt 0.131869 0.681517
vt 0.126354 0.684359
vt 0.150367 0.718030
vt 0.904925 0.736846
vt 0.905989 0.766808
vt 0.912981 0.767037
vt 0.897927 0.674981
vt 0.893033 0.682931
vt 0.875833 0.702537
vt 0.896134 0.740868
vt 0.088422 0.825178
vt 0.101138 0.819308
vt 0.088743 0.797176
vt 0.084555 0.800743
vt 0.075563 0.783697
vt 0.068549 0.787840
vt 0.081926 0.826877
vt 0.782693 0.749792
vt 0.787441 0.727316
vt 0.797949 0.712635
vt 0.793191 0.709171
vt 0.804499 0.697511
vt 0.794459 0.682306
vt 0.783786 0.699708
vt 0.779502 0.694073
vt 0.768945 0.746573
vt 0.332392 0.749128
vt 0.326394 0.746150
vt 0.322932 0.772370
vt 0.327588 0.772951
vt 0.637421 0.749456
vt 0.643238 0.773435
vt 0.645699 0.746275
vt 0.833017 0.749912
vt 0.826663 0.766389
vt 0.829015 0.767966
vt 0.831098 0.770193
vt 0.839634 0.753737
vt 0.367954 0.936972
vt 0.369543 0.941869
vt 0.375355 0.939915
vt 0.377039 0.933890
vt 0.686939 0.768881
vt 0.695761 0.648880
vt 0.680268 0.650505
vt 0.679981 0.769667
vt 0.307731 0.772954
vt 0.269466 0.975135
vt 0.274059 0.973811
vt 0.212787 0.756146
vt 0.204840 0.754930
vt 0.813421 0.876437
vt 0.815786 0.876554
vt 0.817500 0.712535
vt 0.814688 0.712725
vt 0.812054 0.712916
vt 0.811167 0.876529
vt 0.885446 0.320112
vt 0.889650 0.321126
vt 0.930206 0.093737
vt 0.869597 0.928346
vt 0.871609 0.935115
vt 0.876232 0.936363
vt 0.877382 0.930183
vt 0.874701 0.929369
vt 0.902445 0.766771
vt 0.899051 0.766788
vt 0.895938 0.766858
vt 0.386435 0.721366
vt 0.382810 0.712815
vt 0.379983 0.715702
vt 0.383699 0.720773
vt 0.928916 0.003450
vt 0.194644 0.683936
vt 0.190461 0.687073
vt 0.190493 0.693516
vt 0.194644 0.694406
vt 0.875898 0.106456
vt 0.873387 0.083214
vt 0.849792 0.086393
vt 0.875934 0.123571
vt 0.497081 0.750274
vt 0.520593 0.626234
vt 0.508402 0.627574
vt 0.491630 0.750927
vt 0.061561 0.788225
vt 0.069899 0.827480
vt 0.075672 0.827654
vt 0.075379 0.848816
vt 0.064830 0.826360
vt 0.061561 0.847713
vt 0.867423 0.452317
vt 0.885240 0.448858
vt 0.883807 0.442997
vt 0.887331 0.419230
vt 0.867765 0.412023
vt 0.864479 0.434788
vt 0.139257 0.904881
vt 0.138107 0.911061
vt 0.142479 0.912839
vt 0.144367 0.906961
vt 0.146600 0.908146
vt 0.178036 0.741918
vt 0.174856 0.741735
vt 0.167864 0.741506
vt 0.164320 0.741468
vt 0.136576 0.904067
vt 0.528934 0.798554
vt 0.540393 0.736183
vt 0.543603 0.740271
vt 0.560865 0.713058
vt 0.580220 0.702706
vt 0.573112 0.972085
vt 0.580220 0.967714
vt 0.316938 0.709988
vt 0.322935 0.713912
vt 0.338757 0.685391
vt 0.355518 0.673373
vt 0.330320 0.630890
vt 0.292053 0.731628
vt 0.287979 0.730108
vt 0.355278 0.936890
vt 0.359088 0.941820
vt 0.768945 0.327331
vt 0.771531 0.333224
vt 0.774505 0.332421
vt 0.772320 0.326422
vt 0.391340 0.698613
vt 0.388662 0.703905
vt 0.396560 0.705840
vt 0.394486 0.701452
vt -0.000000 0.788225
vt 0.008339 0.827480
vt 0.014111 0.827654
vt 0.020365 0.826877
vt 0.006988 0.787840
vt 0.462759 0.626234
vt 0.448076 0.630769
vt 0.379951 0.687283
vt 0.381932 0.693425
vt 0.384333 0.686645
vt 0.381742 0.681348
vt 0.402225 0.955796
vt 0.406458 0.957175
vt 0.408684 0.951440
vt 0.469404 0.736914
vt 0.424409 0.653632
vt 0.402023 0.700735
vt 0.421590 0.707942
vt 0.425223 0.698975
vt 0.453084 0.783016
vt 0.455963 0.782308
vt 0.401496 0.949170
vt 0.399583 0.948660
vt 0.398738 0.954816
vt 0.789542 0.331154
vt 0.788187 0.336102
vt 0.793085 0.336496
vt 0.797242 0.331751
vt 0.880821 0.319253
vt 0.879693 0.325351
vt 0.883756 0.326106
vt 0.876585 0.670050
vt 0.873302 0.673869
vt 0.876056 0.674981
vt 0.880443 0.671606
vt 0.181363 0.682370
vt 0.181865 0.688234
vt 0.186542 0.690464
vt 0.864479 0.934949
vt 0.867127 0.940807
vt 0.869321 0.940561
vt 0.867465 0.934613
vt 0.813750 0.882871
vt 0.817938 0.883258
vt 0.276493 0.978560
vt 0.280871 0.976741
vt 0.279087 0.971722
vt 0.814638 0.888659
vt 0.820357 0.889655
vt 0.821831 0.884303
vt 0.867967 0.667085
vt 0.872199 0.668463
vt 0.874426 0.662728
vt 0.935145 0.448202
vt 0.890150 0.364920
vt 0.890964 0.410263
vt 0.918825 0.494304
vt 0.921704 0.493596
vt 0.867237 0.660458
vt 0.865324 0.659948
vt 0.864479 0.666104
vt 0.397055 0.693618
vt 0.397685 0.688519
vt 0.394169 0.688779
vt 0.392378 0.694713
vt 0.394969 0.697808
vt 0.458730 0.001171
vt 0.778999 0.331749
vt 0.781698 0.336476
vt 0.180866 0.656491
vt 0.184224 0.661488
vt 0.186500 0.659485
vt 0.184048 0.653683
vt 0.887473 0.327002
vt 0.383214 0.673997
vt 0.384076 0.679499
vt 0.386969 0.679101
vt 0.387151 0.673454
vt 0.383279 0.704273
vt 0.385925 0.703313
vt 0.729265 0.993465
vt 0.733377 0.991692
vt 0.702264 0.773782
vt 0.705529 0.776110
vt 0.733377 0.682135
vt 0.712241 0.656438
vt 0.694764 0.770326
vt 0.045223 0.848816
vt 0.026784 0.880626
vt 0.032911 0.884060
vt 0.039217 0.886353
vt 0.051950 0.853443
vt 0.045460 0.887417
vt 0.051401 0.887210
vt 0.059011 0.853896
vt 0.785136 0.152992
vt 0.818092 0.099266
vt 0.821995 0.105358
vt 0.862789 0.032893
vt 0.785017 0.108208
vt 0.780848 0.104883
vt 0.777484 0.325652
vt 0.797315 0.158409
vt 0.414701 0.960318
vt 0.417393 0.961589
vt 0.421191 0.956482
vt 0.160926 0.741486
vt 0.166800 0.711544
vt 0.888492 0.743332
vt 0.893224 0.766980
vt 0.773677 0.100109
vt 0.853209 0.006636
vt 0.847847 -0.000000
vt 0.768945 0.098399
vt 0.145038 0.718562
vt 0.151271 0.742053
vt 0.152890 0.741845
vt 0.155099 0.741678
vt 0.952301 0.444338
vt 0.944497 0.444919
vt 0.879496 0.664562
vt 0.883888 0.666332
vt 0.883163 0.743864
vt 0.889395 0.767355
vt 0.891015 0.767147
vt 0.770876 0.668905
vt 0.770137 0.674755
vt 0.774381 0.677020
vt 0.775838 0.671554
vt 0.778680 0.672891
vt 0.835616 0.510690
vt 0.831493 0.510266
vt 0.824262 0.509258
vt 0.821432 0.508712
vt 0.768945 0.667695
vt 0.108696 0.840327
vt 0.123122 0.832028
vt 0.111884 0.810939
vt 0.091931 0.846222
vt 0.809699 0.713101
vt 0.809940 0.883216
vt 0.129246 0.902876
vt 0.131472 0.903044
vt 0.157813 0.741556
vt 0.127354 0.902948
vt 0.724688 0.994656
vt 0.184096 0.673036
vt 0.186868 0.667089
vt 0.183400 0.662836
vt 0.182362 0.667350
vt 0.875934 0.033206
vt 0.907799 0.099550
vt 0.876477 0.318679
vt 0.030370 0.846222
vt 0.026861 0.825178
vt 0.013818 0.848816
vt 0.821053 0.337522
vt 0.812580 0.348160
vt 0.858814 0.462923
vt 0.864479 0.460160
vt 0.003269 0.826360
vt -0.000000 0.847713
vt 0.028216 0.905326
vt 0.011747 0.864983
vt -0.000000 0.884313
vt 0.012583 0.896599
vt 0.236693 0.803210
vt 0.248152 0.740839
vt 0.251362 0.744926
vt 0.268623 0.717714
vt 0.287979 0.707362
vt 0.267290 0.663030
vt 0.226680 0.761001
vt 0.222019 0.759048
vt 0.287979 0.972369
vt 0.561708 0.970479
vt 0.564687 0.975073
vt 0.568735 0.973905
vt 0.199389 0.276253
vt 0.056703 0.000000
vt 0.129340 0.909311
vt 0.131196 0.915258
vt 0.137382 0.916477
vt 0.133484 0.909813
vt 0.811409 0.689418
vt 0.820382 0.712355
vt 0.818930 0.686732
vt 0.396560 0.716310
vt 0.178767 0.660712
vt 0.178036 0.665659
vt 0.787335 0.676346
vt 0.784130 0.681082
vt 0.788267 0.682305
vt 0.792120 0.677760
vt 0.192271 0.666463
vt 0.194165 0.661684
vt 0.189272 0.658816
vt 0.762706 0.896332
vt 0.765142 0.891692
vt 0.187821 0.652772
vt 0.875507 0.941780
vt 0.389646 0.687127
vt 0.392188 0.682636
vt 0.606404 0.948514
vt 0.612596 0.950426
vt 0.187166 0.698501
vt 0.779268 0.679229
vt 0.850128 0.466971
vt 0.794163 0.376027
vt 0.768945 0.419945
vt 0.790611 0.428564
vt 0.795936 0.421308
vt 0.402022 0.960670
vt 0.407560 0.962581
vt 0.410844 0.958762
vt 0.747125 0.716367
vt 0.752927 0.716783
vt 0.410315 0.963693
vt 0.126354 0.909647
vt 0.129002 0.915505
vt 0.191760 0.675235
vt 0.194036 0.673232
vt 0.188988 0.675904
vt 0.159802 0.649679
vt 0.154908 0.657629
vt 0.857667 0.707477
vt 0.851691 0.705851
vt 0.845463 0.704338
vt 0.839223 0.702996
vt 0.833211 0.701877
vt 0.825915 0.748500
vt 0.401682 0.741029
vt 0.419499 0.737569
vt 0.418065 0.731709
vt 0.398738 0.723499
vt 0.886933 0.667771
vt 0.957371 0.446549
vt 0.181552 0.700792
vt 0.179366 0.702978
vt 0.178036 0.706087
vt 0.178036 0.709610
vt 0.179366 0.712719
vt 0.181552 0.714905
vt 0.184661 0.716236
vt 0.188184 0.716236
vt 0.191293 0.714905
vt 0.193479 0.712719
vt 0.194810 0.709610
vt 0.194810 0.706087
vt 0.193479 0.702978
vt 0.191293 0.700792
vt 0.188184 0.699462
vt 0.184661 0.699462
vt 0.796628 0.925702
vt 0.795359 0.930174
vt 0.798274 0.929758
vt 0.272446 0.979728
vt 0.759265 0.696369
vt 0.751873 0.693890
vt 0.804499 0.689955
vt 0.199389 0.636313
vt 0.720344 0.995085
vt 0.880604 0.938141
vt 0.882492 0.932263
vt 0.884725 0.933448
vt 0.916161 0.767220
vt 0.767549 0.885309
vt 0.755144 0.716643
vt 0.767970 0.891215
vt 0.768931 0.885060
vt 0.867371 0.928178
vt 0.865479 0.928250
vt 0.338895 0.724383
vt 0.334128 0.721250
vt 0.350741 0.699245
vt 0.360460 0.709645
vt 0.363988 0.713027
vt 0.580220 0.648092
vt 0.584680 0.824447
vt 0.588844 0.824248
vt 0.585869 0.649052
vt 0.928500 0.337522
vt 0.913817 0.342057
vt 0.044519 0.909166
vt 0.383947 0.673454
vt 0.396383 0.668453
vt 0.394200 0.661793
vt 0.396383 0.636548
vt 0.383346 0.630890
vt 0.379951 0.654307
vt 0.595047 0.817878
vt 0.593309 0.818000
vt 0.592607 0.824027
vt 0.595361 0.823820
vt 0.352146 0.939476
vt 0.356363 0.944072
vt 0.394516 0.678518
vt 0.391130 0.675057
vt 0.364102 0.944856
vt 0.867763 0.671958
vt 0.875934 0.324853
vt 0.807120 0.884234
vt 0.809821 0.889637
vt 0.811840 0.888912
vt 0.883134 0.672878
vt 0.047135 0.840328
vt 0.061561 0.832028
vt 0.050323 0.810939
vt 0.039577 0.819308
vt 0.491630 0.735261
vt 0.142243 0.918818
vt 0.145974 0.914874
vt 0.178036 0.687355
vt 0.178068 0.693798
vt 0.243651 0.638300
vt 0.181657 0.649679
vt 0.178036 0.652878
vt 0.733377 0.713148
vt 0.387151 0.696961
vt 0.390044 0.696563
vt 0.820220 0.480256
vt 0.779658 0.444875
vt 0.814054 0.482806
vt 0.840685 0.685505
vt 0.856880 0.688530
vt 0.195899 0.667370
vt 0.869994 0.706820
vt 0.864479 0.709662
vt 0.192570 0.679548
vt 0.603280 0.717640
vt 0.027182 0.797176
vt 0.022994 0.800743
vt 0.014002 0.783697
vt 0.794833 0.729794
vt 0.588428 0.629391
vt 0.580935 0.626234
vt 0.823223 0.712190
vt 0.825915 0.712047
vt 0.825915 0.682305
vt 0.105833 0.649679
vt 0.588513 0.649116
vt 0.590898 0.648895
vt 0.595361 0.629139
vt 0.674949 0.772565
vt 0.716894 0.994687
vt 0.892790 0.322141
vt 0.935027 0.098525
vt 0.591285 0.818125
vt 0.787448 0.926814
vt 0.592934 0.648398
vt 0.368849 0.693143
vt 0.379951 0.707813
vt 0.228352 0.630890
vt 0.216161 0.632229
vt 0.199389 0.755583
vt 0.059011 0.907535
vt 0.056811 0.885742
vt 0.825915 0.682305
vt 0.827657 0.701024
vt 0.762381 0.679209
vt 0.757623 0.675745
vt 0.768931 0.664085
vt 0.758891 0.648880
vt 0.748219 0.666283
vt 0.743934 0.660647
vt 0.725978 0.999620
vt 0.730013 0.998569
vt 0.822642 0.878078
vt 0.820487 0.877391
vt 0.194725 0.656890
vt 0.191580 0.653912
vt 0.180804 0.674922
vt 0.178744 0.670622
vt 0.379951 0.709259
vt 0.789460 0.930890
vt 0.379951 0.676591
vt 0.881826 0.330661
vt 0.884556 0.331319
vt 0.599559 0.935574
vt 0.601213 0.942434
vt 0.640780 0.773021
vt 0.776455 0.337522
vt 0.880368 0.944120
vt 0.884099 0.940176
vt 0.379951 0.933660
vt 0.878923 0.330120
vt 0.722137 1.000000
vt 0.387615 0.697808
vt 0.184519 0.699462
vt 0.181783 0.698869
vt 0.000000 0.000000
s 1
usemtl NerfTexture
f 7/1/1 6/2/2 22/3/3 23/4/4
f 20/5/5 21/6/6 5/7/7 4/8/8
f 8/9/9 7/1/1 23/4/4 24/10/10
f 15/11/11 14/12/12 30/13/13 31/14/14
f 46/15/15 47/16/16 31/14/14 30/13/13
f 3/17/17 2/18/18 18/19/19 19/20/20
f 17/21/21 18/19/19 2/18/18 1/22/22
f 4/8/8 3/17/17 19/20/20 20/5/5
f 25/23/23 26/24/24 10/25/25 9/26/26
f 16/27/27 15/11/11 31/14/14 32/28/28
f 29/29/29 30/13/13 14/12/12 13/30/30
f 32/31/28 17/21/21 1/22/22 16/32/27
f 28/33/31 29/29/29 13/30/30 12/34/32
f 107/35/33 105/36/34 109/37/35 110/38/36
f 276/39/37 277/40/38 242/41/39 241/42/39 252/43/40 251/44/41 275/45/42
f 404/46/43 405/47/44 368/48/45 369/49/46
f 48/50/47 33/51/48 17/52/21 32/28/28
f 38/53/49 39/54/50 23/4/4 22/3/3
f 37/55/51 38/53/49 22/3/3 21/56/6
f 334/57/52 335/58/53 400/59/54 403/60/55
f 19/20/20 18/19/19 34/61/56 35/62/57
f 33/63/48 34/61/56 18/19/19 17/21/21
f 102/64/58 104/65/59 75/66/60 74/67/60 59/68/61 60/69/62 76/70/63
f 41/71/64 25/72/23 24/10/10 40/73/65
f 28/74/31 27/75/66 43/76/67 44/77/68
f 41/78/64 42/79/69 26/24/24 25/23/23
f 45/80/70 29/81/29 28/74/31 44/77/68
f 24/10/10 23/4/4 39/54/50 40/73/65
f 45/82/70 46/15/15 30/13/13 29/29/29
f 308/83/71 310/84/72 309/85/73 247/86/74 230/87/75 231/88/76 270/89/77 269/90/78 258/91/79 257/92/80 306/93/80 304/94/80 305/95/81
f 16/96/27 1/97/22 2/98/18 3/99/17 4/100/8 5/101/7 6/102/2 7/103/1 8/104/9 9/105/26 10/106/25 11/107/82 12/108/32 13/109/30 14/110/12 15/111/11
f 301/112/83 303/113/84 305/95/81 304/94/80 306/93/80 257/92/80 258/91/79 259/114/85 260/115/86 299/116/83
f 108/117/87 107/118/33 110/119/36 111/120/88
f 228/121/89 229/122/90 246/123/91 245/124/92
f 12/125/32 11/126/82 27/75/66 28/74/31
f 382/127/93 353/128/94 354/129/95 381/130/96 385/131/97 383/132/98
f 70/133/99 92/134/100 93/135/101 94/136/102 71/137/103
f 337/138/104 348/139/105 347/140/106 358/141/107 359/142/108 360/143/100 338/144/99
f 365/145/109 366/146/110 331/147/111 330/148/111 341/149/112 340/150/113 364/151/114
f 355/152/115 341/153/112 330/154/111 331/155/111 366/156/110 357/157/116 332/158/117 333/159/117 356/160/118
f 161/161/119 162/162/120 176/163/121 175/164/122
f 249/165/123 261/166/124 260/115/86 259/114/85 248/167/125
f 250/168/126 263/169/127 262/170/128 261/171/124 249/172/123
f 198/173/129 197/174/130 199/175/131 200/176/132
f 166/177/133 150/178/134 138/179/135 155/180/136
f 176/163/121 177/181/137 198/173/129 200/176/132
f 367/182/138 370/183/58 344/184/63 345/185/139
f 204/186/140 207/187/141 172/188/142 173/189/143 174/190/144 203/191/145
f 314/192/146 278/193/147 256/194/148 245/124/92
f 386/195/149 387/196/150 391/197/151 389/198/152 388/199/152 349/200/153 350/201/154 351/202/155
f 112/203/156 110/38/36 109/37/35 121/204/157 123/205/158 116/206/159
f 256/194/148 240/207/160 228/121/89 245/124/92
f 375/208/161 374/209/162 376/210/163 377/211/87
f 236/212/164 237/213/165 268/214/166 277/40/38 276/39/37 235/215/167
f 77/216/139 61/217/168 49/218/169 66/219/52
f 339/220/103 362/221/102 363/222/170 364/151/114 340/150/113
f 323/223/171 363/222/170 362/221/102 361/224/101 322/225/172
f 54/226/173 93/227/101 92/228/100 91/229/108 52/230/174 53/231/175
f 122/232/152 124/233/151 126/234/176 125/235/177 127/236/177 78/237/177 79/238/106 80/239/105 81/240/153 120/241/152
f 88/242/118 65/243/117 64/244/117 89/245/116 58/246/178 59/68/61 74/67/60 75/66/60 104/65/59 106/247/161 108/248/87
f 177/181/137 154/249/179 153/250/179 178/251/180 147/252/181 148/253/182 163/254/183 164/255/183 194/256/184 196/257/185 198/173/129
f 278/258/147 280/259/186 282/260/187 281/261/188
f 101/262/46 100/263/189 105/36/34 106/264/161 103/265/190
f 71/266/103 94/267/102 95/268/170 96/269/114 72/270/113
f 317/271/191 318/272/192 335/58/53 334/57/52
f 286/273/193 284/274/194 288/275/195 289/276/196
f 396/277/197 398/278/198 397/279/199 336/280/200 319/281/201 320/282/202 359/283/108 358/284/107 347/285/106 346/286/177 394/287/177 392/288/177 393/289/176
f 287/290/203 286/291/193 289/292/196 290/293/204
f 314/192/146 311/294/205 313/295/206 315/296/207
f 134/297/208 133/298/209 137/299/210 136/300/43
f 401/301/211 399/302/212 372/303/213 374/209/162 368/48/45 405/47/44
f 381/304/96 380/305/214 384/306/215 385/307/97
f 207/187/141 204/186/140 206/308/216 208/309/217
f 370/183/58 371/310/190 375/311/161 373/312/59
f 206/308/216 205/313/218 211/314/219 212/315/220 208/309/217
f 129/316/197 131/317/198 130/318/199 68/319/200 51/320/221 52/230/174 91/229/108 90/321/107 79/322/106 78/323/177 127/324/177 125/325/177 126/326/176
f 310/327/72 308/328/71 307/329/222 312/330/223 313/331/206
f 20/5/5 19/20/20 35/62/57 36/332/224
f 285/333/225 284/334/194 286/291/193 287/290/203
f 224/335/226 223/336/227 227/337/228 226/338/229
f 314/192/146 315/296/207 280/339/186 278/193/147
f 292/340/230 291/341/231 295/342/232 296/343/233
f 133/344/209 121/204/157 109/37/35 105/36/34 100/263/189 137/345/210
f 76/70/63 60/69/62 61/217/168 77/216/139
f 191/346/234 194/347/184 164/348/183 163/349/183 148/350/182 149/351/235 165/352/236
f 159/353/237 181/354/238 182/355/239 183/356/240 160/357/241
f 160/357/241 183/356/240 184/358/242 185/359/243 161/360/119
f 267/361/244 244/362/245 243/363/245 268/214/166 237/213/165 238/364/246 253/365/247 254/366/247 283/367/248 285/333/225 287/290/203
f 266/368/249 252/43/40 241/42/39 242/41/39 277/40/38 268/214/166 243/363/245 244/362/245 267/361/244
f 403/60/55 404/369/43 369/370/46 367/371/138
f 70/133/99 82/372/154 81/240/153 80/239/105 69/373/104
f 339/374/103 352/375/250 351/202/155 350/201/154 338/144/99
f 255/376/251 239/377/252 240/378/160 256/379/148
f 72/380/113 86/381/95 85/382/94 84/383/250 71/137/103
f 66/384/52 67/385/53 132/386/54 135/387/55
f 340/388/113 354/389/95 353/390/94 352/375/250 339/374/103
f 210/391/253 212/392/220 214/393/254 213/394/255 215/395/255 167/396/255 168/397/256 169/398/257 170/399/258 209/400/253
f 325/401/259 326/402/260 357/403/116 366/146/110 365/145/109 324/404/261
f 203/191/145 174/190/144 175/405/122 202/406/262 206/308/216 204/186/140
f 115/407/98 118/408/149 83/409/155 84/383/250 85/382/94 114/410/93
f 188/411/263 191/346/234 165/352/236 166/177/133
f 211/412/219 220/413/264 221/414/265 216/415/266
f 230/416/75 247/417/74 309/418/73 311/294/205 246/123/91 229/122/90
f 56/419/267 97/420/109 96/269/114 95/268/170 55/421/268
f 138/422/135 139/423/269 156/424/270 155/425/136
f 55/421/268 95/268/170 94/267/102 93/426/101 54/427/173
f 143/428/271 182/355/239 181/354/238 180/429/272 141/430/273 142/431/274
f 356/432/118 333/433/117 332/434/117 357/435/116 326/436/260 327/437/275 342/438/60 343/439/60 373/312/59 375/311/161 377/440/87
f 99/441/138 101/442/46 103/443/190 102/64/58
f 21/56/6 20/444/5 36/445/224 37/55/51
f 102/64/58 103/443/190 106/247/161 104/65/59
f 117/446/97 116/447/159 123/448/158 124/233/151 119/449/150
f 160/450/241 173/189/143 172/188/142 171/451/276 159/452/237
f 106/264/161 105/36/34 107/35/33 108/453/87
f 219/454/277 217/455/278 216/415/266 221/414/265 223/336/227 224/335/226
f 218/456/279 219/457/277 224/458/226 222/459/280
f 221/414/265 220/413/264 193/460/281 195/461/282 189/462/283 227/337/228 223/336/227
f 111/120/88 110/119/36 112/463/156 113/464/96
f 226/338/229 227/337/228 189/462/283 190/465/284
f 118/408/149 119/449/150 124/233/151 122/232/152 120/241/152 81/240/153 82/372/154 83/409/155
f 385/307/97 384/306/215 390/466/285 391/197/151 387/196/150
f 291/341/231 289/276/196 288/275/195 300/467/286 302/468/287 295/342/232
f 303/113/84 302/469/287 307/470/222 308/83/71 305/95/81
f 376/210/163 374/209/162 372/303/213 378/471/288
f 217/472/278 219/457/277 218/456/279 157/473/289 140/474/290 141/475/273 180/476/272 179/477/291 168/397/256 167/396/255 215/395/255 213/394/255 214/393/254
f 398/278/198 396/277/197 395/478/292 401/479/211 402/480/208
f 87/481/115 111/120/88 113/464/96 86/482/95
f 402/480/208 401/479/211 405/483/44 404/369/43
f 113/484/96 112/485/156 116/447/159 117/446/97
f 201/486/293 199/487/131 193/460/281 220/413/264 211/412/219 205/488/218
f 69/373/104 80/239/105 79/238/106 90/489/107 91/490/108 92/134/100 70/133/99
f 281/261/188 283/367/248 254/366/247 253/365/247 238/364/246 239/377/252 255/376/251
f 249/172/123 271/491/294 272/492/295 273/493/296 250/168/126
f 250/168/126 273/493/296 274/494/297 275/495/42 251/496/41
f 322/497/172 361/498/101 360/499/100 359/283/108 320/282/202 321/500/298
f 135/387/55 99/501/138 77/502/139 66/384/52
f 33/503/48 48/504/47 47/505/16 46/506/15 45/507/70 44/508/68 43/509/67 42/510/69 41/511/64 40/512/65 39/513/50 38/514/49 37/515/51 36/516/224 35/517/57 34/518/56
f 379/519/88 378/520/288 380/521/214 381/130/96
f 367/182/138 369/522/46 371/310/190 370/183/58
f 72/523/113 73/524/112 87/481/115 86/482/95
f 338/144/99 350/201/154 349/200/153 348/139/105 337/138/104
f 161/525/119 175/405/122 174/190/144 173/189/143 160/450/241
f 21/56/6 22/3/3 6/2/2 5/526/7
f 245/124/92 246/123/91 311/294/205 314/192/146
f 403/60/55 400/59/54 402/480/208 404/369/43
f 225/527/299 188/411/263 166/177/133 155/180/136
f 389/198/152 391/197/151 393/528/176 392/529/177 394/530/177 346/531/177 347/140/106 348/139/105 349/200/153 388/199/152
f 266/368/249 267/361/244 287/290/203 290/293/204
f 114/532/93 85/533/94 86/482/95 113/464/96 117/534/97 115/535/98
f 383/536/98 386/195/149 351/202/155 352/375/250 353/390/94 382/537/93
f 176/163/121 162/162/120 151/538/300 152/539/300 187/540/301 178/251/180 153/250/179 154/249/179 177/181/137
f 186/541/302 187/540/301 152/539/300 151/538/300 162/162/120 161/161/119 185/542/243
f 266/543/249 290/544/204 292/545/230 265/546/303
f 324/404/261 365/145/109 364/151/114 363/222/170 323/223/171
f 165/352/236 149/351/235 150/178/134 166/177/133
f 49/547/169 50/548/304 67/385/53 66/384/52
f 144/549/305 184/358/242 183/356/240 182/355/239 143/428/271
f 233/550/306 272/551/295 271/552/294 270/553/77 231/554/76 232/555/307
f 297/556/308 294/557/309 296/558/233 298/559/310
f 191/560/234 192/561/311 196/257/185 194/256/184
f 296/343/233 295/342/232 302/468/287 303/562/84 298/563/310
f 196/257/185 195/564/282 197/174/130 198/173/129
f 131/317/198 129/316/197 128/565/312 133/298/209 134/297/208
f 309/418/73 310/566/72 313/295/206 311/294/205
f 355/152/115 379/519/88 381/130/96 354/129/95
f 200/567/132 199/568/131 201/569/293 202/406/262
f 135/387/55 136/300/43 101/570/46 99/501/138
f 202/406/262 201/569/293 205/313/218 206/308/216
f 386/195/149 383/536/98 385/307/97 387/196/150
f 281/261/188 282/260/187 285/333/225 283/367/248
f 57/571/313 58/572/178 89/573/116 98/574/110 97/420/109 56/419/267
f 403/60/55 367/371/138 345/575/139 334/57/52
f 99/441/138 102/64/58 76/70/63 77/216/139
f 124/233/151 123/448/158 128/576/312 129/577/197 126/234/176
f 395/578/292 390/579/285 399/302/212 401/301/211
f 370/183/58 373/312/59 343/439/60 342/438/60 327/437/275 328/580/314 344/184/63
f 397/279/199 398/278/198 402/480/208 400/59/54
f 225/581/299 222/582/280 224/335/226 226/338/229
f 32/28/28 31/14/14 47/16/16 48/50/47
f 87/481/115 88/583/118 108/117/87 111/120/88
f 312/330/223 300/467/286 288/275/195 284/274/194 279/584/315 316/585/316
f 158/586/317 169/398/257 168/397/256 179/477/291 180/476/272 181/587/238 159/588/237
f 234/589/318 274/494/297 273/493/296 272/492/295 233/590/306
f 197/591/130 195/461/282 193/460/281 199/487/131
f 338/144/99 360/143/100 361/592/101 362/593/102 339/374/103
f 369/49/46 368/48/45 374/209/162 375/208/161 371/594/190
f 248/167/125 259/114/85 258/91/79 269/90/78 270/89/77 271/595/294 249/165/123
f 97/420/109 98/574/110 63/596/111 62/597/111 73/598/112 72/270/113 96/269/114
f 340/599/113 341/153/112 355/152/115 354/129/95
f 11/126/82 10/25/25 26/24/24 27/75/66
f 251/600/41 252/601/40 266/543/249 265/546/303
f 159/452/237 171/451/276 170/602/258 169/603/257 158/604/317
f 9/605/26 8/9/9 24/10/10 25/72/23
f 71/137/103 84/383/250 83/409/155 82/372/154 70/133/99
f 140/474/290 157/473/289 218/456/279 222/459/280 156/424/270 139/423/269
f 251/600/41 265/546/303 264/606/319 263/607/127 250/608/126
f 155/180/136 156/609/270 222/610/280 225/527/299
f 278/193/147 281/611/188 255/612/251 256/194/148
f 319/281/201 336/280/200 397/279/199 400/59/54 335/58/53 318/272/192
f 293/613/320 264/606/319 265/546/303 292/545/230 296/558/233 294/557/309
f 355/152/115 356/160/118 377/614/87 379/519/88
f 294/557/309 297/556/308 262/615/128 263/607/127 264/606/319 293/613/320
f 146/616/321 147/252/181 178/251/180 187/540/301 186/541/302 145/617/322
f 345/185/139 329/618/323 317/619/191 334/620/52
f 145/621/322 186/622/302 185/359/243 184/358/242 144/549/305
f 344/184/63 328/580/314 329/618/323 345/185/139
f 235/623/167 276/624/37 275/495/42 274/494/297 234/589/318
f 51/320/221 68/319/200 130/318/199 132/386/54 67/385/53 50/548/304
f 87/481/115 73/524/112 62/625/111 63/626/111 98/627/110 89/628/116 64/629/117 65/630/117 88/583/118
f 188/411/263 190/631/284 192/632/311 191/346/234
f 207/187/141 208/309/217 212/315/220 210/633/253 209/634/253 170/602/258 171/451/276 172/188/142
f 190/465/284 189/462/283 195/461/282 196/635/185 192/636/311
f 212/637/220 211/412/219 216/415/266 217/455/278 214/638/254
f 128/639/312 123/205/158 121/204/157 133/344/209
f 377/614/87 376/640/163 378/520/288 379/519/88
f 130/318/199 131/317/198 134/297/208 132/386/54
f 135/387/55 132/386/54 134/297/208 136/300/43
f 290/641/204 289/276/196 291/341/231 292/340/230
f 315/296/207 316/642/316 279/643/315 280/339/186
f 118/408/149 115/407/98 117/446/97 119/449/150
f 297/644/308 298/645/310 303/113/84 301/112/83 299/116/83 260/115/86 261/166/124 262/646/128
f 280/259/186 279/647/315 284/334/194 285/333/225 282/260/187
f 391/197/151 390/466/285 395/648/292 396/649/197 393/528/176
f 307/329/222 302/468/287 300/467/286 312/330/223
f 27/75/66 26/24/24 42/79/69 43/76/67
f 176/163/121 200/176/132 202/650/262 175/164/122
f 313/295/206 312/651/223 316/642/316 315/296/207
f 225/527/299 226/652/229 190/631/284 188/411/263
f 136/653/43 137/345/210 100/263/189 101/262/46
f 380/654/214 378/471/288 372/303/213 399/302/212 390/579/285 384/655/215
f 240/378/160 239/377/252 412/377/324 413/378/325
f 238/364/246 237/213/165 410/213/326 411/364/327
f 239/377/252 238/364/246 411/364/327 412/377/324
f 231/88/76 230/87/75 408/87/328 409/88/329
f 229/122/90 228/121/89 406/121/330 407/122/331
f 230/416/75 229/122/90 407/122/331 408/416/328
f 228/121/89 240/207/160 413/207/325 406/121/330
f 231/88/76 409/88/329 232/555/307
f 141/475/273 140/474/290 416/474/332 417/475/332
f 139/423/269 138/422/135 414/422/332 415/423/332
f 140/474/290 139/423/269 415/423/332 416/474/332
f 138/179/135 150/178/134 421/178/332 414/179/332
f 150/178/134 149/351/235 420/351/332 421/178/332
f 148/253/182 147/252/181 418/252/332 419/253/332
f 149/351/235 148/350/182 419/350/332 420/351/332
f 419/253/332 418/252/332 426/252/333 427/253/334
f 414/179/332 421/178/332 429/178/335 422/179/336
f 421/178/332 420/351/332 428/351/337 429/178/335
f 417/475/332 416/474/332 424/474/338 425/475/339
f 420/351/332 419/350/332 427/350/334 428/351/337
f 415/423/332 414/422/332 422/422/336 423/423/340
f 416/474/332 415/423/332 423/423/340 424/474/338
f 427/253/334 426/252/333 434/252/341 435/253/342
f 422/179/336 429/178/335 437/178/343 430/179/344
f 429/178/335 428/351/337 436/351/345 437/178/343
f 425/475/339 424/474/338 432/474/346 433/475/347
f 428/351/337 427/350/334 435/350/342 436/351/345
f 423/423/340 422/422/336 430/422/344 431/423/348
f 424/474/338 423/423/340 431/423/348 432/474/346
f 142/656/349 425/475/339 433/475/347
f 324/404/261 323/223/171 444/223/350 445/404/351
f 322/497/172 321/500/298 442/500/352 443/497/353
f 321/500/298 320/282/202 441/282/354 442/500/352
f 329/618/323 328/580/314 449/580/355 450/618/356
f 318/272/192 317/271/191 438/271/357 439/272/358
f 327/437/275 326/436/260 447/436/359 448/437/360
f 323/223/171 322/225/172 443/225/353 444/223/350
f 325/401/259 324/404/261 445/404/351 446/401/361
f 326/402/260 325/401/259 446/401/361 447/402/359
f 317/619/191 329/618/323 450/618/356 438/619/357
f 319/281/201 318/272/192 439/272/358 440/281/362
f 320/282/202 319/281/201 440/281/362 441/282/354
f 328/580/314 327/437/275 448/437/360 449/580/355
